%
M48
M72
T01C0.0236
T02C0.0320
T03C0.0394
T04C0.0400
T05C0.0512
T06C0.1300
%
T01
X12500Y4000
X23000Y10000
T02
X18500Y11500
X19500Y11500
X18500Y8500
X16500Y8500
X17000Y6000
X18000Y6000
T03
X11500Y1500
X12500Y1500
X13500Y1500
X14500Y1500
X15500Y1500
X16500Y1500
X17500Y1500
X18500Y1500
X20500Y1500
X21500Y1500
X22500Y1500
X23500Y1500
X24500Y1500
X25500Y1500
X11900Y20500
X12900Y20500
X13900Y20500
X14900Y20500
X15900Y20500
X16900Y20500
X18500Y20500
X19500Y20500
X20500Y20500
X21500Y20500
X22500Y20500
X23500Y20500
X24500Y20500
X25500Y20500
X10900Y20500
X9900Y20500
X8900Y20500
X7900Y20500
T04
X11500Y9500
X12500Y9500
X13500Y9500
X13500Y6000
X12500Y6000
T05
X6510Y7508
X6510Y9508
X22990Y15492
X22990Y13492
T06
X12500Y15400
M30
