G75*
%MOIN*%
%OFA0B0*%
%FSLAX25Y25*%
%IPPOS*%
%LPD*%
%AMOC8*
5,1,8,0,0,1.08239X$1,22.5*
%
%ADD10OC8,0.05200*%
%ADD11OC8,0.06300*%
%ADD12C,0.06300*%
%ADD13R,0.00984X0.03937*%
%ADD14C,0.06000*%
%ADD15C,0.00000*%
%ADD16OC8,0.06600*%
%ADD17C,0.07874*%
%ADD18C,0.00600*%
%ADD19C,0.01200*%
%ADD20C,0.03200*%
%ADD21C,0.03562*%
%ADD22C,0.05000*%
D10*
X0165000Y0085000D03*
X0185000Y0085000D03*
D11*
X0180000Y0060000D03*
X0185000Y0115000D03*
D12*
X0195000Y0115000D03*
X0170000Y0060000D03*
D13*
X0221063Y0066681D03*
X0223031Y0066681D03*
X0225000Y0066681D03*
X0226969Y0066681D03*
X0228937Y0066681D03*
X0228937Y0083319D03*
X0226969Y0083319D03*
X0225000Y0083319D03*
X0223031Y0083319D03*
X0221063Y0083319D03*
D14*
X0135000Y0092000D02*
X0135000Y0098000D01*
X0125000Y0098000D02*
X0125000Y0092000D01*
X0115000Y0092000D02*
X0115000Y0098000D01*
X0125000Y0063000D02*
X0125000Y0057000D01*
X0135000Y0057000D02*
X0135000Y0063000D01*
D15*
X0005000Y0005000D02*
X0005000Y0215000D01*
X0259000Y0215000D01*
X0265000Y0209000D01*
X0265000Y0164000D01*
X0275000Y0154000D01*
X0275000Y0025000D01*
X0265000Y0015000D01*
X0265000Y0005000D01*
X0005000Y0005000D01*
X0118500Y0154000D02*
X0118502Y0154161D01*
X0118508Y0154321D01*
X0118518Y0154482D01*
X0118532Y0154642D01*
X0118550Y0154802D01*
X0118571Y0154961D01*
X0118597Y0155120D01*
X0118627Y0155278D01*
X0118660Y0155435D01*
X0118698Y0155592D01*
X0118739Y0155747D01*
X0118784Y0155901D01*
X0118833Y0156054D01*
X0118886Y0156206D01*
X0118942Y0156357D01*
X0119003Y0156506D01*
X0119066Y0156654D01*
X0119134Y0156800D01*
X0119205Y0156944D01*
X0119279Y0157086D01*
X0119357Y0157227D01*
X0119439Y0157365D01*
X0119524Y0157502D01*
X0119612Y0157636D01*
X0119704Y0157768D01*
X0119799Y0157898D01*
X0119897Y0158026D01*
X0119998Y0158151D01*
X0120102Y0158273D01*
X0120209Y0158393D01*
X0120319Y0158510D01*
X0120432Y0158625D01*
X0120548Y0158736D01*
X0120667Y0158845D01*
X0120788Y0158950D01*
X0120912Y0159053D01*
X0121038Y0159153D01*
X0121166Y0159249D01*
X0121297Y0159342D01*
X0121431Y0159432D01*
X0121566Y0159519D01*
X0121704Y0159602D01*
X0121843Y0159682D01*
X0121985Y0159758D01*
X0122128Y0159831D01*
X0122273Y0159900D01*
X0122420Y0159966D01*
X0122568Y0160028D01*
X0122718Y0160086D01*
X0122869Y0160141D01*
X0123022Y0160192D01*
X0123176Y0160239D01*
X0123331Y0160282D01*
X0123487Y0160321D01*
X0123643Y0160357D01*
X0123801Y0160388D01*
X0123959Y0160416D01*
X0124118Y0160440D01*
X0124278Y0160460D01*
X0124438Y0160476D01*
X0124598Y0160488D01*
X0124759Y0160496D01*
X0124920Y0160500D01*
X0125080Y0160500D01*
X0125241Y0160496D01*
X0125402Y0160488D01*
X0125562Y0160476D01*
X0125722Y0160460D01*
X0125882Y0160440D01*
X0126041Y0160416D01*
X0126199Y0160388D01*
X0126357Y0160357D01*
X0126513Y0160321D01*
X0126669Y0160282D01*
X0126824Y0160239D01*
X0126978Y0160192D01*
X0127131Y0160141D01*
X0127282Y0160086D01*
X0127432Y0160028D01*
X0127580Y0159966D01*
X0127727Y0159900D01*
X0127872Y0159831D01*
X0128015Y0159758D01*
X0128157Y0159682D01*
X0128296Y0159602D01*
X0128434Y0159519D01*
X0128569Y0159432D01*
X0128703Y0159342D01*
X0128834Y0159249D01*
X0128962Y0159153D01*
X0129088Y0159053D01*
X0129212Y0158950D01*
X0129333Y0158845D01*
X0129452Y0158736D01*
X0129568Y0158625D01*
X0129681Y0158510D01*
X0129791Y0158393D01*
X0129898Y0158273D01*
X0130002Y0158151D01*
X0130103Y0158026D01*
X0130201Y0157898D01*
X0130296Y0157768D01*
X0130388Y0157636D01*
X0130476Y0157502D01*
X0130561Y0157365D01*
X0130643Y0157227D01*
X0130721Y0157086D01*
X0130795Y0156944D01*
X0130866Y0156800D01*
X0130934Y0156654D01*
X0130997Y0156506D01*
X0131058Y0156357D01*
X0131114Y0156206D01*
X0131167Y0156054D01*
X0131216Y0155901D01*
X0131261Y0155747D01*
X0131302Y0155592D01*
X0131340Y0155435D01*
X0131373Y0155278D01*
X0131403Y0155120D01*
X0131429Y0154961D01*
X0131450Y0154802D01*
X0131468Y0154642D01*
X0131482Y0154482D01*
X0131492Y0154321D01*
X0131498Y0154161D01*
X0131500Y0154000D01*
X0131498Y0153839D01*
X0131492Y0153679D01*
X0131482Y0153518D01*
X0131468Y0153358D01*
X0131450Y0153198D01*
X0131429Y0153039D01*
X0131403Y0152880D01*
X0131373Y0152722D01*
X0131340Y0152565D01*
X0131302Y0152408D01*
X0131261Y0152253D01*
X0131216Y0152099D01*
X0131167Y0151946D01*
X0131114Y0151794D01*
X0131058Y0151643D01*
X0130997Y0151494D01*
X0130934Y0151346D01*
X0130866Y0151200D01*
X0130795Y0151056D01*
X0130721Y0150914D01*
X0130643Y0150773D01*
X0130561Y0150635D01*
X0130476Y0150498D01*
X0130388Y0150364D01*
X0130296Y0150232D01*
X0130201Y0150102D01*
X0130103Y0149974D01*
X0130002Y0149849D01*
X0129898Y0149727D01*
X0129791Y0149607D01*
X0129681Y0149490D01*
X0129568Y0149375D01*
X0129452Y0149264D01*
X0129333Y0149155D01*
X0129212Y0149050D01*
X0129088Y0148947D01*
X0128962Y0148847D01*
X0128834Y0148751D01*
X0128703Y0148658D01*
X0128569Y0148568D01*
X0128434Y0148481D01*
X0128296Y0148398D01*
X0128157Y0148318D01*
X0128015Y0148242D01*
X0127872Y0148169D01*
X0127727Y0148100D01*
X0127580Y0148034D01*
X0127432Y0147972D01*
X0127282Y0147914D01*
X0127131Y0147859D01*
X0126978Y0147808D01*
X0126824Y0147761D01*
X0126669Y0147718D01*
X0126513Y0147679D01*
X0126357Y0147643D01*
X0126199Y0147612D01*
X0126041Y0147584D01*
X0125882Y0147560D01*
X0125722Y0147540D01*
X0125562Y0147524D01*
X0125402Y0147512D01*
X0125241Y0147504D01*
X0125080Y0147500D01*
X0124920Y0147500D01*
X0124759Y0147504D01*
X0124598Y0147512D01*
X0124438Y0147524D01*
X0124278Y0147540D01*
X0124118Y0147560D01*
X0123959Y0147584D01*
X0123801Y0147612D01*
X0123643Y0147643D01*
X0123487Y0147679D01*
X0123331Y0147718D01*
X0123176Y0147761D01*
X0123022Y0147808D01*
X0122869Y0147859D01*
X0122718Y0147914D01*
X0122568Y0147972D01*
X0122420Y0148034D01*
X0122273Y0148100D01*
X0122128Y0148169D01*
X0121985Y0148242D01*
X0121843Y0148318D01*
X0121704Y0148398D01*
X0121566Y0148481D01*
X0121431Y0148568D01*
X0121297Y0148658D01*
X0121166Y0148751D01*
X0121038Y0148847D01*
X0120912Y0148947D01*
X0120788Y0149050D01*
X0120667Y0149155D01*
X0120548Y0149264D01*
X0120432Y0149375D01*
X0120319Y0149490D01*
X0120209Y0149607D01*
X0120102Y0149727D01*
X0119998Y0149849D01*
X0119897Y0149974D01*
X0119799Y0150102D01*
X0119704Y0150232D01*
X0119612Y0150364D01*
X0119524Y0150498D01*
X0119439Y0150635D01*
X0119357Y0150773D01*
X0119279Y0150914D01*
X0119205Y0151056D01*
X0119134Y0151200D01*
X0119066Y0151346D01*
X0119003Y0151494D01*
X0118942Y0151643D01*
X0118886Y0151794D01*
X0118833Y0151946D01*
X0118784Y0152099D01*
X0118739Y0152253D01*
X0118698Y0152408D01*
X0118660Y0152565D01*
X0118627Y0152722D01*
X0118597Y0152880D01*
X0118571Y0153039D01*
X0118550Y0153198D01*
X0118532Y0153358D01*
X0118518Y0153518D01*
X0118508Y0153679D01*
X0118502Y0153839D01*
X0118500Y0154000D01*
D16*
X0119000Y0205000D03*
X0129000Y0205000D03*
X0139000Y0205000D03*
X0149000Y0205000D03*
X0159000Y0205000D03*
X0169000Y0205000D03*
X0185000Y0205000D03*
X0195000Y0205000D03*
X0205000Y0205000D03*
X0215000Y0205000D03*
X0225000Y0205000D03*
X0235000Y0205000D03*
X0245000Y0205000D03*
X0255000Y0205000D03*
X0109000Y0205000D03*
X0099000Y0205000D03*
X0089000Y0205000D03*
X0079000Y0205000D03*
X0115000Y0015000D03*
X0125000Y0015000D03*
X0135000Y0015000D03*
X0145000Y0015000D03*
X0155000Y0015000D03*
X0165000Y0015000D03*
X0175000Y0015000D03*
X0185000Y0015000D03*
X0205000Y0015000D03*
X0215000Y0015000D03*
X0225000Y0015000D03*
X0235000Y0015000D03*
X0245000Y0015000D03*
X0255000Y0015000D03*
D17*
X0229902Y0134917D03*
X0229902Y0154917D03*
X0065098Y0095083D03*
X0065098Y0075083D03*
D18*
X0064798Y0074989D02*
X0006900Y0074989D01*
X0006900Y0075587D02*
X0059876Y0075587D01*
X0059861Y0075495D02*
X0059861Y0075383D01*
X0064798Y0075383D01*
X0064798Y0074783D01*
X0059861Y0074783D01*
X0059861Y0074671D01*
X0059990Y0073857D01*
X0060245Y0073073D01*
X0060619Y0072338D01*
X0061104Y0071671D01*
X0061687Y0071088D01*
X0062354Y0070604D01*
X0063088Y0070230D01*
X0063872Y0069975D01*
X0064686Y0069846D01*
X0064798Y0069846D01*
X0064798Y0074783D01*
X0065398Y0074783D01*
X0065398Y0069846D01*
X0065511Y0069846D01*
X0066325Y0069975D01*
X0067109Y0070230D01*
X0067843Y0070604D01*
X0068510Y0071088D01*
X0069093Y0071671D01*
X0069578Y0072338D01*
X0069952Y0073073D01*
X0070206Y0073857D01*
X0070335Y0074671D01*
X0070335Y0074783D01*
X0065398Y0074783D01*
X0065398Y0075383D01*
X0064798Y0075383D01*
X0064798Y0080320D01*
X0064686Y0080320D01*
X0063872Y0080191D01*
X0063088Y0079936D01*
X0062354Y0079562D01*
X0061687Y0079078D01*
X0061104Y0078495D01*
X0060619Y0077828D01*
X0060245Y0077093D01*
X0059990Y0076309D01*
X0059861Y0075495D01*
X0059971Y0076186D02*
X0006900Y0076186D01*
X0006900Y0076784D02*
X0060145Y0076784D01*
X0060392Y0077383D02*
X0006900Y0077383D01*
X0006900Y0077981D02*
X0060731Y0077981D01*
X0061189Y0078580D02*
X0006900Y0078580D01*
X0006900Y0079178D02*
X0061825Y0079178D01*
X0062775Y0079777D02*
X0006900Y0079777D01*
X0006900Y0080375D02*
X0130600Y0080375D01*
X0130600Y0079777D02*
X0067422Y0079777D01*
X0067109Y0079936D02*
X0066325Y0080191D01*
X0065511Y0080320D01*
X0065398Y0080320D01*
X0065398Y0075383D01*
X0070335Y0075383D01*
X0070335Y0075495D01*
X0070206Y0076309D01*
X0069952Y0077093D01*
X0069578Y0077828D01*
X0069093Y0078495D01*
X0068510Y0079078D01*
X0067843Y0079562D01*
X0067109Y0079936D01*
X0068372Y0079178D02*
X0130600Y0079178D01*
X0130600Y0078580D02*
X0069008Y0078580D01*
X0069466Y0077981D02*
X0130600Y0077981D01*
X0130600Y0077383D02*
X0069804Y0077383D01*
X0070052Y0076784D02*
X0130600Y0076784D01*
X0130600Y0076186D02*
X0070226Y0076186D01*
X0070321Y0075587D02*
X0130600Y0075587D01*
X0130600Y0074989D02*
X0065398Y0074989D01*
X0065398Y0075587D02*
X0064798Y0075587D01*
X0064798Y0076186D02*
X0065398Y0076186D01*
X0065398Y0076784D02*
X0064798Y0076784D01*
X0064798Y0077383D02*
X0065398Y0077383D01*
X0065398Y0077981D02*
X0064798Y0077981D01*
X0064798Y0078580D02*
X0065398Y0078580D01*
X0065398Y0079178D02*
X0064798Y0079178D01*
X0064798Y0079777D02*
X0065398Y0079777D01*
X0065398Y0074390D02*
X0064798Y0074390D01*
X0064798Y0073792D02*
X0065398Y0073792D01*
X0065398Y0073193D02*
X0064798Y0073193D01*
X0064798Y0072595D02*
X0065398Y0072595D01*
X0065398Y0071996D02*
X0064798Y0071996D01*
X0064798Y0071398D02*
X0065398Y0071398D01*
X0065398Y0070799D02*
X0064798Y0070799D01*
X0064798Y0070201D02*
X0065398Y0070201D01*
X0067019Y0070201D02*
X0130600Y0070201D01*
X0130600Y0070799D02*
X0068112Y0070799D01*
X0068819Y0071398D02*
X0130600Y0071398D01*
X0130600Y0071996D02*
X0069329Y0071996D01*
X0069708Y0072595D02*
X0130600Y0072595D01*
X0130600Y0073193D02*
X0069991Y0073193D01*
X0070185Y0073792D02*
X0130600Y0073792D01*
X0130600Y0074390D02*
X0070291Y0074390D01*
X0063178Y0070201D02*
X0006900Y0070201D01*
X0006900Y0070799D02*
X0062085Y0070799D01*
X0061378Y0071398D02*
X0006900Y0071398D01*
X0006900Y0071996D02*
X0060868Y0071996D01*
X0060489Y0072595D02*
X0006900Y0072595D01*
X0006900Y0073193D02*
X0060206Y0073193D01*
X0060012Y0073792D02*
X0006900Y0073792D01*
X0006900Y0074390D02*
X0059906Y0074390D01*
X0063937Y0089246D02*
X0061792Y0090135D01*
X0060150Y0091777D01*
X0059261Y0093922D01*
X0059261Y0096244D01*
X0060150Y0098389D01*
X0061792Y0100031D01*
X0063937Y0100920D01*
X0066259Y0100920D01*
X0068405Y0100031D01*
X0068953Y0099483D01*
X0079047Y0099483D01*
X0079052Y0099485D01*
X0079920Y0099483D01*
X0080792Y0099483D01*
X0080797Y0099481D01*
X0110281Y0099411D01*
X0110846Y0100776D01*
X0112224Y0102154D01*
X0114025Y0102900D01*
X0115975Y0102900D01*
X0117776Y0102154D01*
X0119154Y0100776D01*
X0119900Y0098975D01*
X0119900Y0091025D01*
X0119154Y0089224D01*
X0117776Y0087846D01*
X0115975Y0087100D01*
X0114025Y0087100D01*
X0112224Y0087846D01*
X0110846Y0089224D01*
X0110272Y0090611D01*
X0079909Y0090683D01*
X0068953Y0090683D01*
X0068405Y0090135D01*
X0066259Y0089246D01*
X0063937Y0089246D01*
X0063679Y0089353D02*
X0006900Y0089353D01*
X0006900Y0089951D02*
X0062235Y0089951D01*
X0061377Y0090550D02*
X0006900Y0090550D01*
X0006900Y0091148D02*
X0060778Y0091148D01*
X0060180Y0091747D02*
X0006900Y0091747D01*
X0006900Y0092345D02*
X0059914Y0092345D01*
X0059667Y0092944D02*
X0006900Y0092944D01*
X0006900Y0093542D02*
X0059419Y0093542D01*
X0059261Y0094141D02*
X0006900Y0094141D01*
X0006900Y0094739D02*
X0059261Y0094739D01*
X0059261Y0095338D02*
X0006900Y0095338D01*
X0006900Y0095937D02*
X0059261Y0095937D01*
X0059382Y0096535D02*
X0006900Y0096535D01*
X0006900Y0097134D02*
X0059630Y0097134D01*
X0059878Y0097732D02*
X0006900Y0097732D01*
X0006900Y0098331D02*
X0060126Y0098331D01*
X0060690Y0098929D02*
X0006900Y0098929D01*
X0006900Y0099528D02*
X0061288Y0099528D01*
X0062021Y0100126D02*
X0006900Y0100126D01*
X0006900Y0100725D02*
X0063465Y0100725D01*
X0066731Y0100725D02*
X0110825Y0100725D01*
X0110577Y0100126D02*
X0068176Y0100126D01*
X0068909Y0099528D02*
X0110329Y0099528D01*
X0111393Y0101323D02*
X0006900Y0101323D01*
X0006900Y0101922D02*
X0111992Y0101922D01*
X0113108Y0102520D02*
X0006900Y0102520D01*
X0006900Y0103119D02*
X0203770Y0103119D01*
X0203172Y0103717D02*
X0006900Y0103717D01*
X0006900Y0104316D02*
X0202573Y0104316D01*
X0201975Y0104914D02*
X0006900Y0104914D01*
X0006900Y0105513D02*
X0201376Y0105513D01*
X0200778Y0106111D02*
X0006900Y0106111D01*
X0006900Y0106710D02*
X0200179Y0106710D01*
X0199580Y0107308D02*
X0006900Y0107308D01*
X0006900Y0107907D02*
X0198982Y0107907D01*
X0198383Y0108505D02*
X0006900Y0108505D01*
X0006900Y0109104D02*
X0197785Y0109104D01*
X0197186Y0109702D02*
X0006900Y0109702D01*
X0006900Y0110301D02*
X0193149Y0110301D01*
X0193995Y0109950D02*
X0192139Y0110719D01*
X0190719Y0112139D01*
X0189950Y0113995D01*
X0189950Y0116005D01*
X0190719Y0117861D01*
X0192139Y0119281D01*
X0193995Y0120050D01*
X0196005Y0120050D01*
X0197861Y0119281D01*
X0199281Y0117861D01*
X0200050Y0116005D01*
X0200050Y0113995D01*
X0199776Y0113335D01*
X0222500Y0090611D01*
X0222500Y0093964D01*
X0213584Y0102881D01*
X0212881Y0103584D01*
X0212500Y0104503D01*
X0212500Y0140513D01*
X0212881Y0141431D01*
X0224399Y0152949D01*
X0224065Y0153756D01*
X0224065Y0156078D01*
X0224953Y0158223D01*
X0226595Y0159865D01*
X0228741Y0160754D01*
X0231063Y0160754D01*
X0233208Y0159865D01*
X0234850Y0158223D01*
X0235739Y0156078D01*
X0235739Y0153756D01*
X0234850Y0151611D01*
X0233208Y0149969D01*
X0231063Y0149080D01*
X0228741Y0149080D01*
X0227934Y0149414D01*
X0217500Y0138980D01*
X0217500Y0106036D01*
X0224469Y0099067D01*
X0224469Y0132481D01*
X0224531Y0132631D01*
X0224065Y0133756D01*
X0224065Y0136078D01*
X0224953Y0138223D01*
X0226595Y0139865D01*
X0228741Y0140754D01*
X0231063Y0140754D01*
X0233208Y0139865D01*
X0234850Y0138223D01*
X0235739Y0136078D01*
X0235739Y0133756D01*
X0234850Y0131611D01*
X0233208Y0129969D01*
X0231063Y0129080D01*
X0229468Y0129080D01*
X0229468Y0103681D01*
X0230732Y0103681D01*
X0232085Y0103121D01*
X0233121Y0102085D01*
X0233681Y0100732D01*
X0233681Y0099268D01*
X0233121Y0097915D01*
X0232500Y0097294D01*
X0232500Y0089503D01*
X0232119Y0088584D01*
X0231437Y0087901D01*
X0231437Y0074137D01*
X0231056Y0073218D01*
X0230353Y0072515D01*
X0229629Y0072215D01*
X0227963Y0070549D01*
X0230216Y0070549D01*
X0231329Y0069436D01*
X0231329Y0063925D01*
X0230216Y0062812D01*
X0229168Y0062812D01*
X0229168Y0043943D01*
X0252911Y0020200D01*
X0257154Y0020200D01*
X0260200Y0017154D01*
X0260200Y0012846D01*
X0257154Y0009800D01*
X0252846Y0009800D01*
X0250000Y0012646D01*
X0247154Y0009800D01*
X0242846Y0009800D01*
X0240000Y0012646D01*
X0237154Y0009800D01*
X0232846Y0009800D01*
X0230000Y0012646D01*
X0227154Y0009800D01*
X0222846Y0009800D01*
X0220000Y0012646D01*
X0217154Y0009800D01*
X0212846Y0009800D01*
X0210000Y0012646D01*
X0207154Y0009800D01*
X0202846Y0009800D01*
X0199800Y0012846D01*
X0199800Y0017154D01*
X0202846Y0020200D01*
X0207154Y0020200D01*
X0210000Y0017354D01*
X0212846Y0020200D01*
X0217154Y0020200D01*
X0220000Y0017354D01*
X0222846Y0020200D01*
X0227154Y0020200D01*
X0230000Y0017354D01*
X0232846Y0020200D01*
X0236689Y0020200D01*
X0224089Y0032800D01*
X0222800Y0034089D01*
X0222800Y0062812D01*
X0221752Y0062812D01*
X0221152Y0063412D01*
X0221063Y0063412D01*
X0221063Y0063502D01*
X0221063Y0063502D01*
X0221063Y0063412D01*
X0220400Y0063412D01*
X0220069Y0063501D01*
X0219773Y0063672D01*
X0219531Y0063914D01*
X0219359Y0064210D01*
X0219271Y0064541D01*
X0219271Y0066681D01*
X0220639Y0066681D01*
X0220639Y0066681D01*
X0219271Y0066681D01*
X0219271Y0068820D01*
X0219359Y0069151D01*
X0219531Y0069447D01*
X0219773Y0069689D01*
X0220069Y0069861D01*
X0220400Y0069949D01*
X0221063Y0069949D01*
X0221063Y0069860D01*
X0221063Y0069860D01*
X0221063Y0069949D01*
X0221152Y0069949D01*
X0221208Y0070005D01*
X0221208Y0070016D01*
X0222497Y0071305D01*
X0222497Y0071305D01*
X0226437Y0075245D01*
X0226437Y0079451D01*
X0223721Y0079451D01*
X0223121Y0080051D01*
X0223032Y0080051D01*
X0223032Y0080140D01*
X0223031Y0080140D01*
X0223031Y0080140D01*
X0223031Y0080051D01*
X0222942Y0080051D01*
X0222342Y0079451D01*
X0219784Y0079451D01*
X0218671Y0080564D01*
X0218671Y0086075D01*
X0218863Y0086267D01*
X0218863Y0088026D01*
X0196665Y0110224D01*
X0196005Y0109950D01*
X0193995Y0109950D01*
X0191959Y0110899D02*
X0187193Y0110899D01*
X0186843Y0110550D02*
X0189450Y0113157D01*
X0189450Y0114700D01*
X0185300Y0114700D01*
X0185300Y0115300D01*
X0189450Y0115300D01*
X0189450Y0116843D01*
X0186843Y0119450D01*
X0185300Y0119450D01*
X0185300Y0115300D01*
X0184700Y0115300D01*
X0184700Y0119450D01*
X0183157Y0119450D01*
X0180550Y0116843D01*
X0180550Y0115300D01*
X0184700Y0115300D01*
X0184700Y0114700D01*
X0185300Y0114700D01*
X0185300Y0110550D01*
X0186843Y0110550D01*
X0187791Y0111498D02*
X0191360Y0111498D01*
X0190762Y0112096D02*
X0188390Y0112096D01*
X0188988Y0112695D02*
X0190489Y0112695D01*
X0190241Y0113293D02*
X0189450Y0113293D01*
X0189450Y0113892D02*
X0189993Y0113892D01*
X0189950Y0114490D02*
X0189450Y0114490D01*
X0189950Y0115089D02*
X0185300Y0115089D01*
X0185300Y0115687D02*
X0184700Y0115687D01*
X0184700Y0115089D02*
X0006900Y0115089D01*
X0006900Y0115687D02*
X0180550Y0115687D01*
X0180550Y0116286D02*
X0006900Y0116286D01*
X0006900Y0116884D02*
X0180591Y0116884D01*
X0181190Y0117483D02*
X0006900Y0117483D01*
X0006900Y0118081D02*
X0181788Y0118081D01*
X0182387Y0118680D02*
X0006900Y0118680D01*
X0006900Y0119278D02*
X0182985Y0119278D01*
X0184700Y0119278D02*
X0185300Y0119278D01*
X0185300Y0118680D02*
X0184700Y0118680D01*
X0184700Y0118081D02*
X0185300Y0118081D01*
X0185300Y0117483D02*
X0184700Y0117483D01*
X0184700Y0116884D02*
X0185300Y0116884D01*
X0185300Y0116286D02*
X0184700Y0116286D01*
X0184700Y0114700D02*
X0180550Y0114700D01*
X0180550Y0113157D01*
X0183157Y0110550D01*
X0184700Y0110550D01*
X0184700Y0114700D01*
X0184700Y0114490D02*
X0185300Y0114490D01*
X0185300Y0113892D02*
X0184700Y0113892D01*
X0184700Y0113293D02*
X0185300Y0113293D01*
X0185300Y0112695D02*
X0184700Y0112695D01*
X0184700Y0112096D02*
X0185300Y0112096D01*
X0185300Y0111498D02*
X0184700Y0111498D01*
X0184700Y0110899D02*
X0185300Y0110899D01*
X0182807Y0110899D02*
X0006900Y0110899D01*
X0006900Y0111498D02*
X0182209Y0111498D01*
X0181610Y0112096D02*
X0006900Y0112096D01*
X0006900Y0112695D02*
X0181012Y0112695D01*
X0180550Y0113293D02*
X0006900Y0113293D01*
X0006900Y0113892D02*
X0180550Y0113892D01*
X0180550Y0114490D02*
X0006900Y0114490D01*
X0006900Y0119877D02*
X0193578Y0119877D01*
X0192137Y0119278D02*
X0187015Y0119278D01*
X0187613Y0118680D02*
X0191538Y0118680D01*
X0190940Y0118081D02*
X0188212Y0118081D01*
X0188810Y0117483D02*
X0190562Y0117483D01*
X0190314Y0116884D02*
X0189409Y0116884D01*
X0189450Y0116286D02*
X0190067Y0116286D01*
X0189950Y0115687D02*
X0189450Y0115687D01*
X0195000Y0115000D02*
X0221063Y0088937D01*
X0221063Y0083319D01*
X0218671Y0083368D02*
X0188883Y0083368D01*
X0188900Y0083385D02*
X0188900Y0084700D01*
X0185300Y0084700D01*
X0185300Y0085300D01*
X0188900Y0085300D01*
X0188900Y0086615D01*
X0186615Y0088900D01*
X0185300Y0088900D01*
X0185300Y0085300D01*
X0184700Y0085300D01*
X0184700Y0088900D01*
X0183385Y0088900D01*
X0181100Y0086615D01*
X0181100Y0085300D01*
X0184700Y0085300D01*
X0184700Y0084700D01*
X0185300Y0084700D01*
X0185300Y0081100D01*
X0186615Y0081100D01*
X0188900Y0083385D01*
X0188900Y0083966D02*
X0218671Y0083966D01*
X0218671Y0084565D02*
X0188900Y0084565D01*
X0188900Y0085762D02*
X0218671Y0085762D01*
X0218671Y0085163D02*
X0185300Y0085163D01*
X0185300Y0084565D02*
X0184700Y0084565D01*
X0184700Y0084700D02*
X0184700Y0081100D01*
X0183385Y0081100D01*
X0181100Y0083385D01*
X0181100Y0084700D01*
X0184700Y0084700D01*
X0184700Y0085163D02*
X0169500Y0085163D01*
X0169500Y0084565D02*
X0181100Y0084565D01*
X0181100Y0083966D02*
X0169500Y0083966D01*
X0169500Y0083368D02*
X0181117Y0083368D01*
X0181715Y0082769D02*
X0169133Y0082769D01*
X0169500Y0083136D02*
X0169500Y0086864D01*
X0166864Y0089500D01*
X0163136Y0089500D01*
X0160500Y0086864D01*
X0160500Y0083136D01*
X0161500Y0082136D01*
X0161500Y0064304D01*
X0162033Y0063017D01*
X0164950Y0060100D01*
X0164950Y0058995D01*
X0165719Y0057139D01*
X0166500Y0056358D01*
X0166500Y0031450D01*
X0155250Y0020200D01*
X0152846Y0020200D01*
X0150000Y0017354D01*
X0147154Y0020200D01*
X0142846Y0020200D01*
X0140000Y0017354D01*
X0137154Y0020200D01*
X0132846Y0020200D01*
X0130000Y0017354D01*
X0127154Y0020200D01*
X0122846Y0020200D01*
X0120000Y0017354D01*
X0117154Y0020200D01*
X0112846Y0020200D01*
X0109800Y0017154D01*
X0109800Y0012846D01*
X0112846Y0009800D01*
X0117154Y0009800D01*
X0120000Y0012646D01*
X0122846Y0009800D01*
X0127154Y0009800D01*
X0130000Y0012646D01*
X0132846Y0009800D01*
X0137154Y0009800D01*
X0140000Y0012646D01*
X0142846Y0009800D01*
X0147154Y0009800D01*
X0150000Y0012646D01*
X0152846Y0009800D01*
X0157154Y0009800D01*
X0160200Y0012846D01*
X0160200Y0015250D01*
X0160400Y0015450D01*
X0160400Y0015300D01*
X0164700Y0015300D01*
X0164700Y0019600D01*
X0164550Y0019600D01*
X0172967Y0028017D01*
X0173500Y0029304D01*
X0173500Y0056358D01*
X0174281Y0057139D01*
X0175050Y0058995D01*
X0175050Y0061005D01*
X0174281Y0062861D01*
X0172861Y0064281D01*
X0171005Y0065050D01*
X0169900Y0065050D01*
X0168500Y0066450D01*
X0168500Y0082136D01*
X0169500Y0083136D01*
X0168535Y0082171D02*
X0182314Y0082171D01*
X0182912Y0081572D02*
X0168500Y0081572D01*
X0168500Y0080974D02*
X0218671Y0080974D01*
X0218671Y0081572D02*
X0187088Y0081572D01*
X0187686Y0082171D02*
X0218671Y0082171D01*
X0218671Y0082769D02*
X0188285Y0082769D01*
X0188900Y0086360D02*
X0218863Y0086360D01*
X0218863Y0086959D02*
X0188557Y0086959D01*
X0187958Y0087557D02*
X0218863Y0087557D01*
X0218733Y0088156D02*
X0187360Y0088156D01*
X0186761Y0088754D02*
X0218134Y0088754D01*
X0217536Y0089353D02*
X0167011Y0089353D01*
X0167610Y0088754D02*
X0183239Y0088754D01*
X0182640Y0088156D02*
X0168208Y0088156D01*
X0168807Y0087557D02*
X0182042Y0087557D01*
X0181443Y0086959D02*
X0169405Y0086959D01*
X0169500Y0086360D02*
X0181100Y0086360D01*
X0181100Y0085762D02*
X0169500Y0085762D01*
X0168500Y0080375D02*
X0218859Y0080375D01*
X0219458Y0079777D02*
X0168500Y0079777D01*
X0168500Y0079178D02*
X0226437Y0079178D01*
X0226437Y0078580D02*
X0168500Y0078580D01*
X0168500Y0077981D02*
X0226437Y0077981D01*
X0226437Y0077383D02*
X0168500Y0077383D01*
X0168500Y0076784D02*
X0226437Y0076784D01*
X0226437Y0076186D02*
X0168500Y0076186D01*
X0168500Y0075587D02*
X0226437Y0075587D01*
X0226180Y0074989D02*
X0168500Y0074989D01*
X0168500Y0074390D02*
X0225582Y0074390D01*
X0224983Y0073792D02*
X0168500Y0073792D01*
X0168500Y0073193D02*
X0224385Y0073193D01*
X0223786Y0072595D02*
X0168500Y0072595D01*
X0168500Y0071996D02*
X0223188Y0071996D01*
X0222589Y0071398D02*
X0168500Y0071398D01*
X0168500Y0070799D02*
X0221991Y0070799D01*
X0221392Y0070201D02*
X0168500Y0070201D01*
X0168500Y0069602D02*
X0219685Y0069602D01*
X0219320Y0069003D02*
X0168500Y0069003D01*
X0168500Y0068405D02*
X0219271Y0068405D01*
X0219271Y0067806D02*
X0168500Y0067806D01*
X0168500Y0067208D02*
X0219271Y0067208D01*
X0219271Y0066609D02*
X0168500Y0066609D01*
X0168939Y0066011D02*
X0219271Y0066011D01*
X0219271Y0065412D02*
X0169537Y0065412D01*
X0171574Y0064814D02*
X0219271Y0064814D01*
X0219358Y0064215D02*
X0182078Y0064215D01*
X0181843Y0064450D02*
X0180300Y0064450D01*
X0180300Y0060300D01*
X0184450Y0060300D01*
X0184450Y0061843D01*
X0181843Y0064450D01*
X0182676Y0063617D02*
X0219868Y0063617D01*
X0221546Y0063018D02*
X0183275Y0063018D01*
X0183873Y0062420D02*
X0222800Y0062420D01*
X0222800Y0061821D02*
X0184450Y0061821D01*
X0184450Y0061223D02*
X0222800Y0061223D01*
X0222800Y0060624D02*
X0184450Y0060624D01*
X0184450Y0059700D02*
X0180300Y0059700D01*
X0180300Y0060300D01*
X0179700Y0060300D01*
X0179700Y0064450D01*
X0178157Y0064450D01*
X0175550Y0061843D01*
X0175550Y0060300D01*
X0179700Y0060300D01*
X0179700Y0059700D01*
X0180300Y0059700D01*
X0180300Y0055550D01*
X0181843Y0055550D01*
X0184450Y0058157D01*
X0184450Y0059700D01*
X0184450Y0059427D02*
X0222800Y0059427D01*
X0222800Y0058829D02*
X0184450Y0058829D01*
X0184450Y0058230D02*
X0222800Y0058230D01*
X0222800Y0057632D02*
X0183925Y0057632D01*
X0183327Y0057033D02*
X0222800Y0057033D01*
X0222800Y0056435D02*
X0182728Y0056435D01*
X0182129Y0055836D02*
X0222800Y0055836D01*
X0222800Y0055238D02*
X0173500Y0055238D01*
X0173500Y0055836D02*
X0177871Y0055836D01*
X0178157Y0055550D02*
X0179700Y0055550D01*
X0179700Y0059700D01*
X0175550Y0059700D01*
X0175550Y0058157D01*
X0178157Y0055550D01*
X0177272Y0056435D02*
X0173577Y0056435D01*
X0174175Y0057033D02*
X0176673Y0057033D01*
X0176075Y0057632D02*
X0174485Y0057632D01*
X0174733Y0058230D02*
X0175550Y0058230D01*
X0175550Y0058829D02*
X0174981Y0058829D01*
X0175050Y0059427D02*
X0175550Y0059427D01*
X0175050Y0060026D02*
X0179700Y0060026D01*
X0179700Y0060624D02*
X0180300Y0060624D01*
X0180300Y0060026D02*
X0222800Y0060026D01*
X0222800Y0054639D02*
X0173500Y0054639D01*
X0173500Y0054041D02*
X0222800Y0054041D01*
X0222800Y0053442D02*
X0173500Y0053442D01*
X0173500Y0052844D02*
X0222800Y0052844D01*
X0222800Y0052245D02*
X0173500Y0052245D01*
X0173500Y0051647D02*
X0222800Y0051647D01*
X0222800Y0051048D02*
X0173500Y0051048D01*
X0173500Y0050450D02*
X0222800Y0050450D01*
X0222800Y0049851D02*
X0173500Y0049851D01*
X0173500Y0049253D02*
X0222800Y0049253D01*
X0222800Y0048654D02*
X0173500Y0048654D01*
X0173500Y0048056D02*
X0222800Y0048056D01*
X0222800Y0047457D02*
X0173500Y0047457D01*
X0173500Y0046859D02*
X0222800Y0046859D01*
X0222800Y0046260D02*
X0173500Y0046260D01*
X0173500Y0045662D02*
X0222800Y0045662D01*
X0222800Y0045063D02*
X0173500Y0045063D01*
X0173500Y0044465D02*
X0222800Y0044465D01*
X0222800Y0043866D02*
X0173500Y0043866D01*
X0173500Y0043268D02*
X0222800Y0043268D01*
X0222800Y0042669D02*
X0173500Y0042669D01*
X0173500Y0042070D02*
X0222800Y0042070D01*
X0222800Y0041472D02*
X0173500Y0041472D01*
X0173500Y0040873D02*
X0222800Y0040873D01*
X0222800Y0040275D02*
X0173500Y0040275D01*
X0173500Y0039676D02*
X0222800Y0039676D01*
X0222800Y0039078D02*
X0173500Y0039078D01*
X0173500Y0038479D02*
X0222800Y0038479D01*
X0222800Y0037881D02*
X0173500Y0037881D01*
X0173500Y0037282D02*
X0222800Y0037282D01*
X0222800Y0036684D02*
X0173500Y0036684D01*
X0173500Y0036085D02*
X0222800Y0036085D01*
X0222800Y0035487D02*
X0173500Y0035487D01*
X0173500Y0034888D02*
X0222800Y0034888D01*
X0222800Y0034290D02*
X0173500Y0034290D01*
X0173500Y0033691D02*
X0223197Y0033691D01*
X0223796Y0033093D02*
X0173500Y0033093D01*
X0173500Y0032494D02*
X0224394Y0032494D01*
X0224993Y0031896D02*
X0173500Y0031896D01*
X0173500Y0031297D02*
X0225591Y0031297D01*
X0226190Y0030699D02*
X0173500Y0030699D01*
X0173500Y0030100D02*
X0226788Y0030100D01*
X0227387Y0029502D02*
X0173500Y0029502D01*
X0173334Y0028903D02*
X0227985Y0028903D01*
X0228584Y0028305D02*
X0173086Y0028305D01*
X0172656Y0027706D02*
X0229183Y0027706D01*
X0229781Y0027108D02*
X0172057Y0027108D01*
X0171459Y0026509D02*
X0230380Y0026509D01*
X0230978Y0025911D02*
X0170860Y0025911D01*
X0170262Y0025312D02*
X0231577Y0025312D01*
X0232175Y0024714D02*
X0169663Y0024714D01*
X0169065Y0024115D02*
X0232774Y0024115D01*
X0233372Y0023517D02*
X0168466Y0023517D01*
X0167868Y0022918D02*
X0233971Y0022918D01*
X0234569Y0022320D02*
X0167269Y0022320D01*
X0166671Y0021721D02*
X0235168Y0021721D01*
X0235766Y0021123D02*
X0166072Y0021123D01*
X0165474Y0020524D02*
X0236365Y0020524D01*
X0232572Y0019926D02*
X0227428Y0019926D01*
X0228027Y0019327D02*
X0231973Y0019327D01*
X0231375Y0018729D02*
X0228625Y0018729D01*
X0229224Y0018130D02*
X0230776Y0018130D01*
X0230178Y0017532D02*
X0229822Y0017532D01*
X0229499Y0012145D02*
X0230501Y0012145D01*
X0231100Y0011546D02*
X0228900Y0011546D01*
X0228302Y0010948D02*
X0231698Y0010948D01*
X0232297Y0010349D02*
X0227703Y0010349D01*
X0222297Y0010349D02*
X0217703Y0010349D01*
X0218302Y0010948D02*
X0221698Y0010948D01*
X0221100Y0011546D02*
X0218900Y0011546D01*
X0219499Y0012145D02*
X0220501Y0012145D01*
X0220178Y0017532D02*
X0219822Y0017532D01*
X0219224Y0018130D02*
X0220776Y0018130D01*
X0221375Y0018729D02*
X0218625Y0018729D01*
X0218027Y0019327D02*
X0221973Y0019327D01*
X0222572Y0019926D02*
X0217428Y0019926D01*
X0212572Y0019926D02*
X0207428Y0019926D01*
X0208027Y0019327D02*
X0211973Y0019327D01*
X0211375Y0018729D02*
X0208625Y0018729D01*
X0209224Y0018130D02*
X0210776Y0018130D01*
X0210178Y0017532D02*
X0209822Y0017532D01*
X0202572Y0019926D02*
X0187428Y0019926D01*
X0187154Y0020200D02*
X0182846Y0020200D01*
X0179800Y0017154D01*
X0179800Y0012846D01*
X0182846Y0009800D01*
X0187154Y0009800D01*
X0190200Y0012846D01*
X0190200Y0017154D01*
X0187154Y0020200D01*
X0188027Y0019327D02*
X0201973Y0019327D01*
X0201375Y0018729D02*
X0188625Y0018729D01*
X0189224Y0018130D02*
X0200776Y0018130D01*
X0200178Y0017532D02*
X0189822Y0017532D01*
X0190200Y0016933D02*
X0199800Y0016933D01*
X0199800Y0016334D02*
X0190200Y0016334D01*
X0190200Y0015736D02*
X0199800Y0015736D01*
X0199800Y0015137D02*
X0190200Y0015137D01*
X0190200Y0014539D02*
X0199800Y0014539D01*
X0199800Y0013940D02*
X0190200Y0013940D01*
X0190200Y0013342D02*
X0199800Y0013342D01*
X0199903Y0012743D02*
X0190097Y0012743D01*
X0189499Y0012145D02*
X0200501Y0012145D01*
X0201100Y0011546D02*
X0188900Y0011546D01*
X0188302Y0010948D02*
X0201698Y0010948D01*
X0202297Y0010349D02*
X0187703Y0010349D01*
X0182297Y0010349D02*
X0157703Y0010349D01*
X0158302Y0010948D02*
X0162547Y0010948D01*
X0163095Y0010400D02*
X0160400Y0013095D01*
X0160400Y0014700D01*
X0164700Y0014700D01*
X0165300Y0014700D01*
X0165300Y0015300D01*
X0169600Y0015300D01*
X0169600Y0016905D01*
X0166905Y0019600D01*
X0165300Y0019600D01*
X0165300Y0015300D01*
X0164700Y0015300D01*
X0164700Y0014700D01*
X0164700Y0010400D01*
X0163095Y0010400D01*
X0161948Y0011546D02*
X0158900Y0011546D01*
X0159499Y0012145D02*
X0161350Y0012145D01*
X0160751Y0012743D02*
X0160097Y0012743D01*
X0160200Y0013342D02*
X0160400Y0013342D01*
X0160400Y0013940D02*
X0160200Y0013940D01*
X0160200Y0014539D02*
X0160400Y0014539D01*
X0160200Y0015137D02*
X0164700Y0015137D01*
X0164700Y0014539D02*
X0165300Y0014539D01*
X0165300Y0014700D02*
X0165300Y0010400D01*
X0166905Y0010400D01*
X0169600Y0013095D01*
X0169600Y0014700D01*
X0165300Y0014700D01*
X0165300Y0015137D02*
X0174700Y0015137D01*
X0174700Y0015300D02*
X0174700Y0014700D01*
X0175300Y0014700D01*
X0175300Y0015300D01*
X0179600Y0015300D01*
X0179600Y0016905D01*
X0176905Y0019600D01*
X0175300Y0019600D01*
X0175300Y0015300D01*
X0174700Y0015300D01*
X0174700Y0019600D01*
X0173095Y0019600D01*
X0170400Y0016905D01*
X0170400Y0015300D01*
X0174700Y0015300D01*
X0174700Y0015736D02*
X0175300Y0015736D01*
X0175300Y0016334D02*
X0174700Y0016334D01*
X0174700Y0016933D02*
X0175300Y0016933D01*
X0175300Y0017532D02*
X0174700Y0017532D01*
X0174700Y0018130D02*
X0175300Y0018130D01*
X0175300Y0018729D02*
X0174700Y0018729D01*
X0174700Y0019327D02*
X0175300Y0019327D01*
X0177178Y0019327D02*
X0181973Y0019327D01*
X0181375Y0018729D02*
X0177777Y0018729D01*
X0178375Y0018130D02*
X0180776Y0018130D01*
X0180178Y0017532D02*
X0178974Y0017532D01*
X0179572Y0016933D02*
X0179800Y0016933D01*
X0179800Y0016334D02*
X0179600Y0016334D01*
X0179600Y0015736D02*
X0179800Y0015736D01*
X0179800Y0015137D02*
X0175300Y0015137D01*
X0175300Y0014700D02*
X0179600Y0014700D01*
X0179600Y0013095D01*
X0176905Y0010400D01*
X0175300Y0010400D01*
X0175300Y0014700D01*
X0175300Y0014539D02*
X0174700Y0014539D01*
X0174700Y0014700D02*
X0174700Y0010400D01*
X0173095Y0010400D01*
X0170400Y0013095D01*
X0170400Y0014700D01*
X0174700Y0014700D01*
X0174700Y0013940D02*
X0175300Y0013940D01*
X0175300Y0013342D02*
X0174700Y0013342D01*
X0174700Y0012743D02*
X0175300Y0012743D01*
X0175300Y0012145D02*
X0174700Y0012145D01*
X0174700Y0011546D02*
X0175300Y0011546D01*
X0175300Y0010948D02*
X0174700Y0010948D01*
X0172547Y0010948D02*
X0167453Y0010948D01*
X0168052Y0011546D02*
X0171948Y0011546D01*
X0171350Y0012145D02*
X0168650Y0012145D01*
X0169249Y0012743D02*
X0170751Y0012743D01*
X0170400Y0013342D02*
X0169600Y0013342D01*
X0169600Y0013940D02*
X0170400Y0013940D01*
X0170400Y0014539D02*
X0169600Y0014539D01*
X0169600Y0015736D02*
X0170400Y0015736D01*
X0170400Y0016334D02*
X0169600Y0016334D01*
X0169572Y0016933D02*
X0170428Y0016933D01*
X0171026Y0017532D02*
X0168974Y0017532D01*
X0168375Y0018130D02*
X0171625Y0018130D01*
X0172223Y0018729D02*
X0167777Y0018729D01*
X0167178Y0019327D02*
X0172822Y0019327D01*
X0179600Y0014539D02*
X0179800Y0014539D01*
X0179800Y0013940D02*
X0179600Y0013940D01*
X0179600Y0013342D02*
X0179800Y0013342D01*
X0179903Y0012743D02*
X0179249Y0012743D01*
X0178650Y0012145D02*
X0180501Y0012145D01*
X0181100Y0011546D02*
X0178052Y0011546D01*
X0177453Y0010948D02*
X0181698Y0010948D01*
X0182572Y0019926D02*
X0164875Y0019926D01*
X0164700Y0019327D02*
X0165300Y0019327D01*
X0165300Y0018729D02*
X0164700Y0018729D01*
X0164700Y0018130D02*
X0165300Y0018130D01*
X0165300Y0017532D02*
X0164700Y0017532D01*
X0164700Y0016933D02*
X0165300Y0016933D01*
X0165300Y0016334D02*
X0164700Y0016334D01*
X0164700Y0015736D02*
X0165300Y0015736D01*
X0165300Y0013940D02*
X0164700Y0013940D01*
X0164700Y0013342D02*
X0165300Y0013342D01*
X0165300Y0012743D02*
X0164700Y0012743D01*
X0164700Y0012145D02*
X0165300Y0012145D01*
X0165300Y0011546D02*
X0164700Y0011546D01*
X0164700Y0010948D02*
X0165300Y0010948D01*
X0152297Y0010349D02*
X0147703Y0010349D01*
X0148302Y0010948D02*
X0151698Y0010948D01*
X0151100Y0011546D02*
X0148900Y0011546D01*
X0149499Y0012145D02*
X0150501Y0012145D01*
X0150178Y0017532D02*
X0149822Y0017532D01*
X0149224Y0018130D02*
X0150776Y0018130D01*
X0151375Y0018729D02*
X0148625Y0018729D01*
X0148027Y0019327D02*
X0151973Y0019327D01*
X0152572Y0019926D02*
X0147428Y0019926D01*
X0142572Y0019926D02*
X0137428Y0019926D01*
X0138027Y0019327D02*
X0141973Y0019327D01*
X0141375Y0018729D02*
X0138625Y0018729D01*
X0139224Y0018130D02*
X0140776Y0018130D01*
X0140178Y0017532D02*
X0139822Y0017532D01*
X0139499Y0012145D02*
X0140501Y0012145D01*
X0141100Y0011546D02*
X0138900Y0011546D01*
X0138302Y0010948D02*
X0141698Y0010948D01*
X0142297Y0010349D02*
X0137703Y0010349D01*
X0132297Y0010349D02*
X0127703Y0010349D01*
X0128302Y0010948D02*
X0131698Y0010948D01*
X0131100Y0011546D02*
X0128900Y0011546D01*
X0129499Y0012145D02*
X0130501Y0012145D01*
X0130178Y0017532D02*
X0129822Y0017532D01*
X0129224Y0018130D02*
X0130776Y0018130D01*
X0131375Y0018729D02*
X0128625Y0018729D01*
X0128027Y0019327D02*
X0131973Y0019327D01*
X0132572Y0019926D02*
X0127428Y0019926D01*
X0122572Y0019926D02*
X0117428Y0019926D01*
X0118027Y0019327D02*
X0121973Y0019327D01*
X0121375Y0018729D02*
X0118625Y0018729D01*
X0119224Y0018130D02*
X0120776Y0018130D01*
X0120178Y0017532D02*
X0119822Y0017532D01*
X0119499Y0012145D02*
X0120501Y0012145D01*
X0121100Y0011546D02*
X0118900Y0011546D01*
X0118302Y0010948D02*
X0121698Y0010948D01*
X0122297Y0010349D02*
X0117703Y0010349D01*
X0112297Y0010349D02*
X0006900Y0010349D01*
X0006900Y0009751D02*
X0263100Y0009751D01*
X0263100Y0010349D02*
X0257703Y0010349D01*
X0258302Y0010948D02*
X0263100Y0010948D01*
X0263100Y0011546D02*
X0258900Y0011546D01*
X0259499Y0012145D02*
X0263100Y0012145D01*
X0263100Y0012743D02*
X0260097Y0012743D01*
X0260200Y0013342D02*
X0263100Y0013342D01*
X0263100Y0013940D02*
X0260200Y0013940D01*
X0260200Y0014539D02*
X0263100Y0014539D01*
X0263100Y0015137D02*
X0260200Y0015137D01*
X0260200Y0015736D02*
X0263100Y0015736D01*
X0263100Y0015787D02*
X0263100Y0006900D01*
X0006900Y0006900D01*
X0006900Y0213100D01*
X0258213Y0213100D01*
X0263100Y0208213D01*
X0263100Y0163213D01*
X0264213Y0162100D01*
X0273100Y0153213D01*
X0273100Y0025787D01*
X0263100Y0015787D01*
X0263648Y0016334D02*
X0260200Y0016334D01*
X0260200Y0016933D02*
X0264246Y0016933D01*
X0264845Y0017532D02*
X0259822Y0017532D01*
X0259224Y0018130D02*
X0265443Y0018130D01*
X0266042Y0018729D02*
X0258625Y0018729D01*
X0258027Y0019327D02*
X0266640Y0019327D01*
X0267239Y0019926D02*
X0257428Y0019926D01*
X0252587Y0020524D02*
X0267837Y0020524D01*
X0268436Y0021123D02*
X0251989Y0021123D01*
X0251390Y0021721D02*
X0269034Y0021721D01*
X0269633Y0022320D02*
X0250792Y0022320D01*
X0250193Y0022918D02*
X0270231Y0022918D01*
X0270830Y0023517D02*
X0249595Y0023517D01*
X0248996Y0024115D02*
X0271428Y0024115D01*
X0272027Y0024714D02*
X0248398Y0024714D01*
X0247799Y0025312D02*
X0272625Y0025312D01*
X0273100Y0025911D02*
X0247201Y0025911D01*
X0246602Y0026509D02*
X0273100Y0026509D01*
X0273100Y0027108D02*
X0246004Y0027108D01*
X0245405Y0027706D02*
X0273100Y0027706D01*
X0273100Y0028305D02*
X0244807Y0028305D01*
X0244208Y0028903D02*
X0273100Y0028903D01*
X0273100Y0029502D02*
X0243610Y0029502D01*
X0243011Y0030100D02*
X0273100Y0030100D01*
X0273100Y0030699D02*
X0242412Y0030699D01*
X0241814Y0031297D02*
X0273100Y0031297D01*
X0273100Y0031896D02*
X0241215Y0031896D01*
X0240617Y0032494D02*
X0273100Y0032494D01*
X0273100Y0033093D02*
X0240018Y0033093D01*
X0239420Y0033691D02*
X0273100Y0033691D01*
X0273100Y0034290D02*
X0238821Y0034290D01*
X0238223Y0034888D02*
X0273100Y0034888D01*
X0273100Y0035487D02*
X0237624Y0035487D01*
X0237026Y0036085D02*
X0273100Y0036085D01*
X0273100Y0036684D02*
X0236427Y0036684D01*
X0235829Y0037282D02*
X0273100Y0037282D01*
X0273100Y0037881D02*
X0235230Y0037881D01*
X0234632Y0038479D02*
X0273100Y0038479D01*
X0273100Y0039078D02*
X0234033Y0039078D01*
X0233435Y0039676D02*
X0273100Y0039676D01*
X0273100Y0040275D02*
X0232836Y0040275D01*
X0232238Y0040873D02*
X0273100Y0040873D01*
X0273100Y0041472D02*
X0231639Y0041472D01*
X0231041Y0042070D02*
X0273100Y0042070D01*
X0273100Y0042669D02*
X0230442Y0042669D01*
X0229844Y0043268D02*
X0273100Y0043268D01*
X0273100Y0043866D02*
X0229245Y0043866D01*
X0229168Y0044465D02*
X0273100Y0044465D01*
X0273100Y0045063D02*
X0229168Y0045063D01*
X0229168Y0045662D02*
X0273100Y0045662D01*
X0273100Y0046260D02*
X0229168Y0046260D01*
X0229168Y0046859D02*
X0273100Y0046859D01*
X0273100Y0047457D02*
X0229168Y0047457D01*
X0229168Y0048056D02*
X0273100Y0048056D01*
X0273100Y0048654D02*
X0229168Y0048654D01*
X0229168Y0049253D02*
X0273100Y0049253D01*
X0273100Y0049851D02*
X0229168Y0049851D01*
X0229168Y0050450D02*
X0273100Y0050450D01*
X0273100Y0051048D02*
X0229168Y0051048D01*
X0229168Y0051647D02*
X0273100Y0051647D01*
X0273100Y0052245D02*
X0229168Y0052245D01*
X0229168Y0052844D02*
X0273100Y0052844D01*
X0273100Y0053442D02*
X0229168Y0053442D01*
X0229168Y0054041D02*
X0273100Y0054041D01*
X0273100Y0054639D02*
X0229168Y0054639D01*
X0229168Y0055238D02*
X0273100Y0055238D01*
X0273100Y0055836D02*
X0229168Y0055836D01*
X0229168Y0056435D02*
X0273100Y0056435D01*
X0273100Y0057033D02*
X0229168Y0057033D01*
X0229168Y0057632D02*
X0273100Y0057632D01*
X0273100Y0058230D02*
X0229168Y0058230D01*
X0229168Y0058829D02*
X0273100Y0058829D01*
X0273100Y0059427D02*
X0229168Y0059427D01*
X0229168Y0060026D02*
X0273100Y0060026D01*
X0273100Y0060624D02*
X0229168Y0060624D01*
X0229168Y0061223D02*
X0273100Y0061223D01*
X0273100Y0061821D02*
X0229168Y0061821D01*
X0229168Y0062420D02*
X0273100Y0062420D01*
X0273100Y0063018D02*
X0230422Y0063018D01*
X0231021Y0063617D02*
X0273100Y0063617D01*
X0273100Y0064215D02*
X0231329Y0064215D01*
X0231329Y0064814D02*
X0273100Y0064814D01*
X0273100Y0065412D02*
X0231329Y0065412D01*
X0231329Y0066011D02*
X0273100Y0066011D01*
X0273100Y0066609D02*
X0231329Y0066609D01*
X0231329Y0067208D02*
X0273100Y0067208D01*
X0273100Y0067806D02*
X0231329Y0067806D01*
X0231329Y0068405D02*
X0273100Y0068405D01*
X0273100Y0069003D02*
X0231329Y0069003D01*
X0231163Y0069602D02*
X0273100Y0069602D01*
X0273100Y0070201D02*
X0230565Y0070201D01*
X0228812Y0071398D02*
X0273100Y0071398D01*
X0273100Y0071996D02*
X0229410Y0071996D01*
X0230433Y0072595D02*
X0273100Y0072595D01*
X0273100Y0073193D02*
X0231032Y0073193D01*
X0231294Y0073792D02*
X0273100Y0073792D01*
X0273100Y0074390D02*
X0231437Y0074390D01*
X0231437Y0074989D02*
X0273100Y0074989D01*
X0273100Y0075587D02*
X0231437Y0075587D01*
X0231437Y0076186D02*
X0273100Y0076186D01*
X0273100Y0076784D02*
X0231437Y0076784D01*
X0231437Y0077383D02*
X0273100Y0077383D01*
X0273100Y0077981D02*
X0231437Y0077981D01*
X0231437Y0078580D02*
X0273100Y0078580D01*
X0273100Y0079178D02*
X0231437Y0079178D01*
X0231437Y0079777D02*
X0273100Y0079777D01*
X0273100Y0080375D02*
X0231437Y0080375D01*
X0231437Y0080974D02*
X0273100Y0080974D01*
X0273100Y0081572D02*
X0231437Y0081572D01*
X0231437Y0082171D02*
X0273100Y0082171D01*
X0273100Y0082769D02*
X0231437Y0082769D01*
X0231437Y0083368D02*
X0273100Y0083368D01*
X0273100Y0083966D02*
X0231437Y0083966D01*
X0231437Y0084565D02*
X0273100Y0084565D01*
X0273100Y0085163D02*
X0231437Y0085163D01*
X0231437Y0085762D02*
X0273100Y0085762D01*
X0273100Y0086360D02*
X0231437Y0086360D01*
X0231437Y0086959D02*
X0273100Y0086959D01*
X0273100Y0087557D02*
X0231437Y0087557D01*
X0231691Y0088156D02*
X0273100Y0088156D01*
X0273100Y0088754D02*
X0232190Y0088754D01*
X0232438Y0089353D02*
X0273100Y0089353D01*
X0273100Y0089951D02*
X0232500Y0089951D01*
X0232500Y0090550D02*
X0273100Y0090550D01*
X0273100Y0091148D02*
X0232500Y0091148D01*
X0232500Y0091747D02*
X0273100Y0091747D01*
X0273100Y0092345D02*
X0232500Y0092345D01*
X0232500Y0092944D02*
X0273100Y0092944D01*
X0273100Y0093542D02*
X0232500Y0093542D01*
X0232500Y0094141D02*
X0273100Y0094141D01*
X0273100Y0094739D02*
X0232500Y0094739D01*
X0232500Y0095338D02*
X0273100Y0095338D01*
X0273100Y0095937D02*
X0232500Y0095937D01*
X0232500Y0096535D02*
X0273100Y0096535D01*
X0273100Y0097134D02*
X0232500Y0097134D01*
X0232938Y0097732D02*
X0273100Y0097732D01*
X0273100Y0098331D02*
X0233293Y0098331D01*
X0233541Y0098929D02*
X0273100Y0098929D01*
X0273100Y0099528D02*
X0233681Y0099528D01*
X0233681Y0100126D02*
X0273100Y0100126D01*
X0273100Y0100725D02*
X0233681Y0100725D01*
X0233436Y0101323D02*
X0273100Y0101323D01*
X0273100Y0101922D02*
X0233188Y0101922D01*
X0232686Y0102520D02*
X0273100Y0102520D01*
X0273100Y0103119D02*
X0232087Y0103119D01*
X0229468Y0103717D02*
X0273100Y0103717D01*
X0273100Y0104316D02*
X0229468Y0104316D01*
X0229468Y0104914D02*
X0273100Y0104914D01*
X0273100Y0105513D02*
X0229468Y0105513D01*
X0229468Y0106111D02*
X0273100Y0106111D01*
X0273100Y0106710D02*
X0229468Y0106710D01*
X0229468Y0107308D02*
X0273100Y0107308D01*
X0273100Y0107907D02*
X0229468Y0107907D01*
X0229468Y0108505D02*
X0273100Y0108505D01*
X0273100Y0109104D02*
X0229468Y0109104D01*
X0229468Y0109702D02*
X0273100Y0109702D01*
X0273100Y0110301D02*
X0229468Y0110301D01*
X0229468Y0110899D02*
X0273100Y0110899D01*
X0273100Y0111498D02*
X0229468Y0111498D01*
X0229468Y0112096D02*
X0273100Y0112096D01*
X0273100Y0112695D02*
X0229468Y0112695D01*
X0229468Y0113293D02*
X0273100Y0113293D01*
X0273100Y0113892D02*
X0229468Y0113892D01*
X0229468Y0114490D02*
X0273100Y0114490D01*
X0273100Y0115089D02*
X0229468Y0115089D01*
X0229468Y0115687D02*
X0273100Y0115687D01*
X0273100Y0116286D02*
X0229468Y0116286D01*
X0229468Y0116884D02*
X0273100Y0116884D01*
X0273100Y0117483D02*
X0229468Y0117483D01*
X0229468Y0118081D02*
X0273100Y0118081D01*
X0273100Y0118680D02*
X0229468Y0118680D01*
X0229468Y0119278D02*
X0273100Y0119278D01*
X0273100Y0119877D02*
X0229468Y0119877D01*
X0229468Y0120475D02*
X0273100Y0120475D01*
X0273100Y0121074D02*
X0229468Y0121074D01*
X0229468Y0121672D02*
X0273100Y0121672D01*
X0273100Y0122271D02*
X0229468Y0122271D01*
X0229468Y0122870D02*
X0273100Y0122870D01*
X0273100Y0123468D02*
X0229468Y0123468D01*
X0229468Y0124067D02*
X0273100Y0124067D01*
X0273100Y0124665D02*
X0229468Y0124665D01*
X0229468Y0125264D02*
X0273100Y0125264D01*
X0273100Y0125862D02*
X0229468Y0125862D01*
X0229468Y0126461D02*
X0273100Y0126461D01*
X0273100Y0127059D02*
X0229468Y0127059D01*
X0229468Y0127658D02*
X0273100Y0127658D01*
X0273100Y0128256D02*
X0229468Y0128256D01*
X0229468Y0128855D02*
X0273100Y0128855D01*
X0273100Y0129453D02*
X0231964Y0129453D01*
X0233291Y0130052D02*
X0273100Y0130052D01*
X0273100Y0130650D02*
X0233890Y0130650D01*
X0234488Y0131249D02*
X0273100Y0131249D01*
X0273100Y0131847D02*
X0234948Y0131847D01*
X0235196Y0132446D02*
X0273100Y0132446D01*
X0273100Y0133044D02*
X0235444Y0133044D01*
X0235692Y0133643D02*
X0273100Y0133643D01*
X0273100Y0134241D02*
X0235739Y0134241D01*
X0235739Y0134840D02*
X0273100Y0134840D01*
X0273100Y0135438D02*
X0235739Y0135438D01*
X0235739Y0136037D02*
X0273100Y0136037D01*
X0273100Y0136635D02*
X0235508Y0136635D01*
X0235260Y0137234D02*
X0273100Y0137234D01*
X0273100Y0137832D02*
X0235012Y0137832D01*
X0234642Y0138431D02*
X0273100Y0138431D01*
X0273100Y0139029D02*
X0234044Y0139029D01*
X0233445Y0139628D02*
X0273100Y0139628D01*
X0273100Y0140226D02*
X0232336Y0140226D01*
X0227467Y0140226D02*
X0218747Y0140226D01*
X0219345Y0140825D02*
X0273100Y0140825D01*
X0273100Y0141423D02*
X0219944Y0141423D01*
X0220542Y0142022D02*
X0273100Y0142022D01*
X0273100Y0142620D02*
X0221141Y0142620D01*
X0221739Y0143219D02*
X0273100Y0143219D01*
X0273100Y0143817D02*
X0222338Y0143817D01*
X0222936Y0144416D02*
X0273100Y0144416D01*
X0273100Y0145014D02*
X0223535Y0145014D01*
X0224133Y0145613D02*
X0273100Y0145613D01*
X0273100Y0146211D02*
X0224732Y0146211D01*
X0225330Y0146810D02*
X0273100Y0146810D01*
X0273100Y0147408D02*
X0225929Y0147408D01*
X0226527Y0148007D02*
X0273100Y0148007D01*
X0273100Y0148605D02*
X0227126Y0148605D01*
X0227724Y0149204D02*
X0228441Y0149204D01*
X0231362Y0149204D02*
X0273100Y0149204D01*
X0273100Y0149803D02*
X0232807Y0149803D01*
X0233640Y0150401D02*
X0273100Y0150401D01*
X0273100Y0151000D02*
X0234239Y0151000D01*
X0234837Y0151598D02*
X0273100Y0151598D01*
X0273100Y0152197D02*
X0235093Y0152197D01*
X0235341Y0152795D02*
X0273100Y0152795D01*
X0272919Y0153394D02*
X0235589Y0153394D01*
X0235739Y0153992D02*
X0272321Y0153992D01*
X0271722Y0154591D02*
X0235739Y0154591D01*
X0235739Y0155189D02*
X0271124Y0155189D01*
X0270525Y0155788D02*
X0235739Y0155788D01*
X0235611Y0156386D02*
X0269927Y0156386D01*
X0269328Y0156985D02*
X0235363Y0156985D01*
X0235115Y0157583D02*
X0268730Y0157583D01*
X0268131Y0158182D02*
X0234867Y0158182D01*
X0234293Y0158780D02*
X0267533Y0158780D01*
X0266934Y0159379D02*
X0233695Y0159379D01*
X0232938Y0159977D02*
X0266336Y0159977D01*
X0265737Y0160576D02*
X0231493Y0160576D01*
X0228310Y0160576D02*
X0130304Y0160576D01*
X0129758Y0161121D02*
X0132121Y0158758D01*
X0133400Y0155671D01*
X0133400Y0152329D01*
X0132121Y0149242D01*
X0129758Y0146879D01*
X0126671Y0145600D01*
X0123329Y0145600D01*
X0120242Y0146879D01*
X0117879Y0149242D01*
X0116600Y0152329D01*
X0116600Y0155671D01*
X0117879Y0158758D01*
X0120242Y0161121D01*
X0123329Y0162400D01*
X0126671Y0162400D01*
X0129758Y0161121D01*
X0129630Y0161174D02*
X0265139Y0161174D01*
X0264540Y0161773D02*
X0128185Y0161773D01*
X0126740Y0162371D02*
X0263942Y0162371D01*
X0263343Y0162970D02*
X0006900Y0162970D01*
X0006900Y0163568D02*
X0263100Y0163568D01*
X0263100Y0164167D02*
X0006900Y0164167D01*
X0006900Y0164765D02*
X0263100Y0164765D01*
X0263100Y0165364D02*
X0006900Y0165364D01*
X0006900Y0165962D02*
X0263100Y0165962D01*
X0263100Y0166561D02*
X0006900Y0166561D01*
X0006900Y0167159D02*
X0263100Y0167159D01*
X0263100Y0167758D02*
X0006900Y0167758D01*
X0006900Y0168356D02*
X0263100Y0168356D01*
X0263100Y0168955D02*
X0006900Y0168955D01*
X0006900Y0169553D02*
X0263100Y0169553D01*
X0263100Y0170152D02*
X0006900Y0170152D01*
X0006900Y0170750D02*
X0263100Y0170750D01*
X0263100Y0171349D02*
X0006900Y0171349D01*
X0006900Y0171947D02*
X0263100Y0171947D01*
X0263100Y0172546D02*
X0006900Y0172546D01*
X0006900Y0173144D02*
X0263100Y0173144D01*
X0263100Y0173743D02*
X0006900Y0173743D01*
X0006900Y0174341D02*
X0263100Y0174341D01*
X0263100Y0174940D02*
X0006900Y0174940D01*
X0006900Y0175539D02*
X0263100Y0175539D01*
X0263100Y0176137D02*
X0006900Y0176137D01*
X0006900Y0176736D02*
X0263100Y0176736D01*
X0263100Y0177334D02*
X0006900Y0177334D01*
X0006900Y0177933D02*
X0263100Y0177933D01*
X0263100Y0178531D02*
X0006900Y0178531D01*
X0006900Y0179130D02*
X0263100Y0179130D01*
X0263100Y0179728D02*
X0006900Y0179728D01*
X0006900Y0180327D02*
X0263100Y0180327D01*
X0263100Y0180925D02*
X0006900Y0180925D01*
X0006900Y0181524D02*
X0263100Y0181524D01*
X0263100Y0182122D02*
X0006900Y0182122D01*
X0006900Y0182721D02*
X0263100Y0182721D01*
X0263100Y0183319D02*
X0006900Y0183319D01*
X0006900Y0183918D02*
X0263100Y0183918D01*
X0263100Y0184516D02*
X0006900Y0184516D01*
X0006900Y0185115D02*
X0263100Y0185115D01*
X0263100Y0185713D02*
X0006900Y0185713D01*
X0006900Y0186312D02*
X0263100Y0186312D01*
X0263100Y0186910D02*
X0006900Y0186910D01*
X0006900Y0187509D02*
X0263100Y0187509D01*
X0263100Y0188107D02*
X0006900Y0188107D01*
X0006900Y0188706D02*
X0263100Y0188706D01*
X0263100Y0189304D02*
X0006900Y0189304D01*
X0006900Y0189903D02*
X0263100Y0189903D01*
X0263100Y0190501D02*
X0006900Y0190501D01*
X0006900Y0191100D02*
X0263100Y0191100D01*
X0263100Y0191698D02*
X0006900Y0191698D01*
X0006900Y0192297D02*
X0263100Y0192297D01*
X0263100Y0192895D02*
X0006900Y0192895D01*
X0006900Y0193494D02*
X0263100Y0193494D01*
X0263100Y0194092D02*
X0006900Y0194092D01*
X0006900Y0194691D02*
X0263100Y0194691D01*
X0263100Y0195289D02*
X0006900Y0195289D01*
X0006900Y0195888D02*
X0263100Y0195888D01*
X0263100Y0196486D02*
X0006900Y0196486D01*
X0006900Y0197085D02*
X0263100Y0197085D01*
X0263100Y0197683D02*
X0006900Y0197683D01*
X0006900Y0198282D02*
X0263100Y0198282D01*
X0263100Y0198880D02*
X0006900Y0198880D01*
X0006900Y0199479D02*
X0263100Y0199479D01*
X0263100Y0200077D02*
X0257431Y0200077D01*
X0257154Y0199800D02*
X0260200Y0202846D01*
X0260200Y0207154D01*
X0257154Y0210200D01*
X0252846Y0210200D01*
X0250000Y0207354D01*
X0247154Y0210200D01*
X0242846Y0210200D01*
X0240000Y0207354D01*
X0237154Y0210200D01*
X0232846Y0210200D01*
X0230000Y0207354D01*
X0227154Y0210200D01*
X0222846Y0210200D01*
X0220000Y0207354D01*
X0217154Y0210200D01*
X0212846Y0210200D01*
X0210000Y0207354D01*
X0207154Y0210200D01*
X0202846Y0210200D01*
X0200000Y0207354D01*
X0197154Y0210200D01*
X0192846Y0210200D01*
X0190000Y0207354D01*
X0187154Y0210200D01*
X0182846Y0210200D01*
X0179800Y0207154D01*
X0179800Y0202846D01*
X0182846Y0199800D01*
X0187154Y0199800D01*
X0190000Y0202646D01*
X0192846Y0199800D01*
X0197154Y0199800D01*
X0200000Y0202646D01*
X0202846Y0199800D01*
X0207154Y0199800D01*
X0210000Y0202646D01*
X0212846Y0199800D01*
X0217154Y0199800D01*
X0220000Y0202646D01*
X0222846Y0199800D01*
X0227154Y0199800D01*
X0230000Y0202646D01*
X0232846Y0199800D01*
X0237154Y0199800D01*
X0240000Y0202646D01*
X0242846Y0199800D01*
X0247154Y0199800D01*
X0250000Y0202646D01*
X0252846Y0199800D01*
X0257154Y0199800D01*
X0258030Y0200676D02*
X0263100Y0200676D01*
X0263100Y0201274D02*
X0258628Y0201274D01*
X0259227Y0201873D02*
X0263100Y0201873D01*
X0263100Y0202472D02*
X0259825Y0202472D01*
X0260200Y0203070D02*
X0263100Y0203070D01*
X0263100Y0203669D02*
X0260200Y0203669D01*
X0260200Y0204267D02*
X0263100Y0204267D01*
X0263100Y0204866D02*
X0260200Y0204866D01*
X0260200Y0205464D02*
X0263100Y0205464D01*
X0263100Y0206063D02*
X0260200Y0206063D01*
X0260200Y0206661D02*
X0263100Y0206661D01*
X0263100Y0207260D02*
X0260094Y0207260D01*
X0259496Y0207858D02*
X0263100Y0207858D01*
X0262856Y0208457D02*
X0258897Y0208457D01*
X0258299Y0209055D02*
X0262258Y0209055D01*
X0261659Y0209654D02*
X0257700Y0209654D01*
X0259864Y0211449D02*
X0006900Y0211449D01*
X0006900Y0210851D02*
X0260462Y0210851D01*
X0261061Y0210252D02*
X0006900Y0210252D01*
X0006900Y0209654D02*
X0076300Y0209654D01*
X0076846Y0210200D02*
X0073800Y0207154D01*
X0073800Y0202846D01*
X0076846Y0199800D01*
X0081154Y0199800D01*
X0084000Y0202646D01*
X0086846Y0199800D01*
X0091154Y0199800D01*
X0094000Y0202646D01*
X0096846Y0199800D01*
X0101154Y0199800D01*
X0104200Y0202846D01*
X0104200Y0207154D01*
X0101154Y0210200D01*
X0096846Y0210200D01*
X0094000Y0207354D01*
X0091154Y0210200D01*
X0086846Y0210200D01*
X0084000Y0207354D01*
X0081154Y0210200D01*
X0076846Y0210200D01*
X0075701Y0209055D02*
X0006900Y0209055D01*
X0006900Y0208457D02*
X0075103Y0208457D01*
X0074504Y0207858D02*
X0006900Y0207858D01*
X0006900Y0207260D02*
X0073906Y0207260D01*
X0073800Y0206661D02*
X0006900Y0206661D01*
X0006900Y0206063D02*
X0073800Y0206063D01*
X0073800Y0205464D02*
X0006900Y0205464D01*
X0006900Y0204866D02*
X0073800Y0204866D01*
X0073800Y0204267D02*
X0006900Y0204267D01*
X0006900Y0203669D02*
X0073800Y0203669D01*
X0073800Y0203070D02*
X0006900Y0203070D01*
X0006900Y0202472D02*
X0074175Y0202472D01*
X0074773Y0201873D02*
X0006900Y0201873D01*
X0006900Y0201274D02*
X0075372Y0201274D01*
X0075970Y0200676D02*
X0006900Y0200676D01*
X0006900Y0200077D02*
X0076569Y0200077D01*
X0081431Y0200077D02*
X0086569Y0200077D01*
X0085970Y0200676D02*
X0082030Y0200676D01*
X0082628Y0201274D02*
X0085372Y0201274D01*
X0084773Y0201873D02*
X0083227Y0201873D01*
X0083825Y0202472D02*
X0084175Y0202472D01*
X0084504Y0207858D02*
X0083496Y0207858D01*
X0082897Y0208457D02*
X0085103Y0208457D01*
X0085701Y0209055D02*
X0082299Y0209055D01*
X0081700Y0209654D02*
X0086300Y0209654D01*
X0091700Y0209654D02*
X0096300Y0209654D01*
X0095701Y0209055D02*
X0092299Y0209055D01*
X0092897Y0208457D02*
X0095103Y0208457D01*
X0094504Y0207858D02*
X0093496Y0207858D01*
X0093825Y0202472D02*
X0094175Y0202472D01*
X0094773Y0201873D02*
X0093227Y0201873D01*
X0092628Y0201274D02*
X0095372Y0201274D01*
X0095970Y0200676D02*
X0092030Y0200676D01*
X0091431Y0200077D02*
X0096569Y0200077D01*
X0101431Y0200077D02*
X0116569Y0200077D01*
X0116846Y0199800D02*
X0121154Y0199800D01*
X0124000Y0202646D01*
X0126846Y0199800D01*
X0131154Y0199800D01*
X0134000Y0202646D01*
X0136846Y0199800D01*
X0141154Y0199800D01*
X0144000Y0202646D01*
X0146846Y0199800D01*
X0151154Y0199800D01*
X0154000Y0202646D01*
X0156846Y0199800D01*
X0161154Y0199800D01*
X0164000Y0202646D01*
X0166846Y0199800D01*
X0171154Y0199800D01*
X0174200Y0202846D01*
X0174200Y0207154D01*
X0171154Y0210200D01*
X0166846Y0210200D01*
X0164000Y0207354D01*
X0161154Y0210200D01*
X0156846Y0210200D01*
X0154000Y0207354D01*
X0151154Y0210200D01*
X0146846Y0210200D01*
X0144000Y0207354D01*
X0141154Y0210200D01*
X0136846Y0210200D01*
X0134000Y0207354D01*
X0131154Y0210200D01*
X0126846Y0210200D01*
X0124000Y0207354D01*
X0121154Y0210200D01*
X0116846Y0210200D01*
X0113800Y0207154D01*
X0113800Y0202846D01*
X0116846Y0199800D01*
X0115970Y0200676D02*
X0111181Y0200676D01*
X0110905Y0200400D02*
X0113600Y0203095D01*
X0113600Y0204700D01*
X0109300Y0204700D01*
X0109300Y0205300D01*
X0113600Y0205300D01*
X0113600Y0206905D01*
X0110905Y0209600D01*
X0109300Y0209600D01*
X0109300Y0205300D01*
X0108700Y0205300D01*
X0108700Y0209600D01*
X0107095Y0209600D01*
X0104400Y0206905D01*
X0104400Y0205300D01*
X0108700Y0205300D01*
X0108700Y0204700D01*
X0109300Y0204700D01*
X0109300Y0200400D01*
X0110905Y0200400D01*
X0111780Y0201274D02*
X0115372Y0201274D01*
X0114773Y0201873D02*
X0112378Y0201873D01*
X0112977Y0202472D02*
X0114175Y0202472D01*
X0113800Y0203070D02*
X0113575Y0203070D01*
X0113600Y0203669D02*
X0113800Y0203669D01*
X0113800Y0204267D02*
X0113600Y0204267D01*
X0113800Y0204866D02*
X0109300Y0204866D01*
X0109300Y0205464D02*
X0108700Y0205464D01*
X0108700Y0204866D02*
X0104200Y0204866D01*
X0104400Y0204700D02*
X0104400Y0203095D01*
X0107095Y0200400D01*
X0108700Y0200400D01*
X0108700Y0204700D01*
X0104400Y0204700D01*
X0104400Y0204267D02*
X0104200Y0204267D01*
X0104200Y0203669D02*
X0104400Y0203669D01*
X0104425Y0203070D02*
X0104200Y0203070D01*
X0103825Y0202472D02*
X0105023Y0202472D01*
X0105622Y0201873D02*
X0103227Y0201873D01*
X0102628Y0201274D02*
X0106220Y0201274D01*
X0106819Y0200676D02*
X0102030Y0200676D01*
X0104200Y0205464D02*
X0104400Y0205464D01*
X0104400Y0206063D02*
X0104200Y0206063D01*
X0104200Y0206661D02*
X0104400Y0206661D01*
X0104094Y0207260D02*
X0104754Y0207260D01*
X0105353Y0207858D02*
X0103496Y0207858D01*
X0102897Y0208457D02*
X0105951Y0208457D01*
X0106550Y0209055D02*
X0102299Y0209055D01*
X0101700Y0209654D02*
X0116300Y0209654D01*
X0115701Y0209055D02*
X0111450Y0209055D01*
X0112049Y0208457D02*
X0115103Y0208457D01*
X0114504Y0207858D02*
X0112647Y0207858D01*
X0113246Y0207260D02*
X0113906Y0207260D01*
X0113800Y0206661D02*
X0113600Y0206661D01*
X0113600Y0206063D02*
X0113800Y0206063D01*
X0113800Y0205464D02*
X0113600Y0205464D01*
X0109300Y0206063D02*
X0108700Y0206063D01*
X0108700Y0206661D02*
X0109300Y0206661D01*
X0109300Y0207260D02*
X0108700Y0207260D01*
X0108700Y0207858D02*
X0109300Y0207858D01*
X0109300Y0208457D02*
X0108700Y0208457D01*
X0108700Y0209055D02*
X0109300Y0209055D01*
X0109300Y0204267D02*
X0108700Y0204267D01*
X0108700Y0203669D02*
X0109300Y0203669D01*
X0109300Y0203070D02*
X0108700Y0203070D01*
X0108700Y0202472D02*
X0109300Y0202472D01*
X0109300Y0201873D02*
X0108700Y0201873D01*
X0108700Y0201274D02*
X0109300Y0201274D01*
X0109300Y0200676D02*
X0108700Y0200676D01*
X0121431Y0200077D02*
X0126569Y0200077D01*
X0125970Y0200676D02*
X0122030Y0200676D01*
X0122628Y0201274D02*
X0125372Y0201274D01*
X0124773Y0201873D02*
X0123227Y0201873D01*
X0123825Y0202472D02*
X0124175Y0202472D01*
X0124504Y0207858D02*
X0123496Y0207858D01*
X0122897Y0208457D02*
X0125103Y0208457D01*
X0125701Y0209055D02*
X0122299Y0209055D01*
X0121700Y0209654D02*
X0126300Y0209654D01*
X0131700Y0209654D02*
X0136300Y0209654D01*
X0135701Y0209055D02*
X0132299Y0209055D01*
X0132897Y0208457D02*
X0135103Y0208457D01*
X0134504Y0207858D02*
X0133496Y0207858D01*
X0133825Y0202472D02*
X0134175Y0202472D01*
X0134773Y0201873D02*
X0133227Y0201873D01*
X0132628Y0201274D02*
X0135372Y0201274D01*
X0135970Y0200676D02*
X0132030Y0200676D01*
X0131431Y0200077D02*
X0136569Y0200077D01*
X0141431Y0200077D02*
X0146569Y0200077D01*
X0145970Y0200676D02*
X0142030Y0200676D01*
X0142628Y0201274D02*
X0145372Y0201274D01*
X0144773Y0201873D02*
X0143227Y0201873D01*
X0143825Y0202472D02*
X0144175Y0202472D01*
X0144504Y0207858D02*
X0143496Y0207858D01*
X0142897Y0208457D02*
X0145103Y0208457D01*
X0145701Y0209055D02*
X0142299Y0209055D01*
X0141700Y0209654D02*
X0146300Y0209654D01*
X0151700Y0209654D02*
X0156300Y0209654D01*
X0155701Y0209055D02*
X0152299Y0209055D01*
X0152897Y0208457D02*
X0155103Y0208457D01*
X0154504Y0207858D02*
X0153496Y0207858D01*
X0153825Y0202472D02*
X0154175Y0202472D01*
X0154773Y0201873D02*
X0153227Y0201873D01*
X0152628Y0201274D02*
X0155372Y0201274D01*
X0155970Y0200676D02*
X0152030Y0200676D01*
X0151431Y0200077D02*
X0156569Y0200077D01*
X0161431Y0200077D02*
X0166569Y0200077D01*
X0165970Y0200676D02*
X0162030Y0200676D01*
X0162628Y0201274D02*
X0165372Y0201274D01*
X0164773Y0201873D02*
X0163227Y0201873D01*
X0163825Y0202472D02*
X0164175Y0202472D01*
X0164504Y0207858D02*
X0163496Y0207858D01*
X0162897Y0208457D02*
X0165103Y0208457D01*
X0165701Y0209055D02*
X0162299Y0209055D01*
X0161700Y0209654D02*
X0166300Y0209654D01*
X0171700Y0209654D02*
X0182300Y0209654D01*
X0181701Y0209055D02*
X0172299Y0209055D01*
X0172897Y0208457D02*
X0181103Y0208457D01*
X0180504Y0207858D02*
X0173496Y0207858D01*
X0174094Y0207260D02*
X0179906Y0207260D01*
X0179800Y0206661D02*
X0174200Y0206661D01*
X0174200Y0206063D02*
X0179800Y0206063D01*
X0179800Y0205464D02*
X0174200Y0205464D01*
X0174200Y0204866D02*
X0179800Y0204866D01*
X0179800Y0204267D02*
X0174200Y0204267D01*
X0174200Y0203669D02*
X0179800Y0203669D01*
X0179800Y0203070D02*
X0174200Y0203070D01*
X0173825Y0202472D02*
X0180175Y0202472D01*
X0180773Y0201873D02*
X0173227Y0201873D01*
X0172628Y0201274D02*
X0181372Y0201274D01*
X0181970Y0200676D02*
X0172030Y0200676D01*
X0171431Y0200077D02*
X0182569Y0200077D01*
X0187431Y0200077D02*
X0192569Y0200077D01*
X0191970Y0200676D02*
X0188030Y0200676D01*
X0188628Y0201274D02*
X0191372Y0201274D01*
X0190773Y0201873D02*
X0189227Y0201873D01*
X0189825Y0202472D02*
X0190175Y0202472D01*
X0190504Y0207858D02*
X0189496Y0207858D01*
X0188897Y0208457D02*
X0191103Y0208457D01*
X0191701Y0209055D02*
X0188299Y0209055D01*
X0187700Y0209654D02*
X0192300Y0209654D01*
X0197700Y0209654D02*
X0202300Y0209654D01*
X0201701Y0209055D02*
X0198299Y0209055D01*
X0198897Y0208457D02*
X0201103Y0208457D01*
X0200504Y0207858D02*
X0199496Y0207858D01*
X0199825Y0202472D02*
X0200175Y0202472D01*
X0200773Y0201873D02*
X0199227Y0201873D01*
X0198628Y0201274D02*
X0201372Y0201274D01*
X0201970Y0200676D02*
X0198030Y0200676D01*
X0197431Y0200077D02*
X0202569Y0200077D01*
X0207431Y0200077D02*
X0212569Y0200077D01*
X0211970Y0200676D02*
X0208030Y0200676D01*
X0208628Y0201274D02*
X0211372Y0201274D01*
X0210773Y0201873D02*
X0209227Y0201873D01*
X0209825Y0202472D02*
X0210175Y0202472D01*
X0210504Y0207858D02*
X0209496Y0207858D01*
X0208897Y0208457D02*
X0211103Y0208457D01*
X0211701Y0209055D02*
X0208299Y0209055D01*
X0207700Y0209654D02*
X0212300Y0209654D01*
X0217700Y0209654D02*
X0222300Y0209654D01*
X0221701Y0209055D02*
X0218299Y0209055D01*
X0218897Y0208457D02*
X0221103Y0208457D01*
X0220504Y0207858D02*
X0219496Y0207858D01*
X0219825Y0202472D02*
X0220175Y0202472D01*
X0220773Y0201873D02*
X0219227Y0201873D01*
X0218628Y0201274D02*
X0221372Y0201274D01*
X0221970Y0200676D02*
X0218030Y0200676D01*
X0217431Y0200077D02*
X0222569Y0200077D01*
X0227431Y0200077D02*
X0232569Y0200077D01*
X0231970Y0200676D02*
X0228030Y0200676D01*
X0228628Y0201274D02*
X0231372Y0201274D01*
X0230773Y0201873D02*
X0229227Y0201873D01*
X0229825Y0202472D02*
X0230175Y0202472D01*
X0230504Y0207858D02*
X0229496Y0207858D01*
X0228897Y0208457D02*
X0231103Y0208457D01*
X0231701Y0209055D02*
X0228299Y0209055D01*
X0227700Y0209654D02*
X0232300Y0209654D01*
X0237700Y0209654D02*
X0242300Y0209654D01*
X0241701Y0209055D02*
X0238299Y0209055D01*
X0238897Y0208457D02*
X0241103Y0208457D01*
X0240504Y0207858D02*
X0239496Y0207858D01*
X0239825Y0202472D02*
X0240175Y0202472D01*
X0240773Y0201873D02*
X0239227Y0201873D01*
X0238628Y0201274D02*
X0241372Y0201274D01*
X0241970Y0200676D02*
X0238030Y0200676D01*
X0237431Y0200077D02*
X0242569Y0200077D01*
X0247431Y0200077D02*
X0252569Y0200077D01*
X0251970Y0200676D02*
X0248030Y0200676D01*
X0248628Y0201274D02*
X0251372Y0201274D01*
X0250773Y0201873D02*
X0249227Y0201873D01*
X0249825Y0202472D02*
X0250175Y0202472D01*
X0250504Y0207858D02*
X0249496Y0207858D01*
X0248897Y0208457D02*
X0251103Y0208457D01*
X0251701Y0209055D02*
X0248299Y0209055D01*
X0247700Y0209654D02*
X0252300Y0209654D01*
X0258667Y0212646D02*
X0006900Y0212646D01*
X0006900Y0212048D02*
X0259265Y0212048D01*
X0226865Y0159977D02*
X0130902Y0159977D01*
X0131501Y0159379D02*
X0226109Y0159379D01*
X0225510Y0158780D02*
X0132099Y0158780D01*
X0132360Y0158182D02*
X0224936Y0158182D01*
X0224688Y0157583D02*
X0132608Y0157583D01*
X0132856Y0156985D02*
X0224440Y0156985D01*
X0224192Y0156386D02*
X0133104Y0156386D01*
X0133352Y0155788D02*
X0224065Y0155788D01*
X0224065Y0155189D02*
X0133400Y0155189D01*
X0133400Y0154591D02*
X0224065Y0154591D01*
X0224065Y0153992D02*
X0133400Y0153992D01*
X0133400Y0153394D02*
X0224215Y0153394D01*
X0224244Y0152795D02*
X0133400Y0152795D01*
X0133345Y0152197D02*
X0223646Y0152197D01*
X0223047Y0151598D02*
X0133097Y0151598D01*
X0132849Y0151000D02*
X0222449Y0151000D01*
X0221850Y0150401D02*
X0132601Y0150401D01*
X0132353Y0149803D02*
X0221252Y0149803D01*
X0220653Y0149204D02*
X0132083Y0149204D01*
X0131485Y0148605D02*
X0220055Y0148605D01*
X0219456Y0148007D02*
X0130886Y0148007D01*
X0130288Y0147408D02*
X0218858Y0147408D01*
X0218259Y0146810D02*
X0129592Y0146810D01*
X0128147Y0146211D02*
X0217661Y0146211D01*
X0217062Y0145613D02*
X0126702Y0145613D01*
X0123298Y0145613D02*
X0006900Y0145613D01*
X0006900Y0146211D02*
X0121853Y0146211D01*
X0120408Y0146810D02*
X0006900Y0146810D01*
X0006900Y0147408D02*
X0119712Y0147408D01*
X0119114Y0148007D02*
X0006900Y0148007D01*
X0006900Y0148605D02*
X0118515Y0148605D01*
X0117917Y0149204D02*
X0006900Y0149204D01*
X0006900Y0149803D02*
X0117647Y0149803D01*
X0117399Y0150401D02*
X0006900Y0150401D01*
X0006900Y0151000D02*
X0117151Y0151000D01*
X0116903Y0151598D02*
X0006900Y0151598D01*
X0006900Y0152197D02*
X0116655Y0152197D01*
X0116600Y0152795D02*
X0006900Y0152795D01*
X0006900Y0153394D02*
X0116600Y0153394D01*
X0116600Y0153992D02*
X0006900Y0153992D01*
X0006900Y0154591D02*
X0116600Y0154591D01*
X0116600Y0155189D02*
X0006900Y0155189D01*
X0006900Y0155788D02*
X0116648Y0155788D01*
X0116896Y0156386D02*
X0006900Y0156386D01*
X0006900Y0156985D02*
X0117144Y0156985D01*
X0117392Y0157583D02*
X0006900Y0157583D01*
X0006900Y0158182D02*
X0117640Y0158182D01*
X0117901Y0158780D02*
X0006900Y0158780D01*
X0006900Y0159379D02*
X0118499Y0159379D01*
X0119098Y0159977D02*
X0006900Y0159977D01*
X0006900Y0160576D02*
X0119696Y0160576D01*
X0120370Y0161174D02*
X0006900Y0161174D01*
X0006900Y0161773D02*
X0121815Y0161773D01*
X0123260Y0162371D02*
X0006900Y0162371D01*
X0006900Y0145014D02*
X0216464Y0145014D01*
X0215865Y0144416D02*
X0006900Y0144416D01*
X0006900Y0143817D02*
X0215267Y0143817D01*
X0214668Y0143219D02*
X0006900Y0143219D01*
X0006900Y0142620D02*
X0214070Y0142620D01*
X0213471Y0142022D02*
X0006900Y0142022D01*
X0006900Y0141423D02*
X0212877Y0141423D01*
X0212629Y0140825D02*
X0006900Y0140825D01*
X0006900Y0140226D02*
X0212500Y0140226D01*
X0212500Y0139628D02*
X0006900Y0139628D01*
X0006900Y0139029D02*
X0212500Y0139029D01*
X0212500Y0138431D02*
X0006900Y0138431D01*
X0006900Y0137832D02*
X0212500Y0137832D01*
X0212500Y0137234D02*
X0006900Y0137234D01*
X0006900Y0136635D02*
X0212500Y0136635D01*
X0212500Y0136037D02*
X0006900Y0136037D01*
X0006900Y0135438D02*
X0212500Y0135438D01*
X0212500Y0134840D02*
X0006900Y0134840D01*
X0006900Y0134241D02*
X0212500Y0134241D01*
X0212500Y0133643D02*
X0006900Y0133643D01*
X0006900Y0133044D02*
X0212500Y0133044D01*
X0212500Y0132446D02*
X0006900Y0132446D01*
X0006900Y0131847D02*
X0212500Y0131847D01*
X0212500Y0131249D02*
X0006900Y0131249D01*
X0006900Y0130650D02*
X0212500Y0130650D01*
X0212500Y0130052D02*
X0006900Y0130052D01*
X0006900Y0129453D02*
X0212500Y0129453D01*
X0212500Y0128855D02*
X0006900Y0128855D01*
X0006900Y0128256D02*
X0212500Y0128256D01*
X0212500Y0127658D02*
X0006900Y0127658D01*
X0006900Y0127059D02*
X0212500Y0127059D01*
X0212500Y0126461D02*
X0006900Y0126461D01*
X0006900Y0125862D02*
X0212500Y0125862D01*
X0212500Y0125264D02*
X0006900Y0125264D01*
X0006900Y0124665D02*
X0212500Y0124665D01*
X0212500Y0124067D02*
X0006900Y0124067D01*
X0006900Y0123468D02*
X0212500Y0123468D01*
X0212500Y0122870D02*
X0006900Y0122870D01*
X0006900Y0122271D02*
X0212500Y0122271D01*
X0212500Y0121672D02*
X0006900Y0121672D01*
X0006900Y0121074D02*
X0212500Y0121074D01*
X0212500Y0120475D02*
X0006900Y0120475D01*
X0006900Y0088754D02*
X0111316Y0088754D01*
X0110793Y0089353D02*
X0066517Y0089353D01*
X0067962Y0089951D02*
X0110545Y0089951D01*
X0110297Y0090550D02*
X0068820Y0090550D01*
X0111914Y0088156D02*
X0006900Y0088156D01*
X0006900Y0087557D02*
X0112921Y0087557D01*
X0117079Y0087557D02*
X0130600Y0087557D01*
X0130600Y0086959D02*
X0006900Y0086959D01*
X0006900Y0086360D02*
X0130600Y0086360D01*
X0130600Y0085762D02*
X0006900Y0085762D01*
X0006900Y0085163D02*
X0130600Y0085163D01*
X0130600Y0084565D02*
X0006900Y0084565D01*
X0006900Y0083966D02*
X0130600Y0083966D01*
X0130600Y0083368D02*
X0006900Y0083368D01*
X0006900Y0082769D02*
X0130600Y0082769D01*
X0130600Y0082171D02*
X0006900Y0082171D01*
X0006900Y0081572D02*
X0130600Y0081572D01*
X0130600Y0080974D02*
X0006900Y0080974D01*
X0006900Y0069602D02*
X0130600Y0069602D01*
X0130600Y0069003D02*
X0006900Y0069003D01*
X0006900Y0068405D02*
X0130600Y0068405D01*
X0130600Y0067806D02*
X0126200Y0067806D01*
X0125975Y0067900D02*
X0124025Y0067900D01*
X0122224Y0067154D01*
X0120846Y0065776D01*
X0120100Y0063975D01*
X0120100Y0056025D01*
X0120600Y0054818D01*
X0120600Y0039125D01*
X0121270Y0037508D01*
X0122508Y0036270D01*
X0124125Y0035600D01*
X0125875Y0035600D01*
X0127492Y0036270D01*
X0128730Y0037508D01*
X0129400Y0039125D01*
X0129400Y0054818D01*
X0129900Y0056025D01*
X0129900Y0063975D01*
X0129154Y0065776D01*
X0127776Y0067154D01*
X0125975Y0067900D01*
X0127645Y0067208D02*
X0130600Y0067208D01*
X0130600Y0066609D02*
X0128320Y0066609D01*
X0128919Y0066011D02*
X0130600Y0066011D01*
X0130600Y0065412D02*
X0129304Y0065412D01*
X0129552Y0064814D02*
X0130448Y0064814D01*
X0130600Y0065182D02*
X0130100Y0063975D01*
X0130100Y0056025D01*
X0130846Y0054224D01*
X0132224Y0052846D01*
X0134025Y0052100D01*
X0135975Y0052100D01*
X0137776Y0052846D01*
X0139154Y0054224D01*
X0139900Y0056025D01*
X0139900Y0063975D01*
X0139400Y0065182D01*
X0139400Y0089818D01*
X0139900Y0091025D01*
X0139900Y0098975D01*
X0139154Y0100776D01*
X0137776Y0102154D01*
X0135975Y0102900D01*
X0134025Y0102900D01*
X0132224Y0102154D01*
X0130846Y0100776D01*
X0130100Y0098975D01*
X0130100Y0091025D01*
X0130600Y0089818D01*
X0130600Y0065182D01*
X0130200Y0064215D02*
X0129800Y0064215D01*
X0129900Y0063617D02*
X0130100Y0063617D01*
X0130100Y0063018D02*
X0129900Y0063018D01*
X0129900Y0062420D02*
X0130100Y0062420D01*
X0130100Y0061821D02*
X0129900Y0061821D01*
X0129900Y0061223D02*
X0130100Y0061223D01*
X0130100Y0060624D02*
X0129900Y0060624D01*
X0129900Y0060026D02*
X0130100Y0060026D01*
X0130100Y0059427D02*
X0129900Y0059427D01*
X0129900Y0058829D02*
X0130100Y0058829D01*
X0130100Y0058230D02*
X0129900Y0058230D01*
X0129900Y0057632D02*
X0130100Y0057632D01*
X0130100Y0057033D02*
X0129900Y0057033D01*
X0129900Y0056435D02*
X0130100Y0056435D01*
X0130178Y0055836D02*
X0129822Y0055836D01*
X0129574Y0055238D02*
X0130426Y0055238D01*
X0130674Y0054639D02*
X0129400Y0054639D01*
X0129400Y0054041D02*
X0131030Y0054041D01*
X0131628Y0053442D02*
X0129400Y0053442D01*
X0129400Y0052844D02*
X0132230Y0052844D01*
X0133675Y0052245D02*
X0129400Y0052245D01*
X0129400Y0051647D02*
X0166500Y0051647D01*
X0166500Y0052245D02*
X0136325Y0052245D01*
X0137770Y0052844D02*
X0166500Y0052844D01*
X0166500Y0053442D02*
X0138372Y0053442D01*
X0138970Y0054041D02*
X0166500Y0054041D01*
X0166500Y0054639D02*
X0139326Y0054639D01*
X0139574Y0055238D02*
X0166500Y0055238D01*
X0166500Y0055836D02*
X0139822Y0055836D01*
X0139900Y0056435D02*
X0166423Y0056435D01*
X0165825Y0057033D02*
X0139900Y0057033D01*
X0139900Y0057632D02*
X0165515Y0057632D01*
X0165267Y0058230D02*
X0139900Y0058230D01*
X0139900Y0058829D02*
X0165019Y0058829D01*
X0164950Y0059427D02*
X0139900Y0059427D01*
X0139900Y0060026D02*
X0164950Y0060026D01*
X0164426Y0060624D02*
X0139900Y0060624D01*
X0139900Y0061223D02*
X0163827Y0061223D01*
X0163229Y0061821D02*
X0139900Y0061821D01*
X0139900Y0062420D02*
X0162630Y0062420D01*
X0162032Y0063018D02*
X0139900Y0063018D01*
X0139900Y0063617D02*
X0161785Y0063617D01*
X0161537Y0064215D02*
X0139800Y0064215D01*
X0139552Y0064814D02*
X0161500Y0064814D01*
X0161500Y0065412D02*
X0139400Y0065412D01*
X0139400Y0066011D02*
X0161500Y0066011D01*
X0161500Y0066609D02*
X0139400Y0066609D01*
X0139400Y0067208D02*
X0161500Y0067208D01*
X0161500Y0067806D02*
X0139400Y0067806D01*
X0139400Y0068405D02*
X0161500Y0068405D01*
X0161500Y0069003D02*
X0139400Y0069003D01*
X0139400Y0069602D02*
X0161500Y0069602D01*
X0161500Y0070201D02*
X0139400Y0070201D01*
X0139400Y0070799D02*
X0161500Y0070799D01*
X0161500Y0071398D02*
X0139400Y0071398D01*
X0139400Y0071996D02*
X0161500Y0071996D01*
X0161500Y0072595D02*
X0139400Y0072595D01*
X0139400Y0073193D02*
X0161500Y0073193D01*
X0161500Y0073792D02*
X0139400Y0073792D01*
X0139400Y0074390D02*
X0161500Y0074390D01*
X0161500Y0074989D02*
X0139400Y0074989D01*
X0139400Y0075587D02*
X0161500Y0075587D01*
X0161500Y0076186D02*
X0139400Y0076186D01*
X0139400Y0076784D02*
X0161500Y0076784D01*
X0161500Y0077383D02*
X0139400Y0077383D01*
X0139400Y0077981D02*
X0161500Y0077981D01*
X0161500Y0078580D02*
X0139400Y0078580D01*
X0139400Y0079178D02*
X0161500Y0079178D01*
X0161500Y0079777D02*
X0139400Y0079777D01*
X0139400Y0080375D02*
X0161500Y0080375D01*
X0161500Y0080974D02*
X0139400Y0080974D01*
X0139400Y0081572D02*
X0161500Y0081572D01*
X0161465Y0082171D02*
X0139400Y0082171D01*
X0139400Y0082769D02*
X0160867Y0082769D01*
X0160500Y0083368D02*
X0139400Y0083368D01*
X0139400Y0083966D02*
X0160500Y0083966D01*
X0160500Y0084565D02*
X0139400Y0084565D01*
X0139400Y0085163D02*
X0160500Y0085163D01*
X0160500Y0085762D02*
X0139400Y0085762D01*
X0139400Y0086360D02*
X0160500Y0086360D01*
X0160595Y0086959D02*
X0139400Y0086959D01*
X0139400Y0087557D02*
X0161193Y0087557D01*
X0161792Y0088156D02*
X0139400Y0088156D01*
X0139400Y0088754D02*
X0162390Y0088754D01*
X0162989Y0089353D02*
X0139400Y0089353D01*
X0139455Y0089951D02*
X0216937Y0089951D01*
X0216339Y0090550D02*
X0139703Y0090550D01*
X0139900Y0091148D02*
X0215740Y0091148D01*
X0215142Y0091747D02*
X0139900Y0091747D01*
X0139900Y0092345D02*
X0214543Y0092345D01*
X0213945Y0092944D02*
X0139900Y0092944D01*
X0139900Y0093542D02*
X0213346Y0093542D01*
X0212748Y0094141D02*
X0139900Y0094141D01*
X0139900Y0094739D02*
X0212149Y0094739D01*
X0211551Y0095338D02*
X0139900Y0095338D01*
X0139900Y0095937D02*
X0210952Y0095937D01*
X0210354Y0096535D02*
X0139900Y0096535D01*
X0139900Y0097134D02*
X0209755Y0097134D01*
X0209157Y0097732D02*
X0139900Y0097732D01*
X0139900Y0098331D02*
X0208558Y0098331D01*
X0207960Y0098929D02*
X0139900Y0098929D01*
X0139671Y0099528D02*
X0207361Y0099528D01*
X0206763Y0100126D02*
X0139423Y0100126D01*
X0139175Y0100725D02*
X0206164Y0100725D01*
X0205566Y0101323D02*
X0138607Y0101323D01*
X0138008Y0101922D02*
X0204967Y0101922D01*
X0204369Y0102520D02*
X0136892Y0102520D01*
X0133108Y0102520D02*
X0116892Y0102520D01*
X0118008Y0101922D02*
X0123225Y0101922D01*
X0123349Y0101985D02*
X0122746Y0101678D01*
X0122199Y0101280D01*
X0121720Y0100801D01*
X0121322Y0100254D01*
X0121015Y0099651D01*
X0120806Y0099007D01*
X0120700Y0098338D01*
X0120700Y0095300D01*
X0124700Y0095300D01*
X0124700Y0102300D01*
X0124662Y0102300D01*
X0123993Y0102194D01*
X0123349Y0101985D01*
X0122258Y0101323D02*
X0118607Y0101323D01*
X0119175Y0100725D02*
X0121664Y0100725D01*
X0121257Y0100126D02*
X0119423Y0100126D01*
X0119671Y0099528D02*
X0120975Y0099528D01*
X0120794Y0098929D02*
X0119900Y0098929D01*
X0119900Y0098331D02*
X0120700Y0098331D01*
X0120700Y0097732D02*
X0119900Y0097732D01*
X0119900Y0097134D02*
X0120700Y0097134D01*
X0120700Y0096535D02*
X0119900Y0096535D01*
X0119900Y0095937D02*
X0120700Y0095937D01*
X0120700Y0095338D02*
X0119900Y0095338D01*
X0119900Y0094739D02*
X0124700Y0094739D01*
X0124700Y0094700D02*
X0120700Y0094700D01*
X0120700Y0091662D01*
X0120806Y0090993D01*
X0121015Y0090349D01*
X0121322Y0089746D01*
X0121720Y0089199D01*
X0122199Y0088720D01*
X0122746Y0088322D01*
X0123349Y0088015D01*
X0123993Y0087806D01*
X0124662Y0087700D01*
X0124700Y0087700D01*
X0124700Y0094700D01*
X0125300Y0094700D01*
X0125300Y0095300D01*
X0129300Y0095300D01*
X0129300Y0098338D01*
X0129194Y0099007D01*
X0128985Y0099651D01*
X0128678Y0100254D01*
X0128280Y0100801D01*
X0127801Y0101280D01*
X0127254Y0101678D01*
X0126651Y0101985D01*
X0126007Y0102194D01*
X0125338Y0102300D01*
X0125300Y0102300D01*
X0125300Y0095300D01*
X0124700Y0095300D01*
X0124700Y0094700D01*
X0124700Y0094141D02*
X0125300Y0094141D01*
X0125300Y0094700D02*
X0125300Y0087700D01*
X0125338Y0087700D01*
X0126007Y0087806D01*
X0126651Y0088015D01*
X0127254Y0088322D01*
X0127801Y0088720D01*
X0128280Y0089199D01*
X0128678Y0089746D01*
X0128985Y0090349D01*
X0129194Y0090993D01*
X0129300Y0091662D01*
X0129300Y0094700D01*
X0125300Y0094700D01*
X0125300Y0094739D02*
X0130100Y0094739D01*
X0130100Y0094141D02*
X0129300Y0094141D01*
X0129300Y0093542D02*
X0130100Y0093542D01*
X0130100Y0092944D02*
X0129300Y0092944D01*
X0129300Y0092345D02*
X0130100Y0092345D01*
X0130100Y0091747D02*
X0129300Y0091747D01*
X0129219Y0091148D02*
X0130100Y0091148D01*
X0130297Y0090550D02*
X0129050Y0090550D01*
X0128782Y0089951D02*
X0130545Y0089951D01*
X0130600Y0089353D02*
X0128392Y0089353D01*
X0127835Y0088754D02*
X0130600Y0088754D01*
X0130600Y0088156D02*
X0126927Y0088156D01*
X0125300Y0088156D02*
X0124700Y0088156D01*
X0124700Y0088754D02*
X0125300Y0088754D01*
X0125300Y0089353D02*
X0124700Y0089353D01*
X0124700Y0089951D02*
X0125300Y0089951D01*
X0125300Y0090550D02*
X0124700Y0090550D01*
X0124700Y0091148D02*
X0125300Y0091148D01*
X0125300Y0091747D02*
X0124700Y0091747D01*
X0124700Y0092345D02*
X0125300Y0092345D01*
X0125300Y0092944D02*
X0124700Y0092944D01*
X0124700Y0093542D02*
X0125300Y0093542D01*
X0125300Y0095338D02*
X0124700Y0095338D01*
X0124700Y0095937D02*
X0125300Y0095937D01*
X0125300Y0096535D02*
X0124700Y0096535D01*
X0124700Y0097134D02*
X0125300Y0097134D01*
X0125300Y0097732D02*
X0124700Y0097732D01*
X0124700Y0098331D02*
X0125300Y0098331D01*
X0125300Y0098929D02*
X0124700Y0098929D01*
X0124700Y0099528D02*
X0125300Y0099528D01*
X0125300Y0100126D02*
X0124700Y0100126D01*
X0124700Y0100725D02*
X0125300Y0100725D01*
X0125300Y0101323D02*
X0124700Y0101323D01*
X0124700Y0101922D02*
X0125300Y0101922D01*
X0126775Y0101922D02*
X0131992Y0101922D01*
X0131393Y0101323D02*
X0127742Y0101323D01*
X0128336Y0100725D02*
X0130825Y0100725D01*
X0130577Y0100126D02*
X0128743Y0100126D01*
X0129025Y0099528D02*
X0130329Y0099528D01*
X0130100Y0098929D02*
X0129206Y0098929D01*
X0129300Y0098331D02*
X0130100Y0098331D01*
X0130100Y0097732D02*
X0129300Y0097732D01*
X0129300Y0097134D02*
X0130100Y0097134D01*
X0130100Y0096535D02*
X0129300Y0096535D01*
X0129300Y0095937D02*
X0130100Y0095937D01*
X0130100Y0095338D02*
X0129300Y0095338D01*
X0120700Y0094141D02*
X0119900Y0094141D01*
X0119900Y0093542D02*
X0120700Y0093542D01*
X0120700Y0092944D02*
X0119900Y0092944D01*
X0119900Y0092345D02*
X0120700Y0092345D01*
X0120700Y0091747D02*
X0119900Y0091747D01*
X0119900Y0091148D02*
X0120781Y0091148D01*
X0120950Y0090550D02*
X0119703Y0090550D01*
X0119455Y0089951D02*
X0121218Y0089951D01*
X0121608Y0089353D02*
X0119207Y0089353D01*
X0118684Y0088754D02*
X0122165Y0088754D01*
X0123073Y0088156D02*
X0118085Y0088156D01*
X0123800Y0067806D02*
X0006900Y0067806D01*
X0006900Y0067208D02*
X0122355Y0067208D01*
X0121680Y0066609D02*
X0006900Y0066609D01*
X0006900Y0066011D02*
X0121081Y0066011D01*
X0120696Y0065412D02*
X0006900Y0065412D01*
X0006900Y0064814D02*
X0120448Y0064814D01*
X0120200Y0064215D02*
X0006900Y0064215D01*
X0006900Y0063617D02*
X0120100Y0063617D01*
X0120100Y0063018D02*
X0006900Y0063018D01*
X0006900Y0062420D02*
X0120100Y0062420D01*
X0120100Y0061821D02*
X0006900Y0061821D01*
X0006900Y0061223D02*
X0120100Y0061223D01*
X0120100Y0060624D02*
X0006900Y0060624D01*
X0006900Y0060026D02*
X0120100Y0060026D01*
X0120100Y0059427D02*
X0006900Y0059427D01*
X0006900Y0058829D02*
X0120100Y0058829D01*
X0120100Y0058230D02*
X0006900Y0058230D01*
X0006900Y0057632D02*
X0120100Y0057632D01*
X0120100Y0057033D02*
X0006900Y0057033D01*
X0006900Y0056435D02*
X0120100Y0056435D01*
X0120178Y0055836D02*
X0006900Y0055836D01*
X0006900Y0055238D02*
X0120426Y0055238D01*
X0120600Y0054639D02*
X0006900Y0054639D01*
X0006900Y0054041D02*
X0120600Y0054041D01*
X0120600Y0053442D02*
X0006900Y0053442D01*
X0006900Y0052844D02*
X0120600Y0052844D01*
X0120600Y0052245D02*
X0006900Y0052245D01*
X0006900Y0051647D02*
X0120600Y0051647D01*
X0120600Y0051048D02*
X0006900Y0051048D01*
X0006900Y0050450D02*
X0120600Y0050450D01*
X0120600Y0049851D02*
X0006900Y0049851D01*
X0006900Y0049253D02*
X0120600Y0049253D01*
X0120600Y0048654D02*
X0006900Y0048654D01*
X0006900Y0048056D02*
X0120600Y0048056D01*
X0120600Y0047457D02*
X0006900Y0047457D01*
X0006900Y0046859D02*
X0120600Y0046859D01*
X0120600Y0046260D02*
X0006900Y0046260D01*
X0006900Y0045662D02*
X0120600Y0045662D01*
X0120600Y0045063D02*
X0006900Y0045063D01*
X0006900Y0044465D02*
X0120600Y0044465D01*
X0120600Y0043866D02*
X0006900Y0043866D01*
X0006900Y0043268D02*
X0120600Y0043268D01*
X0120600Y0042669D02*
X0006900Y0042669D01*
X0006900Y0042070D02*
X0120600Y0042070D01*
X0120600Y0041472D02*
X0006900Y0041472D01*
X0006900Y0040873D02*
X0120600Y0040873D01*
X0120600Y0040275D02*
X0006900Y0040275D01*
X0006900Y0039676D02*
X0120600Y0039676D01*
X0120619Y0039078D02*
X0006900Y0039078D01*
X0006900Y0038479D02*
X0120867Y0038479D01*
X0121115Y0037881D02*
X0006900Y0037881D01*
X0006900Y0037282D02*
X0121495Y0037282D01*
X0122094Y0036684D02*
X0006900Y0036684D01*
X0006900Y0036085D02*
X0122953Y0036085D01*
X0127047Y0036085D02*
X0166500Y0036085D01*
X0166500Y0035487D02*
X0006900Y0035487D01*
X0006900Y0034888D02*
X0166500Y0034888D01*
X0166500Y0034290D02*
X0006900Y0034290D01*
X0006900Y0033691D02*
X0166500Y0033691D01*
X0166500Y0033093D02*
X0006900Y0033093D01*
X0006900Y0032494D02*
X0166500Y0032494D01*
X0166500Y0031896D02*
X0006900Y0031896D01*
X0006900Y0031297D02*
X0166348Y0031297D01*
X0165749Y0030699D02*
X0006900Y0030699D01*
X0006900Y0030100D02*
X0165151Y0030100D01*
X0164552Y0029502D02*
X0006900Y0029502D01*
X0006900Y0028903D02*
X0163954Y0028903D01*
X0163355Y0028305D02*
X0006900Y0028305D01*
X0006900Y0027706D02*
X0162756Y0027706D01*
X0162158Y0027108D02*
X0006900Y0027108D01*
X0006900Y0026509D02*
X0161559Y0026509D01*
X0160961Y0025911D02*
X0006900Y0025911D01*
X0006900Y0025312D02*
X0160362Y0025312D01*
X0159764Y0024714D02*
X0006900Y0024714D01*
X0006900Y0024115D02*
X0159165Y0024115D01*
X0158567Y0023517D02*
X0006900Y0023517D01*
X0006900Y0022918D02*
X0157968Y0022918D01*
X0157370Y0022320D02*
X0006900Y0022320D01*
X0006900Y0021721D02*
X0156771Y0021721D01*
X0156173Y0021123D02*
X0006900Y0021123D01*
X0006900Y0020524D02*
X0155574Y0020524D01*
X0166500Y0036684D02*
X0127906Y0036684D01*
X0128505Y0037282D02*
X0166500Y0037282D01*
X0166500Y0037881D02*
X0128885Y0037881D01*
X0129133Y0038479D02*
X0166500Y0038479D01*
X0166500Y0039078D02*
X0129381Y0039078D01*
X0129400Y0039676D02*
X0166500Y0039676D01*
X0166500Y0040275D02*
X0129400Y0040275D01*
X0129400Y0040873D02*
X0166500Y0040873D01*
X0166500Y0041472D02*
X0129400Y0041472D01*
X0129400Y0042070D02*
X0166500Y0042070D01*
X0166500Y0042669D02*
X0129400Y0042669D01*
X0129400Y0043268D02*
X0166500Y0043268D01*
X0166500Y0043866D02*
X0129400Y0043866D01*
X0129400Y0044465D02*
X0166500Y0044465D01*
X0166500Y0045063D02*
X0129400Y0045063D01*
X0129400Y0045662D02*
X0166500Y0045662D01*
X0166500Y0046260D02*
X0129400Y0046260D01*
X0129400Y0046859D02*
X0166500Y0046859D01*
X0166500Y0047457D02*
X0129400Y0047457D01*
X0129400Y0048056D02*
X0166500Y0048056D01*
X0166500Y0048654D02*
X0129400Y0048654D01*
X0129400Y0049253D02*
X0166500Y0049253D01*
X0166500Y0049851D02*
X0129400Y0049851D01*
X0129400Y0050450D02*
X0166500Y0050450D01*
X0166500Y0051048D02*
X0129400Y0051048D01*
X0112572Y0019926D02*
X0006900Y0019926D01*
X0006900Y0019327D02*
X0111973Y0019327D01*
X0111375Y0018729D02*
X0006900Y0018729D01*
X0006900Y0018130D02*
X0110776Y0018130D01*
X0110178Y0017532D02*
X0006900Y0017532D01*
X0006900Y0016933D02*
X0109800Y0016933D01*
X0109800Y0016334D02*
X0006900Y0016334D01*
X0006900Y0015736D02*
X0109800Y0015736D01*
X0109800Y0015137D02*
X0006900Y0015137D01*
X0006900Y0014539D02*
X0109800Y0014539D01*
X0109800Y0013940D02*
X0006900Y0013940D01*
X0006900Y0013342D02*
X0109800Y0013342D01*
X0109903Y0012743D02*
X0006900Y0012743D01*
X0006900Y0012145D02*
X0110501Y0012145D01*
X0111100Y0011546D02*
X0006900Y0011546D01*
X0006900Y0010948D02*
X0111698Y0010948D01*
X0175050Y0060624D02*
X0175550Y0060624D01*
X0175550Y0061223D02*
X0174960Y0061223D01*
X0174712Y0061821D02*
X0175550Y0061821D01*
X0176127Y0062420D02*
X0174464Y0062420D01*
X0174123Y0063018D02*
X0176725Y0063018D01*
X0177324Y0063617D02*
X0173525Y0063617D01*
X0172926Y0064215D02*
X0177922Y0064215D01*
X0179700Y0064215D02*
X0180300Y0064215D01*
X0180300Y0063617D02*
X0179700Y0063617D01*
X0179700Y0063018D02*
X0180300Y0063018D01*
X0180300Y0062420D02*
X0179700Y0062420D01*
X0179700Y0061821D02*
X0180300Y0061821D01*
X0180300Y0061223D02*
X0179700Y0061223D01*
X0179700Y0059427D02*
X0180300Y0059427D01*
X0180300Y0058829D02*
X0179700Y0058829D01*
X0179700Y0058230D02*
X0180300Y0058230D01*
X0180300Y0057632D02*
X0179700Y0057632D01*
X0179700Y0057033D02*
X0180300Y0057033D01*
X0180300Y0056435D02*
X0179700Y0056435D01*
X0179700Y0055836D02*
X0180300Y0055836D01*
X0184700Y0081572D02*
X0185300Y0081572D01*
X0185300Y0082171D02*
X0184700Y0082171D01*
X0184700Y0082769D02*
X0185300Y0082769D01*
X0185300Y0083368D02*
X0184700Y0083368D01*
X0184700Y0083966D02*
X0185300Y0083966D01*
X0185300Y0085762D02*
X0184700Y0085762D01*
X0184700Y0086360D02*
X0185300Y0086360D01*
X0185300Y0086959D02*
X0184700Y0086959D01*
X0184700Y0087557D02*
X0185300Y0087557D01*
X0185300Y0088156D02*
X0184700Y0088156D01*
X0184700Y0088754D02*
X0185300Y0088754D01*
X0207000Y0106111D02*
X0212500Y0106111D01*
X0212500Y0105513D02*
X0207599Y0105513D01*
X0208197Y0104914D02*
X0212500Y0104914D01*
X0212577Y0104316D02*
X0208796Y0104316D01*
X0209394Y0103717D02*
X0212825Y0103717D01*
X0213346Y0103119D02*
X0209993Y0103119D01*
X0210591Y0102520D02*
X0213944Y0102520D01*
X0214543Y0101922D02*
X0211190Y0101922D01*
X0211788Y0101323D02*
X0215141Y0101323D01*
X0215740Y0100725D02*
X0212387Y0100725D01*
X0212985Y0100126D02*
X0216338Y0100126D01*
X0216937Y0099528D02*
X0213584Y0099528D01*
X0214182Y0098929D02*
X0217535Y0098929D01*
X0218134Y0098331D02*
X0214781Y0098331D01*
X0215379Y0097732D02*
X0218732Y0097732D01*
X0219331Y0097134D02*
X0215978Y0097134D01*
X0216576Y0096535D02*
X0219929Y0096535D01*
X0220528Y0095937D02*
X0217175Y0095937D01*
X0217773Y0095338D02*
X0221126Y0095338D01*
X0221725Y0094739D02*
X0218372Y0094739D01*
X0218970Y0094141D02*
X0222323Y0094141D01*
X0222500Y0093542D02*
X0219569Y0093542D01*
X0220167Y0092944D02*
X0222500Y0092944D01*
X0222500Y0092345D02*
X0220766Y0092345D01*
X0221364Y0091747D02*
X0222500Y0091747D01*
X0222500Y0091148D02*
X0221963Y0091148D01*
X0224008Y0099528D02*
X0224469Y0099528D01*
X0224469Y0100126D02*
X0223409Y0100126D01*
X0222811Y0100725D02*
X0224469Y0100725D01*
X0224469Y0101323D02*
X0222212Y0101323D01*
X0221614Y0101922D02*
X0224469Y0101922D01*
X0224469Y0102520D02*
X0221015Y0102520D01*
X0220417Y0103119D02*
X0224469Y0103119D01*
X0224469Y0103717D02*
X0219818Y0103717D01*
X0219220Y0104316D02*
X0224469Y0104316D01*
X0224469Y0104914D02*
X0218621Y0104914D01*
X0218023Y0105513D02*
X0224469Y0105513D01*
X0224469Y0106111D02*
X0217500Y0106111D01*
X0217500Y0106710D02*
X0224469Y0106710D01*
X0224469Y0107308D02*
X0217500Y0107308D01*
X0217500Y0107907D02*
X0224469Y0107907D01*
X0224469Y0108505D02*
X0217500Y0108505D01*
X0217500Y0109104D02*
X0224469Y0109104D01*
X0224469Y0109702D02*
X0217500Y0109702D01*
X0217500Y0110301D02*
X0224469Y0110301D01*
X0224469Y0110899D02*
X0217500Y0110899D01*
X0217500Y0111498D02*
X0224469Y0111498D01*
X0224469Y0112096D02*
X0217500Y0112096D01*
X0217500Y0112695D02*
X0224469Y0112695D01*
X0224469Y0113293D02*
X0217500Y0113293D01*
X0217500Y0113892D02*
X0224469Y0113892D01*
X0224469Y0114490D02*
X0217500Y0114490D01*
X0217500Y0115089D02*
X0224469Y0115089D01*
X0224469Y0115687D02*
X0217500Y0115687D01*
X0217500Y0116286D02*
X0224469Y0116286D01*
X0224469Y0116884D02*
X0217500Y0116884D01*
X0217500Y0117483D02*
X0224469Y0117483D01*
X0224469Y0118081D02*
X0217500Y0118081D01*
X0217500Y0118680D02*
X0224469Y0118680D01*
X0224469Y0119278D02*
X0217500Y0119278D01*
X0217500Y0119877D02*
X0224469Y0119877D01*
X0224469Y0120475D02*
X0217500Y0120475D01*
X0217500Y0121074D02*
X0224469Y0121074D01*
X0224469Y0121672D02*
X0217500Y0121672D01*
X0217500Y0122271D02*
X0224469Y0122271D01*
X0224469Y0122870D02*
X0217500Y0122870D01*
X0217500Y0123468D02*
X0224469Y0123468D01*
X0224469Y0124067D02*
X0217500Y0124067D01*
X0217500Y0124665D02*
X0224469Y0124665D01*
X0224469Y0125264D02*
X0217500Y0125264D01*
X0217500Y0125862D02*
X0224469Y0125862D01*
X0224469Y0126461D02*
X0217500Y0126461D01*
X0217500Y0127059D02*
X0224469Y0127059D01*
X0224469Y0127658D02*
X0217500Y0127658D01*
X0217500Y0128256D02*
X0224469Y0128256D01*
X0224469Y0128855D02*
X0217500Y0128855D01*
X0217500Y0129453D02*
X0224469Y0129453D01*
X0224469Y0130052D02*
X0217500Y0130052D01*
X0217500Y0130650D02*
X0224469Y0130650D01*
X0224469Y0131249D02*
X0217500Y0131249D01*
X0217500Y0131847D02*
X0224469Y0131847D01*
X0224469Y0132446D02*
X0217500Y0132446D01*
X0217500Y0133044D02*
X0224359Y0133044D01*
X0224111Y0133643D02*
X0217500Y0133643D01*
X0217500Y0134241D02*
X0224065Y0134241D01*
X0224065Y0134840D02*
X0217500Y0134840D01*
X0217500Y0135438D02*
X0224065Y0135438D01*
X0224065Y0136037D02*
X0217500Y0136037D01*
X0217500Y0136635D02*
X0224295Y0136635D01*
X0224543Y0137234D02*
X0217500Y0137234D01*
X0217500Y0137832D02*
X0224791Y0137832D01*
X0225161Y0138431D02*
X0217500Y0138431D01*
X0217549Y0139029D02*
X0225759Y0139029D01*
X0226358Y0139628D02*
X0218148Y0139628D01*
X0212500Y0119877D02*
X0196422Y0119877D01*
X0197863Y0119278D02*
X0212500Y0119278D01*
X0212500Y0118680D02*
X0198462Y0118680D01*
X0199060Y0118081D02*
X0212500Y0118081D01*
X0212500Y0117483D02*
X0199438Y0117483D01*
X0199686Y0116884D02*
X0212500Y0116884D01*
X0212500Y0116286D02*
X0199933Y0116286D01*
X0200050Y0115687D02*
X0212500Y0115687D01*
X0212500Y0115089D02*
X0200050Y0115089D01*
X0200050Y0114490D02*
X0212500Y0114490D01*
X0212500Y0113892D02*
X0200007Y0113892D01*
X0199818Y0113293D02*
X0212500Y0113293D01*
X0212500Y0112695D02*
X0200416Y0112695D01*
X0201015Y0112096D02*
X0212500Y0112096D01*
X0212500Y0111498D02*
X0201613Y0111498D01*
X0202212Y0110899D02*
X0212500Y0110899D01*
X0212500Y0110301D02*
X0202810Y0110301D01*
X0203409Y0109702D02*
X0212500Y0109702D01*
X0212500Y0109104D02*
X0204007Y0109104D01*
X0204606Y0108505D02*
X0212500Y0108505D01*
X0212500Y0107907D02*
X0205205Y0107907D01*
X0205803Y0107308D02*
X0212500Y0107308D01*
X0212500Y0106710D02*
X0206402Y0106710D01*
X0222668Y0079777D02*
X0223395Y0079777D01*
X0223031Y0075000D02*
X0223031Y0070708D01*
X0221439Y0069116D01*
X0221439Y0067057D01*
X0221063Y0066681D01*
X0223031Y0066681D02*
X0223408Y0067057D01*
X0223408Y0069105D01*
X0228937Y0074634D01*
X0228213Y0070799D02*
X0273100Y0070799D01*
X0226969Y0066681D02*
X0226969Y0043031D01*
X0255000Y0015000D01*
X0251100Y0011546D02*
X0248900Y0011546D01*
X0248302Y0010948D02*
X0251698Y0010948D01*
X0252297Y0010349D02*
X0247703Y0010349D01*
X0249499Y0012145D02*
X0250501Y0012145D01*
X0245000Y0015000D02*
X0225000Y0035000D01*
X0225000Y0066681D01*
X0210501Y0012145D02*
X0209499Y0012145D01*
X0208900Y0011546D02*
X0211100Y0011546D01*
X0211698Y0010948D02*
X0208302Y0010948D01*
X0207703Y0010349D02*
X0212297Y0010349D01*
X0237703Y0010349D02*
X0242297Y0010349D01*
X0241698Y0010948D02*
X0238302Y0010948D01*
X0238900Y0011546D02*
X0241100Y0011546D01*
X0240501Y0012145D02*
X0239499Y0012145D01*
X0263100Y0009152D02*
X0006900Y0009152D01*
X0006900Y0008554D02*
X0263100Y0008554D01*
X0263100Y0007955D02*
X0006900Y0007955D01*
X0006900Y0007357D02*
X0263100Y0007357D01*
D19*
X0228937Y0074634D02*
X0228937Y0083319D01*
X0228937Y0088937D01*
X0230000Y0090000D01*
X0230000Y0100000D01*
X0225000Y0095000D02*
X0215000Y0105000D01*
X0215000Y0140015D01*
X0229902Y0154917D01*
X0229902Y0134917D02*
X0226969Y0131984D01*
X0226969Y0083319D01*
X0225000Y0083319D02*
X0225000Y0095000D01*
X0223031Y0083319D02*
X0223031Y0075000D01*
X0185000Y0075000D01*
D20*
X0185000Y0065000D01*
X0180000Y0060000D01*
X0180000Y0020000D01*
X0175000Y0015000D01*
X0165000Y0015000D01*
X0155000Y0015000D02*
X0170000Y0030000D01*
X0170000Y0060000D01*
X0165000Y0065000D01*
X0165000Y0085000D01*
X0185000Y0085000D02*
X0185000Y0075000D01*
D21*
X0230000Y0100000D03*
X0125000Y0040000D03*
D22*
X0125000Y0060000D01*
X0135000Y0060000D02*
X0135000Y0095000D01*
X0125000Y0095000D02*
X0125000Y0085000D01*
X0120000Y0080000D01*
X0065181Y0080000D01*
X0065098Y0075083D01*
X0065098Y0095083D02*
X0079917Y0095083D01*
X0115000Y0095000D01*
X0125000Y0095000D02*
X0125000Y0110000D01*
X0135000Y0120000D01*
X0140000Y0120000D01*
X0140000Y0180000D01*
X0109000Y0180000D01*
X0109000Y0205000D01*
X0140000Y0120000D02*
X0180000Y0120000D01*
X0185000Y0115000D01*
X0185000Y0085000D01*
M02*
