G75*
%MOIN*%
%OFA0B0*%
%FSLAX25Y25*%
%IPPOS*%
%LPD*%
%AMOC8*
5,1,8,0,0,1.08239X$1,22.5*
%
%ADD10C,0.00600*%
%ADD11C,0.01200*%
%ADD12C,0.00500*%
%ADD13C,0.00800*%
%ADD14C,0.00200*%
%ADD15C,0.00700*%
%ADD16C,0.00400*%
%ADD17R,0.05000X0.03500*%
%ADD18C,0.00000*%
%ADD19C,0.00300*%
D10*
X0120000Y0057500D02*
X0122500Y0055000D01*
X0127500Y0055000D01*
X0130000Y0057500D01*
X0132500Y0055000D01*
X0137500Y0055000D01*
X0140000Y0057500D01*
X0140000Y0062500D01*
X0137500Y0065000D01*
X0132500Y0065000D01*
X0130000Y0062500D01*
X0130000Y0057500D01*
X0130000Y0062500D02*
X0127500Y0065000D01*
X0122500Y0065000D01*
X0120000Y0062500D01*
X0120000Y0057500D01*
X0163000Y0060000D02*
X0166000Y0060000D01*
X0164500Y0058500D02*
X0164500Y0061500D01*
X0161500Y0060000D02*
X0161504Y0060331D01*
X0161516Y0060662D01*
X0161537Y0060993D01*
X0161565Y0061323D01*
X0161602Y0061653D01*
X0161646Y0061981D01*
X0161699Y0062308D01*
X0161759Y0062634D01*
X0161828Y0062958D01*
X0161905Y0063280D01*
X0161989Y0063601D01*
X0162081Y0063919D01*
X0162181Y0064235D01*
X0162289Y0064548D01*
X0162405Y0064859D01*
X0162528Y0065166D01*
X0162658Y0065471D01*
X0162796Y0065772D01*
X0162941Y0066070D01*
X0163094Y0066364D01*
X0163254Y0066654D01*
X0163421Y0066940D01*
X0163594Y0067222D01*
X0163775Y0067500D01*
X0163963Y0067773D01*
X0164157Y0068042D01*
X0164357Y0068306D01*
X0164564Y0068564D01*
X0164778Y0068818D01*
X0164997Y0069066D01*
X0165223Y0069309D01*
X0165454Y0069546D01*
X0165691Y0069777D01*
X0165934Y0070003D01*
X0166182Y0070222D01*
X0166436Y0070436D01*
X0166694Y0070643D01*
X0166958Y0070843D01*
X0167227Y0071037D01*
X0167500Y0071225D01*
X0167778Y0071406D01*
X0168060Y0071579D01*
X0168346Y0071746D01*
X0168636Y0071906D01*
X0168930Y0072059D01*
X0169228Y0072204D01*
X0169529Y0072342D01*
X0169834Y0072472D01*
X0170141Y0072595D01*
X0170452Y0072711D01*
X0170765Y0072819D01*
X0171081Y0072919D01*
X0171399Y0073011D01*
X0171720Y0073095D01*
X0172042Y0073172D01*
X0172366Y0073241D01*
X0172692Y0073301D01*
X0173019Y0073354D01*
X0173347Y0073398D01*
X0173677Y0073435D01*
X0174007Y0073463D01*
X0174338Y0073484D01*
X0174669Y0073496D01*
X0175000Y0073500D01*
X0175331Y0073496D01*
X0175662Y0073484D01*
X0175993Y0073463D01*
X0176323Y0073435D01*
X0176653Y0073398D01*
X0176981Y0073354D01*
X0177308Y0073301D01*
X0177634Y0073241D01*
X0177958Y0073172D01*
X0178280Y0073095D01*
X0178601Y0073011D01*
X0178919Y0072919D01*
X0179235Y0072819D01*
X0179548Y0072711D01*
X0179859Y0072595D01*
X0180166Y0072472D01*
X0180471Y0072342D01*
X0180772Y0072204D01*
X0181070Y0072059D01*
X0181364Y0071906D01*
X0181654Y0071746D01*
X0181940Y0071579D01*
X0182222Y0071406D01*
X0182500Y0071225D01*
X0182773Y0071037D01*
X0183042Y0070843D01*
X0183306Y0070643D01*
X0183564Y0070436D01*
X0183818Y0070222D01*
X0184066Y0070003D01*
X0184309Y0069777D01*
X0184546Y0069546D01*
X0184777Y0069309D01*
X0185003Y0069066D01*
X0185222Y0068818D01*
X0185436Y0068564D01*
X0185643Y0068306D01*
X0185843Y0068042D01*
X0186037Y0067773D01*
X0186225Y0067500D01*
X0186406Y0067222D01*
X0186579Y0066940D01*
X0186746Y0066654D01*
X0186906Y0066364D01*
X0187059Y0066070D01*
X0187204Y0065772D01*
X0187342Y0065471D01*
X0187472Y0065166D01*
X0187595Y0064859D01*
X0187711Y0064548D01*
X0187819Y0064235D01*
X0187919Y0063919D01*
X0188011Y0063601D01*
X0188095Y0063280D01*
X0188172Y0062958D01*
X0188241Y0062634D01*
X0188301Y0062308D01*
X0188354Y0061981D01*
X0188398Y0061653D01*
X0188435Y0061323D01*
X0188463Y0060993D01*
X0188484Y0060662D01*
X0188496Y0060331D01*
X0188500Y0060000D01*
X0188496Y0059669D01*
X0188484Y0059338D01*
X0188463Y0059007D01*
X0188435Y0058677D01*
X0188398Y0058347D01*
X0188354Y0058019D01*
X0188301Y0057692D01*
X0188241Y0057366D01*
X0188172Y0057042D01*
X0188095Y0056720D01*
X0188011Y0056399D01*
X0187919Y0056081D01*
X0187819Y0055765D01*
X0187711Y0055452D01*
X0187595Y0055141D01*
X0187472Y0054834D01*
X0187342Y0054529D01*
X0187204Y0054228D01*
X0187059Y0053930D01*
X0186906Y0053636D01*
X0186746Y0053346D01*
X0186579Y0053060D01*
X0186406Y0052778D01*
X0186225Y0052500D01*
X0186037Y0052227D01*
X0185843Y0051958D01*
X0185643Y0051694D01*
X0185436Y0051436D01*
X0185222Y0051182D01*
X0185003Y0050934D01*
X0184777Y0050691D01*
X0184546Y0050454D01*
X0184309Y0050223D01*
X0184066Y0049997D01*
X0183818Y0049778D01*
X0183564Y0049564D01*
X0183306Y0049357D01*
X0183042Y0049157D01*
X0182773Y0048963D01*
X0182500Y0048775D01*
X0182222Y0048594D01*
X0181940Y0048421D01*
X0181654Y0048254D01*
X0181364Y0048094D01*
X0181070Y0047941D01*
X0180772Y0047796D01*
X0180471Y0047658D01*
X0180166Y0047528D01*
X0179859Y0047405D01*
X0179548Y0047289D01*
X0179235Y0047181D01*
X0178919Y0047081D01*
X0178601Y0046989D01*
X0178280Y0046905D01*
X0177958Y0046828D01*
X0177634Y0046759D01*
X0177308Y0046699D01*
X0176981Y0046646D01*
X0176653Y0046602D01*
X0176323Y0046565D01*
X0175993Y0046537D01*
X0175662Y0046516D01*
X0175331Y0046504D01*
X0175000Y0046500D01*
X0174669Y0046504D01*
X0174338Y0046516D01*
X0174007Y0046537D01*
X0173677Y0046565D01*
X0173347Y0046602D01*
X0173019Y0046646D01*
X0172692Y0046699D01*
X0172366Y0046759D01*
X0172042Y0046828D01*
X0171720Y0046905D01*
X0171399Y0046989D01*
X0171081Y0047081D01*
X0170765Y0047181D01*
X0170452Y0047289D01*
X0170141Y0047405D01*
X0169834Y0047528D01*
X0169529Y0047658D01*
X0169228Y0047796D01*
X0168930Y0047941D01*
X0168636Y0048094D01*
X0168346Y0048254D01*
X0168060Y0048421D01*
X0167778Y0048594D01*
X0167500Y0048775D01*
X0167227Y0048963D01*
X0166958Y0049157D01*
X0166694Y0049357D01*
X0166436Y0049564D01*
X0166182Y0049778D01*
X0165934Y0049997D01*
X0165691Y0050223D01*
X0165454Y0050454D01*
X0165223Y0050691D01*
X0164997Y0050934D01*
X0164778Y0051182D01*
X0164564Y0051436D01*
X0164357Y0051694D01*
X0164157Y0051958D01*
X0163963Y0052227D01*
X0163775Y0052500D01*
X0163594Y0052778D01*
X0163421Y0053060D01*
X0163254Y0053346D01*
X0163094Y0053636D01*
X0162941Y0053930D01*
X0162796Y0054228D01*
X0162658Y0054529D01*
X0162528Y0054834D01*
X0162405Y0055141D01*
X0162289Y0055452D01*
X0162181Y0055765D01*
X0162081Y0056081D01*
X0161989Y0056399D01*
X0161905Y0056720D01*
X0161828Y0057042D01*
X0161759Y0057366D01*
X0161699Y0057692D01*
X0161646Y0058019D01*
X0161602Y0058347D01*
X0161565Y0058677D01*
X0161537Y0059007D01*
X0161516Y0059338D01*
X0161504Y0059669D01*
X0161500Y0060000D01*
X0168500Y0080500D02*
X0181500Y0080500D01*
X0181587Y0080502D01*
X0181674Y0080508D01*
X0181761Y0080517D01*
X0181847Y0080530D01*
X0181933Y0080547D01*
X0182018Y0080568D01*
X0182101Y0080593D01*
X0182184Y0080621D01*
X0182265Y0080652D01*
X0182345Y0080687D01*
X0182423Y0080726D01*
X0182500Y0080768D01*
X0182575Y0080813D01*
X0182647Y0080862D01*
X0182718Y0080913D01*
X0182786Y0080968D01*
X0182851Y0081025D01*
X0182914Y0081086D01*
X0182975Y0081149D01*
X0183032Y0081214D01*
X0183087Y0081282D01*
X0183138Y0081353D01*
X0183187Y0081425D01*
X0183232Y0081500D01*
X0183274Y0081577D01*
X0183313Y0081655D01*
X0183348Y0081735D01*
X0183379Y0081816D01*
X0183407Y0081899D01*
X0183432Y0081982D01*
X0183453Y0082067D01*
X0183470Y0082153D01*
X0183483Y0082239D01*
X0183492Y0082326D01*
X0183498Y0082413D01*
X0183500Y0082500D01*
X0180000Y0085000D02*
X0176300Y0085000D01*
X0173800Y0085000D02*
X0170000Y0085000D01*
X0166500Y0082500D02*
X0166502Y0082413D01*
X0166508Y0082326D01*
X0166517Y0082239D01*
X0166530Y0082153D01*
X0166547Y0082067D01*
X0166568Y0081982D01*
X0166593Y0081899D01*
X0166621Y0081816D01*
X0166652Y0081735D01*
X0166687Y0081655D01*
X0166726Y0081577D01*
X0166768Y0081500D01*
X0166813Y0081425D01*
X0166862Y0081353D01*
X0166913Y0081282D01*
X0166968Y0081214D01*
X0167025Y0081149D01*
X0167086Y0081086D01*
X0167149Y0081025D01*
X0167214Y0080968D01*
X0167282Y0080913D01*
X0167353Y0080862D01*
X0167425Y0080813D01*
X0167500Y0080768D01*
X0167577Y0080726D01*
X0167655Y0080687D01*
X0167735Y0080652D01*
X0167816Y0080621D01*
X0167899Y0080593D01*
X0167982Y0080568D01*
X0168067Y0080547D01*
X0168153Y0080530D01*
X0168239Y0080517D01*
X0168326Y0080508D01*
X0168413Y0080502D01*
X0168500Y0080500D01*
X0166500Y0087500D02*
X0166502Y0087587D01*
X0166508Y0087674D01*
X0166517Y0087761D01*
X0166530Y0087847D01*
X0166547Y0087933D01*
X0166568Y0088018D01*
X0166593Y0088101D01*
X0166621Y0088184D01*
X0166652Y0088265D01*
X0166687Y0088345D01*
X0166726Y0088423D01*
X0166768Y0088500D01*
X0166813Y0088575D01*
X0166862Y0088647D01*
X0166913Y0088718D01*
X0166968Y0088786D01*
X0167025Y0088851D01*
X0167086Y0088914D01*
X0167149Y0088975D01*
X0167214Y0089032D01*
X0167282Y0089087D01*
X0167353Y0089138D01*
X0167425Y0089187D01*
X0167500Y0089232D01*
X0167577Y0089274D01*
X0167655Y0089313D01*
X0167735Y0089348D01*
X0167816Y0089379D01*
X0167899Y0089407D01*
X0167982Y0089432D01*
X0168067Y0089453D01*
X0168153Y0089470D01*
X0168239Y0089483D01*
X0168326Y0089492D01*
X0168413Y0089498D01*
X0168500Y0089500D01*
X0181500Y0089500D01*
X0181587Y0089498D01*
X0181674Y0089492D01*
X0181761Y0089483D01*
X0181847Y0089470D01*
X0181933Y0089453D01*
X0182018Y0089432D01*
X0182101Y0089407D01*
X0182184Y0089379D01*
X0182265Y0089348D01*
X0182345Y0089313D01*
X0182423Y0089274D01*
X0182500Y0089232D01*
X0182575Y0089187D01*
X0182647Y0089138D01*
X0182718Y0089087D01*
X0182786Y0089032D01*
X0182851Y0088975D01*
X0182914Y0088914D01*
X0182975Y0088851D01*
X0183032Y0088786D01*
X0183087Y0088718D01*
X0183138Y0088647D01*
X0183187Y0088575D01*
X0183232Y0088500D01*
X0183274Y0088423D01*
X0183313Y0088345D01*
X0183348Y0088265D01*
X0183379Y0088184D01*
X0183407Y0088101D01*
X0183432Y0088018D01*
X0183453Y0087933D01*
X0183470Y0087847D01*
X0183483Y0087761D01*
X0183492Y0087674D01*
X0183498Y0087587D01*
X0183500Y0087500D01*
X0200500Y0113500D02*
X0200500Y0116500D01*
X0202000Y0115000D02*
X0199000Y0115000D01*
X0176500Y0115000D02*
X0176504Y0115331D01*
X0176516Y0115662D01*
X0176537Y0115993D01*
X0176565Y0116323D01*
X0176602Y0116653D01*
X0176646Y0116981D01*
X0176699Y0117308D01*
X0176759Y0117634D01*
X0176828Y0117958D01*
X0176905Y0118280D01*
X0176989Y0118601D01*
X0177081Y0118919D01*
X0177181Y0119235D01*
X0177289Y0119548D01*
X0177405Y0119859D01*
X0177528Y0120166D01*
X0177658Y0120471D01*
X0177796Y0120772D01*
X0177941Y0121070D01*
X0178094Y0121364D01*
X0178254Y0121654D01*
X0178421Y0121940D01*
X0178594Y0122222D01*
X0178775Y0122500D01*
X0178963Y0122773D01*
X0179157Y0123042D01*
X0179357Y0123306D01*
X0179564Y0123564D01*
X0179778Y0123818D01*
X0179997Y0124066D01*
X0180223Y0124309D01*
X0180454Y0124546D01*
X0180691Y0124777D01*
X0180934Y0125003D01*
X0181182Y0125222D01*
X0181436Y0125436D01*
X0181694Y0125643D01*
X0181958Y0125843D01*
X0182227Y0126037D01*
X0182500Y0126225D01*
X0182778Y0126406D01*
X0183060Y0126579D01*
X0183346Y0126746D01*
X0183636Y0126906D01*
X0183930Y0127059D01*
X0184228Y0127204D01*
X0184529Y0127342D01*
X0184834Y0127472D01*
X0185141Y0127595D01*
X0185452Y0127711D01*
X0185765Y0127819D01*
X0186081Y0127919D01*
X0186399Y0128011D01*
X0186720Y0128095D01*
X0187042Y0128172D01*
X0187366Y0128241D01*
X0187692Y0128301D01*
X0188019Y0128354D01*
X0188347Y0128398D01*
X0188677Y0128435D01*
X0189007Y0128463D01*
X0189338Y0128484D01*
X0189669Y0128496D01*
X0190000Y0128500D01*
X0190331Y0128496D01*
X0190662Y0128484D01*
X0190993Y0128463D01*
X0191323Y0128435D01*
X0191653Y0128398D01*
X0191981Y0128354D01*
X0192308Y0128301D01*
X0192634Y0128241D01*
X0192958Y0128172D01*
X0193280Y0128095D01*
X0193601Y0128011D01*
X0193919Y0127919D01*
X0194235Y0127819D01*
X0194548Y0127711D01*
X0194859Y0127595D01*
X0195166Y0127472D01*
X0195471Y0127342D01*
X0195772Y0127204D01*
X0196070Y0127059D01*
X0196364Y0126906D01*
X0196654Y0126746D01*
X0196940Y0126579D01*
X0197222Y0126406D01*
X0197500Y0126225D01*
X0197773Y0126037D01*
X0198042Y0125843D01*
X0198306Y0125643D01*
X0198564Y0125436D01*
X0198818Y0125222D01*
X0199066Y0125003D01*
X0199309Y0124777D01*
X0199546Y0124546D01*
X0199777Y0124309D01*
X0200003Y0124066D01*
X0200222Y0123818D01*
X0200436Y0123564D01*
X0200643Y0123306D01*
X0200843Y0123042D01*
X0201037Y0122773D01*
X0201225Y0122500D01*
X0201406Y0122222D01*
X0201579Y0121940D01*
X0201746Y0121654D01*
X0201906Y0121364D01*
X0202059Y0121070D01*
X0202204Y0120772D01*
X0202342Y0120471D01*
X0202472Y0120166D01*
X0202595Y0119859D01*
X0202711Y0119548D01*
X0202819Y0119235D01*
X0202919Y0118919D01*
X0203011Y0118601D01*
X0203095Y0118280D01*
X0203172Y0117958D01*
X0203241Y0117634D01*
X0203301Y0117308D01*
X0203354Y0116981D01*
X0203398Y0116653D01*
X0203435Y0116323D01*
X0203463Y0115993D01*
X0203484Y0115662D01*
X0203496Y0115331D01*
X0203500Y0115000D01*
X0203496Y0114669D01*
X0203484Y0114338D01*
X0203463Y0114007D01*
X0203435Y0113677D01*
X0203398Y0113347D01*
X0203354Y0113019D01*
X0203301Y0112692D01*
X0203241Y0112366D01*
X0203172Y0112042D01*
X0203095Y0111720D01*
X0203011Y0111399D01*
X0202919Y0111081D01*
X0202819Y0110765D01*
X0202711Y0110452D01*
X0202595Y0110141D01*
X0202472Y0109834D01*
X0202342Y0109529D01*
X0202204Y0109228D01*
X0202059Y0108930D01*
X0201906Y0108636D01*
X0201746Y0108346D01*
X0201579Y0108060D01*
X0201406Y0107778D01*
X0201225Y0107500D01*
X0201037Y0107227D01*
X0200843Y0106958D01*
X0200643Y0106694D01*
X0200436Y0106436D01*
X0200222Y0106182D01*
X0200003Y0105934D01*
X0199777Y0105691D01*
X0199546Y0105454D01*
X0199309Y0105223D01*
X0199066Y0104997D01*
X0198818Y0104778D01*
X0198564Y0104564D01*
X0198306Y0104357D01*
X0198042Y0104157D01*
X0197773Y0103963D01*
X0197500Y0103775D01*
X0197222Y0103594D01*
X0196940Y0103421D01*
X0196654Y0103254D01*
X0196364Y0103094D01*
X0196070Y0102941D01*
X0195772Y0102796D01*
X0195471Y0102658D01*
X0195166Y0102528D01*
X0194859Y0102405D01*
X0194548Y0102289D01*
X0194235Y0102181D01*
X0193919Y0102081D01*
X0193601Y0101989D01*
X0193280Y0101905D01*
X0192958Y0101828D01*
X0192634Y0101759D01*
X0192308Y0101699D01*
X0191981Y0101646D01*
X0191653Y0101602D01*
X0191323Y0101565D01*
X0190993Y0101537D01*
X0190662Y0101516D01*
X0190331Y0101504D01*
X0190000Y0101500D01*
X0189669Y0101504D01*
X0189338Y0101516D01*
X0189007Y0101537D01*
X0188677Y0101565D01*
X0188347Y0101602D01*
X0188019Y0101646D01*
X0187692Y0101699D01*
X0187366Y0101759D01*
X0187042Y0101828D01*
X0186720Y0101905D01*
X0186399Y0101989D01*
X0186081Y0102081D01*
X0185765Y0102181D01*
X0185452Y0102289D01*
X0185141Y0102405D01*
X0184834Y0102528D01*
X0184529Y0102658D01*
X0184228Y0102796D01*
X0183930Y0102941D01*
X0183636Y0103094D01*
X0183346Y0103254D01*
X0183060Y0103421D01*
X0182778Y0103594D01*
X0182500Y0103775D01*
X0182227Y0103963D01*
X0181958Y0104157D01*
X0181694Y0104357D01*
X0181436Y0104564D01*
X0181182Y0104778D01*
X0180934Y0104997D01*
X0180691Y0105223D01*
X0180454Y0105454D01*
X0180223Y0105691D01*
X0179997Y0105934D01*
X0179778Y0106182D01*
X0179564Y0106436D01*
X0179357Y0106694D01*
X0179157Y0106958D01*
X0178963Y0107227D01*
X0178775Y0107500D01*
X0178594Y0107778D01*
X0178421Y0108060D01*
X0178254Y0108346D01*
X0178094Y0108636D01*
X0177941Y0108930D01*
X0177796Y0109228D01*
X0177658Y0109529D01*
X0177528Y0109834D01*
X0177405Y0110141D01*
X0177289Y0110452D01*
X0177181Y0110765D01*
X0177081Y0111081D01*
X0176989Y0111399D01*
X0176905Y0111720D01*
X0176828Y0112042D01*
X0176759Y0112366D01*
X0176699Y0112692D01*
X0176646Y0113019D01*
X0176602Y0113347D01*
X0176565Y0113677D01*
X0176537Y0114007D01*
X0176516Y0114338D01*
X0176504Y0114669D01*
X0176500Y0115000D01*
X0145500Y0105000D02*
X0145500Y0154000D01*
X0142000Y0154000D01*
X0142000Y0160000D01*
X0145500Y0160000D01*
X0145500Y0167500D01*
X0104500Y0167500D01*
X0104500Y0160000D01*
X0108000Y0160000D01*
X0108000Y0154000D01*
X0104500Y0154000D01*
X0104500Y0105000D01*
X0145500Y0105000D01*
X0117900Y0154000D02*
X0117902Y0154174D01*
X0117909Y0154348D01*
X0117919Y0154522D01*
X0117934Y0154696D01*
X0117953Y0154869D01*
X0117977Y0155042D01*
X0118005Y0155214D01*
X0118036Y0155385D01*
X0118073Y0155556D01*
X0118113Y0155725D01*
X0118157Y0155894D01*
X0118206Y0156061D01*
X0118258Y0156227D01*
X0118315Y0156392D01*
X0118376Y0156555D01*
X0118440Y0156717D01*
X0118509Y0156877D01*
X0118582Y0157036D01*
X0118658Y0157192D01*
X0118738Y0157347D01*
X0118822Y0157500D01*
X0118910Y0157650D01*
X0119002Y0157798D01*
X0119097Y0157945D01*
X0119195Y0158088D01*
X0119297Y0158229D01*
X0119403Y0158368D01*
X0119512Y0158504D01*
X0119624Y0158638D01*
X0119739Y0158768D01*
X0119858Y0158896D01*
X0119980Y0159020D01*
X0120104Y0159142D01*
X0120232Y0159261D01*
X0120362Y0159376D01*
X0120496Y0159488D01*
X0120632Y0159597D01*
X0120771Y0159703D01*
X0120912Y0159805D01*
X0121055Y0159903D01*
X0121202Y0159998D01*
X0121350Y0160090D01*
X0121500Y0160178D01*
X0121653Y0160262D01*
X0121808Y0160342D01*
X0121964Y0160418D01*
X0122123Y0160491D01*
X0122283Y0160560D01*
X0122445Y0160624D01*
X0122608Y0160685D01*
X0122773Y0160742D01*
X0122939Y0160794D01*
X0123106Y0160843D01*
X0123275Y0160887D01*
X0123444Y0160927D01*
X0123615Y0160964D01*
X0123786Y0160995D01*
X0123958Y0161023D01*
X0124131Y0161047D01*
X0124304Y0161066D01*
X0124478Y0161081D01*
X0124652Y0161091D01*
X0124826Y0161098D01*
X0125000Y0161100D01*
X0125174Y0161098D01*
X0125348Y0161091D01*
X0125522Y0161081D01*
X0125696Y0161066D01*
X0125869Y0161047D01*
X0126042Y0161023D01*
X0126214Y0160995D01*
X0126385Y0160964D01*
X0126556Y0160927D01*
X0126725Y0160887D01*
X0126894Y0160843D01*
X0127061Y0160794D01*
X0127227Y0160742D01*
X0127392Y0160685D01*
X0127555Y0160624D01*
X0127717Y0160560D01*
X0127877Y0160491D01*
X0128036Y0160418D01*
X0128192Y0160342D01*
X0128347Y0160262D01*
X0128500Y0160178D01*
X0128650Y0160090D01*
X0128798Y0159998D01*
X0128945Y0159903D01*
X0129088Y0159805D01*
X0129229Y0159703D01*
X0129368Y0159597D01*
X0129504Y0159488D01*
X0129638Y0159376D01*
X0129768Y0159261D01*
X0129896Y0159142D01*
X0130020Y0159020D01*
X0130142Y0158896D01*
X0130261Y0158768D01*
X0130376Y0158638D01*
X0130488Y0158504D01*
X0130597Y0158368D01*
X0130703Y0158229D01*
X0130805Y0158088D01*
X0130903Y0157945D01*
X0130998Y0157798D01*
X0131090Y0157650D01*
X0131178Y0157500D01*
X0131262Y0157347D01*
X0131342Y0157192D01*
X0131418Y0157036D01*
X0131491Y0156877D01*
X0131560Y0156717D01*
X0131624Y0156555D01*
X0131685Y0156392D01*
X0131742Y0156227D01*
X0131794Y0156061D01*
X0131843Y0155894D01*
X0131887Y0155725D01*
X0131927Y0155556D01*
X0131964Y0155385D01*
X0131995Y0155214D01*
X0132023Y0155042D01*
X0132047Y0154869D01*
X0132066Y0154696D01*
X0132081Y0154522D01*
X0132091Y0154348D01*
X0132098Y0154174D01*
X0132100Y0154000D01*
X0132098Y0153826D01*
X0132091Y0153652D01*
X0132081Y0153478D01*
X0132066Y0153304D01*
X0132047Y0153131D01*
X0132023Y0152958D01*
X0131995Y0152786D01*
X0131964Y0152615D01*
X0131927Y0152444D01*
X0131887Y0152275D01*
X0131843Y0152106D01*
X0131794Y0151939D01*
X0131742Y0151773D01*
X0131685Y0151608D01*
X0131624Y0151445D01*
X0131560Y0151283D01*
X0131491Y0151123D01*
X0131418Y0150964D01*
X0131342Y0150808D01*
X0131262Y0150653D01*
X0131178Y0150500D01*
X0131090Y0150350D01*
X0130998Y0150202D01*
X0130903Y0150055D01*
X0130805Y0149912D01*
X0130703Y0149771D01*
X0130597Y0149632D01*
X0130488Y0149496D01*
X0130376Y0149362D01*
X0130261Y0149232D01*
X0130142Y0149104D01*
X0130020Y0148980D01*
X0129896Y0148858D01*
X0129768Y0148739D01*
X0129638Y0148624D01*
X0129504Y0148512D01*
X0129368Y0148403D01*
X0129229Y0148297D01*
X0129088Y0148195D01*
X0128945Y0148097D01*
X0128798Y0148002D01*
X0128650Y0147910D01*
X0128500Y0147822D01*
X0128347Y0147738D01*
X0128192Y0147658D01*
X0128036Y0147582D01*
X0127877Y0147509D01*
X0127717Y0147440D01*
X0127555Y0147376D01*
X0127392Y0147315D01*
X0127227Y0147258D01*
X0127061Y0147206D01*
X0126894Y0147157D01*
X0126725Y0147113D01*
X0126556Y0147073D01*
X0126385Y0147036D01*
X0126214Y0147005D01*
X0126042Y0146977D01*
X0125869Y0146953D01*
X0125696Y0146934D01*
X0125522Y0146919D01*
X0125348Y0146909D01*
X0125174Y0146902D01*
X0125000Y0146900D01*
X0124826Y0146902D01*
X0124652Y0146909D01*
X0124478Y0146919D01*
X0124304Y0146934D01*
X0124131Y0146953D01*
X0123958Y0146977D01*
X0123786Y0147005D01*
X0123615Y0147036D01*
X0123444Y0147073D01*
X0123275Y0147113D01*
X0123106Y0147157D01*
X0122939Y0147206D01*
X0122773Y0147258D01*
X0122608Y0147315D01*
X0122445Y0147376D01*
X0122283Y0147440D01*
X0122123Y0147509D01*
X0121964Y0147582D01*
X0121808Y0147658D01*
X0121653Y0147738D01*
X0121500Y0147822D01*
X0121350Y0147910D01*
X0121202Y0148002D01*
X0121055Y0148097D01*
X0120912Y0148195D01*
X0120771Y0148297D01*
X0120632Y0148403D01*
X0120496Y0148512D01*
X0120362Y0148624D01*
X0120232Y0148739D01*
X0120104Y0148858D01*
X0119980Y0148980D01*
X0119858Y0149104D01*
X0119739Y0149232D01*
X0119624Y0149362D01*
X0119512Y0149496D01*
X0119403Y0149632D01*
X0119297Y0149771D01*
X0119195Y0149912D01*
X0119097Y0150055D01*
X0119002Y0150202D01*
X0118910Y0150350D01*
X0118822Y0150500D01*
X0118738Y0150653D01*
X0118658Y0150808D01*
X0118582Y0150964D01*
X0118509Y0151123D01*
X0118440Y0151283D01*
X0118376Y0151445D01*
X0118315Y0151608D01*
X0118258Y0151773D01*
X0118206Y0151939D01*
X0118157Y0152106D01*
X0118113Y0152275D01*
X0118073Y0152444D01*
X0118036Y0152615D01*
X0118005Y0152786D01*
X0117977Y0152958D01*
X0117953Y0153131D01*
X0117934Y0153304D01*
X0117919Y0153478D01*
X0117909Y0153652D01*
X0117902Y0153826D01*
X0117900Y0154000D01*
D11*
X0173800Y0088000D02*
X0173800Y0085000D01*
X0173800Y0082000D01*
X0176300Y0082000D02*
X0176300Y0085000D01*
X0176300Y0088000D01*
D12*
X0174356Y0090750D02*
X0171354Y0090750D01*
X0172855Y0090750D02*
X0172855Y0095254D01*
X0171354Y0093753D01*
X0169753Y0094503D02*
X0169002Y0095254D01*
X0167501Y0095254D01*
X0166750Y0094503D01*
X0166750Y0091501D01*
X0167501Y0090750D01*
X0169002Y0090750D01*
X0169753Y0091501D01*
X0169793Y0102250D02*
X0171294Y0102250D01*
X0172045Y0103001D01*
X0173646Y0103001D02*
X0174397Y0102250D01*
X0175898Y0102250D01*
X0176649Y0103001D01*
X0176649Y0103751D01*
X0175898Y0104502D01*
X0175147Y0104502D01*
X0175898Y0104502D02*
X0176649Y0105253D01*
X0176649Y0106003D01*
X0175898Y0106754D01*
X0174397Y0106754D01*
X0173646Y0106003D01*
X0172045Y0106003D02*
X0171294Y0106754D01*
X0169793Y0106754D01*
X0169042Y0106003D01*
X0169042Y0103001D01*
X0169793Y0102250D01*
X0188001Y0072754D02*
X0187250Y0072003D01*
X0187250Y0069001D01*
X0188001Y0068250D01*
X0189502Y0068250D01*
X0190253Y0069001D01*
X0191854Y0068250D02*
X0194856Y0071253D01*
X0194856Y0072003D01*
X0194106Y0072754D01*
X0192605Y0072754D01*
X0191854Y0072003D01*
X0190253Y0072003D02*
X0189502Y0072754D01*
X0188001Y0072754D01*
X0191854Y0068250D02*
X0194856Y0068250D01*
X0233246Y0072973D02*
X0233246Y0074474D01*
X0233246Y0073723D02*
X0237750Y0073723D01*
X0237750Y0072973D02*
X0237750Y0074474D01*
X0236999Y0076042D02*
X0233997Y0076042D01*
X0233246Y0076793D01*
X0233246Y0078294D01*
X0233997Y0079045D01*
X0234747Y0080646D02*
X0233246Y0082147D01*
X0237750Y0082147D01*
X0237750Y0080646D02*
X0237750Y0083649D01*
X0236999Y0079045D02*
X0237750Y0078294D01*
X0237750Y0076793D01*
X0236999Y0076042D01*
X0132160Y0067450D02*
X0129158Y0067450D01*
X0130659Y0067450D02*
X0130659Y0071954D01*
X0129158Y0070453D01*
X0127556Y0071203D02*
X0127556Y0069702D01*
X0126806Y0068951D01*
X0124554Y0068951D01*
X0124554Y0067450D02*
X0124554Y0071954D01*
X0126806Y0071954D01*
X0127556Y0071203D01*
X0122953Y0071954D02*
X0121451Y0071954D01*
X0122202Y0071954D02*
X0122202Y0068201D01*
X0121451Y0067450D01*
X0120701Y0067450D01*
X0119950Y0068201D01*
D13*
X0080945Y0065083D02*
X0080945Y0105083D01*
X0074938Y0105083D01*
X0073037Y0105083D01*
X0057301Y0105083D01*
X0055363Y0105083D01*
X0055363Y0065083D01*
X0052685Y0065083D01*
X0050236Y0065083D01*
X0049055Y0065083D01*
X0049055Y0105083D01*
X0050236Y0105083D01*
X0050236Y0065083D01*
X0052685Y0065083D02*
X0052685Y0105083D01*
X0051902Y0105083D01*
X0050236Y0105083D01*
X0051311Y0106292D02*
X0051902Y0105590D01*
X0051902Y0105083D01*
X0052685Y0105083D02*
X0053531Y0105083D01*
X0055363Y0105083D01*
X0054122Y0106292D02*
X0053531Y0105590D01*
X0053531Y0105083D01*
X0054122Y0106292D02*
X0054122Y0107327D01*
X0051311Y0107327D01*
X0051311Y0106292D01*
X0057559Y0095083D02*
X0057561Y0095268D01*
X0057568Y0095453D01*
X0057579Y0095638D01*
X0057595Y0095822D01*
X0057616Y0096006D01*
X0057641Y0096189D01*
X0057670Y0096372D01*
X0057704Y0096554D01*
X0057742Y0096735D01*
X0057785Y0096915D01*
X0057832Y0097094D01*
X0057884Y0097271D01*
X0057940Y0097448D01*
X0058000Y0097623D01*
X0058064Y0097796D01*
X0058133Y0097968D01*
X0058206Y0098138D01*
X0058283Y0098306D01*
X0058364Y0098473D01*
X0058449Y0098637D01*
X0058538Y0098799D01*
X0058632Y0098959D01*
X0058729Y0099116D01*
X0058830Y0099271D01*
X0058934Y0099424D01*
X0059043Y0099574D01*
X0059155Y0099721D01*
X0059270Y0099866D01*
X0059389Y0100007D01*
X0059512Y0100146D01*
X0059638Y0100281D01*
X0059767Y0100414D01*
X0059900Y0100543D01*
X0060035Y0100669D01*
X0060174Y0100792D01*
X0060315Y0100911D01*
X0060460Y0101026D01*
X0060607Y0101138D01*
X0060757Y0101247D01*
X0060910Y0101351D01*
X0061065Y0101452D01*
X0061222Y0101549D01*
X0061382Y0101643D01*
X0061544Y0101732D01*
X0061708Y0101817D01*
X0061875Y0101898D01*
X0062043Y0101975D01*
X0062213Y0102048D01*
X0062385Y0102117D01*
X0062558Y0102181D01*
X0062733Y0102241D01*
X0062910Y0102297D01*
X0063087Y0102349D01*
X0063266Y0102396D01*
X0063446Y0102439D01*
X0063627Y0102477D01*
X0063809Y0102511D01*
X0063992Y0102540D01*
X0064175Y0102565D01*
X0064359Y0102586D01*
X0064543Y0102602D01*
X0064728Y0102613D01*
X0064913Y0102620D01*
X0065098Y0102622D01*
X0065283Y0102620D01*
X0065468Y0102613D01*
X0065653Y0102602D01*
X0065837Y0102586D01*
X0066021Y0102565D01*
X0066204Y0102540D01*
X0066387Y0102511D01*
X0066569Y0102477D01*
X0066750Y0102439D01*
X0066930Y0102396D01*
X0067109Y0102349D01*
X0067286Y0102297D01*
X0067463Y0102241D01*
X0067638Y0102181D01*
X0067811Y0102117D01*
X0067983Y0102048D01*
X0068153Y0101975D01*
X0068321Y0101898D01*
X0068488Y0101817D01*
X0068652Y0101732D01*
X0068814Y0101643D01*
X0068974Y0101549D01*
X0069131Y0101452D01*
X0069286Y0101351D01*
X0069439Y0101247D01*
X0069589Y0101138D01*
X0069736Y0101026D01*
X0069881Y0100911D01*
X0070022Y0100792D01*
X0070161Y0100669D01*
X0070296Y0100543D01*
X0070429Y0100414D01*
X0070558Y0100281D01*
X0070684Y0100146D01*
X0070807Y0100007D01*
X0070926Y0099866D01*
X0071041Y0099721D01*
X0071153Y0099574D01*
X0071262Y0099424D01*
X0071366Y0099271D01*
X0071467Y0099116D01*
X0071564Y0098959D01*
X0071658Y0098799D01*
X0071747Y0098637D01*
X0071832Y0098473D01*
X0071913Y0098306D01*
X0071990Y0098138D01*
X0072063Y0097968D01*
X0072132Y0097796D01*
X0072196Y0097623D01*
X0072256Y0097448D01*
X0072312Y0097271D01*
X0072364Y0097094D01*
X0072411Y0096915D01*
X0072454Y0096735D01*
X0072492Y0096554D01*
X0072526Y0096372D01*
X0072555Y0096189D01*
X0072580Y0096006D01*
X0072601Y0095822D01*
X0072617Y0095638D01*
X0072628Y0095453D01*
X0072635Y0095268D01*
X0072637Y0095083D01*
X0072635Y0094898D01*
X0072628Y0094713D01*
X0072617Y0094528D01*
X0072601Y0094344D01*
X0072580Y0094160D01*
X0072555Y0093977D01*
X0072526Y0093794D01*
X0072492Y0093612D01*
X0072454Y0093431D01*
X0072411Y0093251D01*
X0072364Y0093072D01*
X0072312Y0092895D01*
X0072256Y0092718D01*
X0072196Y0092543D01*
X0072132Y0092370D01*
X0072063Y0092198D01*
X0071990Y0092028D01*
X0071913Y0091860D01*
X0071832Y0091693D01*
X0071747Y0091529D01*
X0071658Y0091367D01*
X0071564Y0091207D01*
X0071467Y0091050D01*
X0071366Y0090895D01*
X0071262Y0090742D01*
X0071153Y0090592D01*
X0071041Y0090445D01*
X0070926Y0090300D01*
X0070807Y0090159D01*
X0070684Y0090020D01*
X0070558Y0089885D01*
X0070429Y0089752D01*
X0070296Y0089623D01*
X0070161Y0089497D01*
X0070022Y0089374D01*
X0069881Y0089255D01*
X0069736Y0089140D01*
X0069589Y0089028D01*
X0069439Y0088919D01*
X0069286Y0088815D01*
X0069131Y0088714D01*
X0068974Y0088617D01*
X0068814Y0088523D01*
X0068652Y0088434D01*
X0068488Y0088349D01*
X0068321Y0088268D01*
X0068153Y0088191D01*
X0067983Y0088118D01*
X0067811Y0088049D01*
X0067638Y0087985D01*
X0067463Y0087925D01*
X0067286Y0087869D01*
X0067109Y0087817D01*
X0066930Y0087770D01*
X0066750Y0087727D01*
X0066569Y0087689D01*
X0066387Y0087655D01*
X0066204Y0087626D01*
X0066021Y0087601D01*
X0065837Y0087580D01*
X0065653Y0087564D01*
X0065468Y0087553D01*
X0065283Y0087546D01*
X0065098Y0087544D01*
X0064913Y0087546D01*
X0064728Y0087553D01*
X0064543Y0087564D01*
X0064359Y0087580D01*
X0064175Y0087601D01*
X0063992Y0087626D01*
X0063809Y0087655D01*
X0063627Y0087689D01*
X0063446Y0087727D01*
X0063266Y0087770D01*
X0063087Y0087817D01*
X0062910Y0087869D01*
X0062733Y0087925D01*
X0062558Y0087985D01*
X0062385Y0088049D01*
X0062213Y0088118D01*
X0062043Y0088191D01*
X0061875Y0088268D01*
X0061708Y0088349D01*
X0061544Y0088434D01*
X0061382Y0088523D01*
X0061222Y0088617D01*
X0061065Y0088714D01*
X0060910Y0088815D01*
X0060757Y0088919D01*
X0060607Y0089028D01*
X0060460Y0089140D01*
X0060315Y0089255D01*
X0060174Y0089374D01*
X0060035Y0089497D01*
X0059900Y0089623D01*
X0059767Y0089752D01*
X0059638Y0089885D01*
X0059512Y0090020D01*
X0059389Y0090159D01*
X0059270Y0090300D01*
X0059155Y0090445D01*
X0059043Y0090592D01*
X0058934Y0090742D01*
X0058830Y0090895D01*
X0058729Y0091050D01*
X0058632Y0091207D01*
X0058538Y0091367D01*
X0058449Y0091529D01*
X0058364Y0091693D01*
X0058283Y0091860D01*
X0058206Y0092028D01*
X0058133Y0092198D01*
X0058064Y0092370D01*
X0058000Y0092543D01*
X0057940Y0092718D01*
X0057884Y0092895D01*
X0057832Y0093072D01*
X0057785Y0093251D01*
X0057742Y0093431D01*
X0057704Y0093612D01*
X0057670Y0093794D01*
X0057641Y0093977D01*
X0057616Y0094160D01*
X0057595Y0094344D01*
X0057579Y0094528D01*
X0057568Y0094713D01*
X0057561Y0094898D01*
X0057559Y0095083D01*
X0074938Y0105083D02*
X0074938Y0065083D01*
X0080945Y0065083D01*
X0074938Y0065083D02*
X0073037Y0065083D01*
X0057301Y0065083D01*
X0055363Y0065083D01*
X0057559Y0075083D02*
X0057561Y0075268D01*
X0057568Y0075453D01*
X0057579Y0075638D01*
X0057595Y0075822D01*
X0057616Y0076006D01*
X0057641Y0076189D01*
X0057670Y0076372D01*
X0057704Y0076554D01*
X0057742Y0076735D01*
X0057785Y0076915D01*
X0057832Y0077094D01*
X0057884Y0077271D01*
X0057940Y0077448D01*
X0058000Y0077623D01*
X0058064Y0077796D01*
X0058133Y0077968D01*
X0058206Y0078138D01*
X0058283Y0078306D01*
X0058364Y0078473D01*
X0058449Y0078637D01*
X0058538Y0078799D01*
X0058632Y0078959D01*
X0058729Y0079116D01*
X0058830Y0079271D01*
X0058934Y0079424D01*
X0059043Y0079574D01*
X0059155Y0079721D01*
X0059270Y0079866D01*
X0059389Y0080007D01*
X0059512Y0080146D01*
X0059638Y0080281D01*
X0059767Y0080414D01*
X0059900Y0080543D01*
X0060035Y0080669D01*
X0060174Y0080792D01*
X0060315Y0080911D01*
X0060460Y0081026D01*
X0060607Y0081138D01*
X0060757Y0081247D01*
X0060910Y0081351D01*
X0061065Y0081452D01*
X0061222Y0081549D01*
X0061382Y0081643D01*
X0061544Y0081732D01*
X0061708Y0081817D01*
X0061875Y0081898D01*
X0062043Y0081975D01*
X0062213Y0082048D01*
X0062385Y0082117D01*
X0062558Y0082181D01*
X0062733Y0082241D01*
X0062910Y0082297D01*
X0063087Y0082349D01*
X0063266Y0082396D01*
X0063446Y0082439D01*
X0063627Y0082477D01*
X0063809Y0082511D01*
X0063992Y0082540D01*
X0064175Y0082565D01*
X0064359Y0082586D01*
X0064543Y0082602D01*
X0064728Y0082613D01*
X0064913Y0082620D01*
X0065098Y0082622D01*
X0065283Y0082620D01*
X0065468Y0082613D01*
X0065653Y0082602D01*
X0065837Y0082586D01*
X0066021Y0082565D01*
X0066204Y0082540D01*
X0066387Y0082511D01*
X0066569Y0082477D01*
X0066750Y0082439D01*
X0066930Y0082396D01*
X0067109Y0082349D01*
X0067286Y0082297D01*
X0067463Y0082241D01*
X0067638Y0082181D01*
X0067811Y0082117D01*
X0067983Y0082048D01*
X0068153Y0081975D01*
X0068321Y0081898D01*
X0068488Y0081817D01*
X0068652Y0081732D01*
X0068814Y0081643D01*
X0068974Y0081549D01*
X0069131Y0081452D01*
X0069286Y0081351D01*
X0069439Y0081247D01*
X0069589Y0081138D01*
X0069736Y0081026D01*
X0069881Y0080911D01*
X0070022Y0080792D01*
X0070161Y0080669D01*
X0070296Y0080543D01*
X0070429Y0080414D01*
X0070558Y0080281D01*
X0070684Y0080146D01*
X0070807Y0080007D01*
X0070926Y0079866D01*
X0071041Y0079721D01*
X0071153Y0079574D01*
X0071262Y0079424D01*
X0071366Y0079271D01*
X0071467Y0079116D01*
X0071564Y0078959D01*
X0071658Y0078799D01*
X0071747Y0078637D01*
X0071832Y0078473D01*
X0071913Y0078306D01*
X0071990Y0078138D01*
X0072063Y0077968D01*
X0072132Y0077796D01*
X0072196Y0077623D01*
X0072256Y0077448D01*
X0072312Y0077271D01*
X0072364Y0077094D01*
X0072411Y0076915D01*
X0072454Y0076735D01*
X0072492Y0076554D01*
X0072526Y0076372D01*
X0072555Y0076189D01*
X0072580Y0076006D01*
X0072601Y0075822D01*
X0072617Y0075638D01*
X0072628Y0075453D01*
X0072635Y0075268D01*
X0072637Y0075083D01*
X0072635Y0074898D01*
X0072628Y0074713D01*
X0072617Y0074528D01*
X0072601Y0074344D01*
X0072580Y0074160D01*
X0072555Y0073977D01*
X0072526Y0073794D01*
X0072492Y0073612D01*
X0072454Y0073431D01*
X0072411Y0073251D01*
X0072364Y0073072D01*
X0072312Y0072895D01*
X0072256Y0072718D01*
X0072196Y0072543D01*
X0072132Y0072370D01*
X0072063Y0072198D01*
X0071990Y0072028D01*
X0071913Y0071860D01*
X0071832Y0071693D01*
X0071747Y0071529D01*
X0071658Y0071367D01*
X0071564Y0071207D01*
X0071467Y0071050D01*
X0071366Y0070895D01*
X0071262Y0070742D01*
X0071153Y0070592D01*
X0071041Y0070445D01*
X0070926Y0070300D01*
X0070807Y0070159D01*
X0070684Y0070020D01*
X0070558Y0069885D01*
X0070429Y0069752D01*
X0070296Y0069623D01*
X0070161Y0069497D01*
X0070022Y0069374D01*
X0069881Y0069255D01*
X0069736Y0069140D01*
X0069589Y0069028D01*
X0069439Y0068919D01*
X0069286Y0068815D01*
X0069131Y0068714D01*
X0068974Y0068617D01*
X0068814Y0068523D01*
X0068652Y0068434D01*
X0068488Y0068349D01*
X0068321Y0068268D01*
X0068153Y0068191D01*
X0067983Y0068118D01*
X0067811Y0068049D01*
X0067638Y0067985D01*
X0067463Y0067925D01*
X0067286Y0067869D01*
X0067109Y0067817D01*
X0066930Y0067770D01*
X0066750Y0067727D01*
X0066569Y0067689D01*
X0066387Y0067655D01*
X0066204Y0067626D01*
X0066021Y0067601D01*
X0065837Y0067580D01*
X0065653Y0067564D01*
X0065468Y0067553D01*
X0065283Y0067546D01*
X0065098Y0067544D01*
X0064913Y0067546D01*
X0064728Y0067553D01*
X0064543Y0067564D01*
X0064359Y0067580D01*
X0064175Y0067601D01*
X0063992Y0067626D01*
X0063809Y0067655D01*
X0063627Y0067689D01*
X0063446Y0067727D01*
X0063266Y0067770D01*
X0063087Y0067817D01*
X0062910Y0067869D01*
X0062733Y0067925D01*
X0062558Y0067985D01*
X0062385Y0068049D01*
X0062213Y0068118D01*
X0062043Y0068191D01*
X0061875Y0068268D01*
X0061708Y0068349D01*
X0061544Y0068434D01*
X0061382Y0068523D01*
X0061222Y0068617D01*
X0061065Y0068714D01*
X0060910Y0068815D01*
X0060757Y0068919D01*
X0060607Y0069028D01*
X0060460Y0069140D01*
X0060315Y0069255D01*
X0060174Y0069374D01*
X0060035Y0069497D01*
X0059900Y0069623D01*
X0059767Y0069752D01*
X0059638Y0069885D01*
X0059512Y0070020D01*
X0059389Y0070159D01*
X0059270Y0070300D01*
X0059155Y0070445D01*
X0059043Y0070592D01*
X0058934Y0070742D01*
X0058830Y0070895D01*
X0058729Y0071050D01*
X0058632Y0071207D01*
X0058538Y0071367D01*
X0058449Y0071529D01*
X0058364Y0071693D01*
X0058283Y0071860D01*
X0058206Y0072028D01*
X0058133Y0072198D01*
X0058064Y0072370D01*
X0058000Y0072543D01*
X0057940Y0072718D01*
X0057884Y0072895D01*
X0057832Y0073072D01*
X0057785Y0073251D01*
X0057742Y0073431D01*
X0057704Y0073612D01*
X0057670Y0073794D01*
X0057641Y0073977D01*
X0057616Y0074160D01*
X0057595Y0074344D01*
X0057579Y0074528D01*
X0057568Y0074713D01*
X0057561Y0074898D01*
X0057559Y0075083D01*
X0214055Y0124917D02*
X0220062Y0124917D01*
X0221963Y0124917D01*
X0237699Y0124917D01*
X0239637Y0124917D01*
X0239637Y0164917D01*
X0242315Y0164917D01*
X0244764Y0164917D01*
X0245945Y0164917D01*
X0245945Y0124917D01*
X0244764Y0124917D01*
X0244764Y0164917D01*
X0242315Y0164917D02*
X0242315Y0124917D01*
X0243098Y0124917D01*
X0244764Y0124917D01*
X0243689Y0123708D02*
X0243098Y0124410D01*
X0243098Y0124917D01*
X0242315Y0124917D02*
X0241469Y0124917D01*
X0239637Y0124917D01*
X0240878Y0123708D02*
X0240878Y0122673D01*
X0243689Y0122673D01*
X0243689Y0123708D01*
X0241469Y0124410D02*
X0240878Y0123708D01*
X0241469Y0124410D02*
X0241469Y0124917D01*
X0222363Y0134917D02*
X0222365Y0135102D01*
X0222372Y0135287D01*
X0222383Y0135472D01*
X0222399Y0135656D01*
X0222420Y0135840D01*
X0222445Y0136023D01*
X0222474Y0136206D01*
X0222508Y0136388D01*
X0222546Y0136569D01*
X0222589Y0136749D01*
X0222636Y0136928D01*
X0222688Y0137105D01*
X0222744Y0137282D01*
X0222804Y0137457D01*
X0222868Y0137630D01*
X0222937Y0137802D01*
X0223010Y0137972D01*
X0223087Y0138140D01*
X0223168Y0138307D01*
X0223253Y0138471D01*
X0223342Y0138633D01*
X0223436Y0138793D01*
X0223533Y0138950D01*
X0223634Y0139105D01*
X0223738Y0139258D01*
X0223847Y0139408D01*
X0223959Y0139555D01*
X0224074Y0139700D01*
X0224193Y0139841D01*
X0224316Y0139980D01*
X0224442Y0140115D01*
X0224571Y0140248D01*
X0224704Y0140377D01*
X0224839Y0140503D01*
X0224978Y0140626D01*
X0225119Y0140745D01*
X0225264Y0140860D01*
X0225411Y0140972D01*
X0225561Y0141081D01*
X0225714Y0141185D01*
X0225869Y0141286D01*
X0226026Y0141383D01*
X0226186Y0141477D01*
X0226348Y0141566D01*
X0226512Y0141651D01*
X0226679Y0141732D01*
X0226847Y0141809D01*
X0227017Y0141882D01*
X0227189Y0141951D01*
X0227362Y0142015D01*
X0227537Y0142075D01*
X0227714Y0142131D01*
X0227891Y0142183D01*
X0228070Y0142230D01*
X0228250Y0142273D01*
X0228431Y0142311D01*
X0228613Y0142345D01*
X0228796Y0142374D01*
X0228979Y0142399D01*
X0229163Y0142420D01*
X0229347Y0142436D01*
X0229532Y0142447D01*
X0229717Y0142454D01*
X0229902Y0142456D01*
X0230087Y0142454D01*
X0230272Y0142447D01*
X0230457Y0142436D01*
X0230641Y0142420D01*
X0230825Y0142399D01*
X0231008Y0142374D01*
X0231191Y0142345D01*
X0231373Y0142311D01*
X0231554Y0142273D01*
X0231734Y0142230D01*
X0231913Y0142183D01*
X0232090Y0142131D01*
X0232267Y0142075D01*
X0232442Y0142015D01*
X0232615Y0141951D01*
X0232787Y0141882D01*
X0232957Y0141809D01*
X0233125Y0141732D01*
X0233292Y0141651D01*
X0233456Y0141566D01*
X0233618Y0141477D01*
X0233778Y0141383D01*
X0233935Y0141286D01*
X0234090Y0141185D01*
X0234243Y0141081D01*
X0234393Y0140972D01*
X0234540Y0140860D01*
X0234685Y0140745D01*
X0234826Y0140626D01*
X0234965Y0140503D01*
X0235100Y0140377D01*
X0235233Y0140248D01*
X0235362Y0140115D01*
X0235488Y0139980D01*
X0235611Y0139841D01*
X0235730Y0139700D01*
X0235845Y0139555D01*
X0235957Y0139408D01*
X0236066Y0139258D01*
X0236170Y0139105D01*
X0236271Y0138950D01*
X0236368Y0138793D01*
X0236462Y0138633D01*
X0236551Y0138471D01*
X0236636Y0138307D01*
X0236717Y0138140D01*
X0236794Y0137972D01*
X0236867Y0137802D01*
X0236936Y0137630D01*
X0237000Y0137457D01*
X0237060Y0137282D01*
X0237116Y0137105D01*
X0237168Y0136928D01*
X0237215Y0136749D01*
X0237258Y0136569D01*
X0237296Y0136388D01*
X0237330Y0136206D01*
X0237359Y0136023D01*
X0237384Y0135840D01*
X0237405Y0135656D01*
X0237421Y0135472D01*
X0237432Y0135287D01*
X0237439Y0135102D01*
X0237441Y0134917D01*
X0237439Y0134732D01*
X0237432Y0134547D01*
X0237421Y0134362D01*
X0237405Y0134178D01*
X0237384Y0133994D01*
X0237359Y0133811D01*
X0237330Y0133628D01*
X0237296Y0133446D01*
X0237258Y0133265D01*
X0237215Y0133085D01*
X0237168Y0132906D01*
X0237116Y0132729D01*
X0237060Y0132552D01*
X0237000Y0132377D01*
X0236936Y0132204D01*
X0236867Y0132032D01*
X0236794Y0131862D01*
X0236717Y0131694D01*
X0236636Y0131527D01*
X0236551Y0131363D01*
X0236462Y0131201D01*
X0236368Y0131041D01*
X0236271Y0130884D01*
X0236170Y0130729D01*
X0236066Y0130576D01*
X0235957Y0130426D01*
X0235845Y0130279D01*
X0235730Y0130134D01*
X0235611Y0129993D01*
X0235488Y0129854D01*
X0235362Y0129719D01*
X0235233Y0129586D01*
X0235100Y0129457D01*
X0234965Y0129331D01*
X0234826Y0129208D01*
X0234685Y0129089D01*
X0234540Y0128974D01*
X0234393Y0128862D01*
X0234243Y0128753D01*
X0234090Y0128649D01*
X0233935Y0128548D01*
X0233778Y0128451D01*
X0233618Y0128357D01*
X0233456Y0128268D01*
X0233292Y0128183D01*
X0233125Y0128102D01*
X0232957Y0128025D01*
X0232787Y0127952D01*
X0232615Y0127883D01*
X0232442Y0127819D01*
X0232267Y0127759D01*
X0232090Y0127703D01*
X0231913Y0127651D01*
X0231734Y0127604D01*
X0231554Y0127561D01*
X0231373Y0127523D01*
X0231191Y0127489D01*
X0231008Y0127460D01*
X0230825Y0127435D01*
X0230641Y0127414D01*
X0230457Y0127398D01*
X0230272Y0127387D01*
X0230087Y0127380D01*
X0229902Y0127378D01*
X0229717Y0127380D01*
X0229532Y0127387D01*
X0229347Y0127398D01*
X0229163Y0127414D01*
X0228979Y0127435D01*
X0228796Y0127460D01*
X0228613Y0127489D01*
X0228431Y0127523D01*
X0228250Y0127561D01*
X0228070Y0127604D01*
X0227891Y0127651D01*
X0227714Y0127703D01*
X0227537Y0127759D01*
X0227362Y0127819D01*
X0227189Y0127883D01*
X0227017Y0127952D01*
X0226847Y0128025D01*
X0226679Y0128102D01*
X0226512Y0128183D01*
X0226348Y0128268D01*
X0226186Y0128357D01*
X0226026Y0128451D01*
X0225869Y0128548D01*
X0225714Y0128649D01*
X0225561Y0128753D01*
X0225411Y0128862D01*
X0225264Y0128974D01*
X0225119Y0129089D01*
X0224978Y0129208D01*
X0224839Y0129331D01*
X0224704Y0129457D01*
X0224571Y0129586D01*
X0224442Y0129719D01*
X0224316Y0129854D01*
X0224193Y0129993D01*
X0224074Y0130134D01*
X0223959Y0130279D01*
X0223847Y0130426D01*
X0223738Y0130576D01*
X0223634Y0130729D01*
X0223533Y0130884D01*
X0223436Y0131041D01*
X0223342Y0131201D01*
X0223253Y0131363D01*
X0223168Y0131527D01*
X0223087Y0131694D01*
X0223010Y0131862D01*
X0222937Y0132032D01*
X0222868Y0132204D01*
X0222804Y0132377D01*
X0222744Y0132552D01*
X0222688Y0132729D01*
X0222636Y0132906D01*
X0222589Y0133085D01*
X0222546Y0133265D01*
X0222508Y0133446D01*
X0222474Y0133628D01*
X0222445Y0133811D01*
X0222420Y0133994D01*
X0222399Y0134178D01*
X0222383Y0134362D01*
X0222372Y0134547D01*
X0222365Y0134732D01*
X0222363Y0134917D01*
X0220062Y0124917D02*
X0220062Y0164917D01*
X0214055Y0164917D01*
X0214055Y0124917D01*
X0222363Y0154917D02*
X0222365Y0155102D01*
X0222372Y0155287D01*
X0222383Y0155472D01*
X0222399Y0155656D01*
X0222420Y0155840D01*
X0222445Y0156023D01*
X0222474Y0156206D01*
X0222508Y0156388D01*
X0222546Y0156569D01*
X0222589Y0156749D01*
X0222636Y0156928D01*
X0222688Y0157105D01*
X0222744Y0157282D01*
X0222804Y0157457D01*
X0222868Y0157630D01*
X0222937Y0157802D01*
X0223010Y0157972D01*
X0223087Y0158140D01*
X0223168Y0158307D01*
X0223253Y0158471D01*
X0223342Y0158633D01*
X0223436Y0158793D01*
X0223533Y0158950D01*
X0223634Y0159105D01*
X0223738Y0159258D01*
X0223847Y0159408D01*
X0223959Y0159555D01*
X0224074Y0159700D01*
X0224193Y0159841D01*
X0224316Y0159980D01*
X0224442Y0160115D01*
X0224571Y0160248D01*
X0224704Y0160377D01*
X0224839Y0160503D01*
X0224978Y0160626D01*
X0225119Y0160745D01*
X0225264Y0160860D01*
X0225411Y0160972D01*
X0225561Y0161081D01*
X0225714Y0161185D01*
X0225869Y0161286D01*
X0226026Y0161383D01*
X0226186Y0161477D01*
X0226348Y0161566D01*
X0226512Y0161651D01*
X0226679Y0161732D01*
X0226847Y0161809D01*
X0227017Y0161882D01*
X0227189Y0161951D01*
X0227362Y0162015D01*
X0227537Y0162075D01*
X0227714Y0162131D01*
X0227891Y0162183D01*
X0228070Y0162230D01*
X0228250Y0162273D01*
X0228431Y0162311D01*
X0228613Y0162345D01*
X0228796Y0162374D01*
X0228979Y0162399D01*
X0229163Y0162420D01*
X0229347Y0162436D01*
X0229532Y0162447D01*
X0229717Y0162454D01*
X0229902Y0162456D01*
X0230087Y0162454D01*
X0230272Y0162447D01*
X0230457Y0162436D01*
X0230641Y0162420D01*
X0230825Y0162399D01*
X0231008Y0162374D01*
X0231191Y0162345D01*
X0231373Y0162311D01*
X0231554Y0162273D01*
X0231734Y0162230D01*
X0231913Y0162183D01*
X0232090Y0162131D01*
X0232267Y0162075D01*
X0232442Y0162015D01*
X0232615Y0161951D01*
X0232787Y0161882D01*
X0232957Y0161809D01*
X0233125Y0161732D01*
X0233292Y0161651D01*
X0233456Y0161566D01*
X0233618Y0161477D01*
X0233778Y0161383D01*
X0233935Y0161286D01*
X0234090Y0161185D01*
X0234243Y0161081D01*
X0234393Y0160972D01*
X0234540Y0160860D01*
X0234685Y0160745D01*
X0234826Y0160626D01*
X0234965Y0160503D01*
X0235100Y0160377D01*
X0235233Y0160248D01*
X0235362Y0160115D01*
X0235488Y0159980D01*
X0235611Y0159841D01*
X0235730Y0159700D01*
X0235845Y0159555D01*
X0235957Y0159408D01*
X0236066Y0159258D01*
X0236170Y0159105D01*
X0236271Y0158950D01*
X0236368Y0158793D01*
X0236462Y0158633D01*
X0236551Y0158471D01*
X0236636Y0158307D01*
X0236717Y0158140D01*
X0236794Y0157972D01*
X0236867Y0157802D01*
X0236936Y0157630D01*
X0237000Y0157457D01*
X0237060Y0157282D01*
X0237116Y0157105D01*
X0237168Y0156928D01*
X0237215Y0156749D01*
X0237258Y0156569D01*
X0237296Y0156388D01*
X0237330Y0156206D01*
X0237359Y0156023D01*
X0237384Y0155840D01*
X0237405Y0155656D01*
X0237421Y0155472D01*
X0237432Y0155287D01*
X0237439Y0155102D01*
X0237441Y0154917D01*
X0237439Y0154732D01*
X0237432Y0154547D01*
X0237421Y0154362D01*
X0237405Y0154178D01*
X0237384Y0153994D01*
X0237359Y0153811D01*
X0237330Y0153628D01*
X0237296Y0153446D01*
X0237258Y0153265D01*
X0237215Y0153085D01*
X0237168Y0152906D01*
X0237116Y0152729D01*
X0237060Y0152552D01*
X0237000Y0152377D01*
X0236936Y0152204D01*
X0236867Y0152032D01*
X0236794Y0151862D01*
X0236717Y0151694D01*
X0236636Y0151527D01*
X0236551Y0151363D01*
X0236462Y0151201D01*
X0236368Y0151041D01*
X0236271Y0150884D01*
X0236170Y0150729D01*
X0236066Y0150576D01*
X0235957Y0150426D01*
X0235845Y0150279D01*
X0235730Y0150134D01*
X0235611Y0149993D01*
X0235488Y0149854D01*
X0235362Y0149719D01*
X0235233Y0149586D01*
X0235100Y0149457D01*
X0234965Y0149331D01*
X0234826Y0149208D01*
X0234685Y0149089D01*
X0234540Y0148974D01*
X0234393Y0148862D01*
X0234243Y0148753D01*
X0234090Y0148649D01*
X0233935Y0148548D01*
X0233778Y0148451D01*
X0233618Y0148357D01*
X0233456Y0148268D01*
X0233292Y0148183D01*
X0233125Y0148102D01*
X0232957Y0148025D01*
X0232787Y0147952D01*
X0232615Y0147883D01*
X0232442Y0147819D01*
X0232267Y0147759D01*
X0232090Y0147703D01*
X0231913Y0147651D01*
X0231734Y0147604D01*
X0231554Y0147561D01*
X0231373Y0147523D01*
X0231191Y0147489D01*
X0231008Y0147460D01*
X0230825Y0147435D01*
X0230641Y0147414D01*
X0230457Y0147398D01*
X0230272Y0147387D01*
X0230087Y0147380D01*
X0229902Y0147378D01*
X0229717Y0147380D01*
X0229532Y0147387D01*
X0229347Y0147398D01*
X0229163Y0147414D01*
X0228979Y0147435D01*
X0228796Y0147460D01*
X0228613Y0147489D01*
X0228431Y0147523D01*
X0228250Y0147561D01*
X0228070Y0147604D01*
X0227891Y0147651D01*
X0227714Y0147703D01*
X0227537Y0147759D01*
X0227362Y0147819D01*
X0227189Y0147883D01*
X0227017Y0147952D01*
X0226847Y0148025D01*
X0226679Y0148102D01*
X0226512Y0148183D01*
X0226348Y0148268D01*
X0226186Y0148357D01*
X0226026Y0148451D01*
X0225869Y0148548D01*
X0225714Y0148649D01*
X0225561Y0148753D01*
X0225411Y0148862D01*
X0225264Y0148974D01*
X0225119Y0149089D01*
X0224978Y0149208D01*
X0224839Y0149331D01*
X0224704Y0149457D01*
X0224571Y0149586D01*
X0224442Y0149719D01*
X0224316Y0149854D01*
X0224193Y0149993D01*
X0224074Y0150134D01*
X0223959Y0150279D01*
X0223847Y0150426D01*
X0223738Y0150576D01*
X0223634Y0150729D01*
X0223533Y0150884D01*
X0223436Y0151041D01*
X0223342Y0151201D01*
X0223253Y0151363D01*
X0223168Y0151527D01*
X0223087Y0151694D01*
X0223010Y0151862D01*
X0222937Y0152032D01*
X0222868Y0152204D01*
X0222804Y0152377D01*
X0222744Y0152552D01*
X0222688Y0152729D01*
X0222636Y0152906D01*
X0222589Y0153085D01*
X0222546Y0153265D01*
X0222508Y0153446D01*
X0222474Y0153628D01*
X0222445Y0153811D01*
X0222420Y0153994D01*
X0222399Y0154178D01*
X0222383Y0154362D01*
X0222372Y0154547D01*
X0222365Y0154732D01*
X0222363Y0154917D01*
X0221963Y0164917D02*
X0220062Y0164917D01*
X0221963Y0164917D02*
X0237699Y0164917D01*
X0239637Y0164917D01*
X0230512Y0080512D02*
X0219488Y0080512D01*
X0219488Y0069488D01*
X0230512Y0069488D01*
X0230512Y0080512D01*
X0228150Y0079331D02*
X0228150Y0076969D01*
X0228217Y0076971D01*
X0228285Y0076977D01*
X0228351Y0076986D01*
X0228417Y0077000D01*
X0228483Y0077017D01*
X0228547Y0077038D01*
X0228610Y0077062D01*
X0228671Y0077090D01*
X0228731Y0077122D01*
X0228788Y0077156D01*
X0228844Y0077195D01*
X0228898Y0077236D01*
X0228949Y0077280D01*
X0228997Y0077327D01*
X0229043Y0077377D01*
X0229085Y0077429D01*
X0229125Y0077483D01*
X0229161Y0077540D01*
X0229195Y0077599D01*
X0229224Y0077659D01*
X0229251Y0077722D01*
X0229273Y0077785D01*
X0229292Y0077850D01*
X0229307Y0077915D01*
X0229319Y0077982D01*
X0229327Y0078049D01*
X0229331Y0078116D01*
X0229331Y0078184D01*
X0229327Y0078251D01*
X0229319Y0078318D01*
X0229307Y0078385D01*
X0229292Y0078450D01*
X0229273Y0078515D01*
X0229251Y0078578D01*
X0229224Y0078641D01*
X0229195Y0078701D01*
X0229161Y0078760D01*
X0229125Y0078817D01*
X0229085Y0078871D01*
X0229043Y0078923D01*
X0228997Y0078973D01*
X0228949Y0079020D01*
X0228898Y0079064D01*
X0228844Y0079105D01*
X0228788Y0079144D01*
X0228731Y0079178D01*
X0228671Y0079210D01*
X0228610Y0079238D01*
X0228547Y0079262D01*
X0228483Y0079283D01*
X0228417Y0079300D01*
X0228351Y0079314D01*
X0228285Y0079323D01*
X0228217Y0079329D01*
X0228150Y0079331D01*
D14*
X0143000Y0107500D02*
X0143000Y0140000D01*
X0107000Y0140000D01*
X0107000Y0107500D01*
X0143000Y0107500D01*
D15*
X0125296Y0130350D02*
X0121092Y0130350D01*
X0125296Y0134554D01*
X0125296Y0135604D01*
X0124245Y0136655D01*
X0122143Y0136655D01*
X0121092Y0135604D01*
X0118851Y0135604D02*
X0117800Y0136655D01*
X0115698Y0136655D01*
X0114647Y0135604D01*
X0114647Y0131401D01*
X0115698Y0130350D01*
X0117800Y0130350D01*
X0118851Y0131401D01*
X0112452Y0130350D02*
X0110350Y0130350D01*
X0111401Y0130350D02*
X0111401Y0136655D01*
X0110350Y0136655D02*
X0112452Y0136655D01*
D16*
X0112459Y0141200D02*
X0112459Y0144703D01*
X0111291Y0143535D01*
X0110035Y0143535D02*
X0110035Y0141200D01*
X0111291Y0141200D02*
X0113626Y0141200D01*
X0114882Y0141784D02*
X0115466Y0141200D01*
X0116634Y0141200D01*
X0117217Y0141784D01*
X0117217Y0142951D01*
X0116634Y0143535D01*
X0116050Y0143535D01*
X0114882Y0142951D01*
X0114882Y0144703D01*
X0117217Y0144703D01*
X0119057Y0141784D02*
X0119057Y0141200D01*
X0119641Y0141200D01*
X0119641Y0141784D01*
X0119057Y0141784D01*
X0119641Y0141200D02*
X0118473Y0140032D01*
X0120867Y0141200D02*
X0123203Y0143535D01*
X0123203Y0144119D01*
X0122619Y0144703D01*
X0121451Y0144703D01*
X0120867Y0144119D01*
X0120867Y0141200D02*
X0123203Y0141200D01*
X0124458Y0141200D02*
X0124458Y0143535D01*
X0125042Y0143535D01*
X0125626Y0142951D01*
X0126210Y0143535D01*
X0126794Y0142951D01*
X0126794Y0141200D01*
X0125626Y0141200D02*
X0125626Y0142951D01*
X0128049Y0143535D02*
X0128633Y0143535D01*
X0129217Y0142951D01*
X0129801Y0143535D01*
X0130385Y0142951D01*
X0130385Y0141200D01*
X0129217Y0141200D02*
X0129217Y0142951D01*
X0128049Y0143535D02*
X0128049Y0141200D01*
X0110035Y0142951D02*
X0107700Y0142951D01*
X0107700Y0143535D02*
X0107700Y0141200D01*
X0107700Y0143535D02*
X0108868Y0144703D01*
X0110035Y0143535D01*
X0087300Y0102370D02*
X0087300Y0099301D01*
X0084231Y0102370D01*
X0083463Y0102370D01*
X0082696Y0101603D01*
X0082696Y0100068D01*
X0083463Y0099301D01*
X0082696Y0097767D02*
X0087300Y0094697D01*
X0087300Y0097767D02*
X0082696Y0094697D01*
X0207696Y0126495D02*
X0212300Y0129564D01*
X0212300Y0131099D02*
X0212300Y0134168D01*
X0212300Y0132633D02*
X0207696Y0132633D01*
X0209231Y0131099D01*
X0207696Y0129564D02*
X0212300Y0126495D01*
D17*
X0135000Y0103250D03*
X0125000Y0103250D03*
X0115000Y0103250D03*
D18*
X0005000Y0005000D02*
X0005000Y0215000D01*
X0259000Y0215000D01*
X0265000Y0209000D01*
X0265000Y0164000D01*
X0275000Y0154000D01*
X0275000Y0025000D01*
X0265000Y0015000D01*
X0265000Y0005000D01*
X0005000Y0005000D01*
X0118500Y0154000D02*
X0118502Y0154161D01*
X0118508Y0154321D01*
X0118518Y0154482D01*
X0118532Y0154642D01*
X0118550Y0154802D01*
X0118571Y0154961D01*
X0118597Y0155120D01*
X0118627Y0155278D01*
X0118660Y0155435D01*
X0118698Y0155592D01*
X0118739Y0155747D01*
X0118784Y0155901D01*
X0118833Y0156054D01*
X0118886Y0156206D01*
X0118942Y0156357D01*
X0119003Y0156506D01*
X0119066Y0156654D01*
X0119134Y0156800D01*
X0119205Y0156944D01*
X0119279Y0157086D01*
X0119357Y0157227D01*
X0119439Y0157365D01*
X0119524Y0157502D01*
X0119612Y0157636D01*
X0119704Y0157768D01*
X0119799Y0157898D01*
X0119897Y0158026D01*
X0119998Y0158151D01*
X0120102Y0158273D01*
X0120209Y0158393D01*
X0120319Y0158510D01*
X0120432Y0158625D01*
X0120548Y0158736D01*
X0120667Y0158845D01*
X0120788Y0158950D01*
X0120912Y0159053D01*
X0121038Y0159153D01*
X0121166Y0159249D01*
X0121297Y0159342D01*
X0121431Y0159432D01*
X0121566Y0159519D01*
X0121704Y0159602D01*
X0121843Y0159682D01*
X0121985Y0159758D01*
X0122128Y0159831D01*
X0122273Y0159900D01*
X0122420Y0159966D01*
X0122568Y0160028D01*
X0122718Y0160086D01*
X0122869Y0160141D01*
X0123022Y0160192D01*
X0123176Y0160239D01*
X0123331Y0160282D01*
X0123487Y0160321D01*
X0123643Y0160357D01*
X0123801Y0160388D01*
X0123959Y0160416D01*
X0124118Y0160440D01*
X0124278Y0160460D01*
X0124438Y0160476D01*
X0124598Y0160488D01*
X0124759Y0160496D01*
X0124920Y0160500D01*
X0125080Y0160500D01*
X0125241Y0160496D01*
X0125402Y0160488D01*
X0125562Y0160476D01*
X0125722Y0160460D01*
X0125882Y0160440D01*
X0126041Y0160416D01*
X0126199Y0160388D01*
X0126357Y0160357D01*
X0126513Y0160321D01*
X0126669Y0160282D01*
X0126824Y0160239D01*
X0126978Y0160192D01*
X0127131Y0160141D01*
X0127282Y0160086D01*
X0127432Y0160028D01*
X0127580Y0159966D01*
X0127727Y0159900D01*
X0127872Y0159831D01*
X0128015Y0159758D01*
X0128157Y0159682D01*
X0128296Y0159602D01*
X0128434Y0159519D01*
X0128569Y0159432D01*
X0128703Y0159342D01*
X0128834Y0159249D01*
X0128962Y0159153D01*
X0129088Y0159053D01*
X0129212Y0158950D01*
X0129333Y0158845D01*
X0129452Y0158736D01*
X0129568Y0158625D01*
X0129681Y0158510D01*
X0129791Y0158393D01*
X0129898Y0158273D01*
X0130002Y0158151D01*
X0130103Y0158026D01*
X0130201Y0157898D01*
X0130296Y0157768D01*
X0130388Y0157636D01*
X0130476Y0157502D01*
X0130561Y0157365D01*
X0130643Y0157227D01*
X0130721Y0157086D01*
X0130795Y0156944D01*
X0130866Y0156800D01*
X0130934Y0156654D01*
X0130997Y0156506D01*
X0131058Y0156357D01*
X0131114Y0156206D01*
X0131167Y0156054D01*
X0131216Y0155901D01*
X0131261Y0155747D01*
X0131302Y0155592D01*
X0131340Y0155435D01*
X0131373Y0155278D01*
X0131403Y0155120D01*
X0131429Y0154961D01*
X0131450Y0154802D01*
X0131468Y0154642D01*
X0131482Y0154482D01*
X0131492Y0154321D01*
X0131498Y0154161D01*
X0131500Y0154000D01*
X0131498Y0153839D01*
X0131492Y0153679D01*
X0131482Y0153518D01*
X0131468Y0153358D01*
X0131450Y0153198D01*
X0131429Y0153039D01*
X0131403Y0152880D01*
X0131373Y0152722D01*
X0131340Y0152565D01*
X0131302Y0152408D01*
X0131261Y0152253D01*
X0131216Y0152099D01*
X0131167Y0151946D01*
X0131114Y0151794D01*
X0131058Y0151643D01*
X0130997Y0151494D01*
X0130934Y0151346D01*
X0130866Y0151200D01*
X0130795Y0151056D01*
X0130721Y0150914D01*
X0130643Y0150773D01*
X0130561Y0150635D01*
X0130476Y0150498D01*
X0130388Y0150364D01*
X0130296Y0150232D01*
X0130201Y0150102D01*
X0130103Y0149974D01*
X0130002Y0149849D01*
X0129898Y0149727D01*
X0129791Y0149607D01*
X0129681Y0149490D01*
X0129568Y0149375D01*
X0129452Y0149264D01*
X0129333Y0149155D01*
X0129212Y0149050D01*
X0129088Y0148947D01*
X0128962Y0148847D01*
X0128834Y0148751D01*
X0128703Y0148658D01*
X0128569Y0148568D01*
X0128434Y0148481D01*
X0128296Y0148398D01*
X0128157Y0148318D01*
X0128015Y0148242D01*
X0127872Y0148169D01*
X0127727Y0148100D01*
X0127580Y0148034D01*
X0127432Y0147972D01*
X0127282Y0147914D01*
X0127131Y0147859D01*
X0126978Y0147808D01*
X0126824Y0147761D01*
X0126669Y0147718D01*
X0126513Y0147679D01*
X0126357Y0147643D01*
X0126199Y0147612D01*
X0126041Y0147584D01*
X0125882Y0147560D01*
X0125722Y0147540D01*
X0125562Y0147524D01*
X0125402Y0147512D01*
X0125241Y0147504D01*
X0125080Y0147500D01*
X0124920Y0147500D01*
X0124759Y0147504D01*
X0124598Y0147512D01*
X0124438Y0147524D01*
X0124278Y0147540D01*
X0124118Y0147560D01*
X0123959Y0147584D01*
X0123801Y0147612D01*
X0123643Y0147643D01*
X0123487Y0147679D01*
X0123331Y0147718D01*
X0123176Y0147761D01*
X0123022Y0147808D01*
X0122869Y0147859D01*
X0122718Y0147914D01*
X0122568Y0147972D01*
X0122420Y0148034D01*
X0122273Y0148100D01*
X0122128Y0148169D01*
X0121985Y0148242D01*
X0121843Y0148318D01*
X0121704Y0148398D01*
X0121566Y0148481D01*
X0121431Y0148568D01*
X0121297Y0148658D01*
X0121166Y0148751D01*
X0121038Y0148847D01*
X0120912Y0148947D01*
X0120788Y0149050D01*
X0120667Y0149155D01*
X0120548Y0149264D01*
X0120432Y0149375D01*
X0120319Y0149490D01*
X0120209Y0149607D01*
X0120102Y0149727D01*
X0119998Y0149849D01*
X0119897Y0149974D01*
X0119799Y0150102D01*
X0119704Y0150232D01*
X0119612Y0150364D01*
X0119524Y0150498D01*
X0119439Y0150635D01*
X0119357Y0150773D01*
X0119279Y0150914D01*
X0119205Y0151056D01*
X0119134Y0151200D01*
X0119066Y0151346D01*
X0119003Y0151494D01*
X0118942Y0151643D01*
X0118886Y0151794D01*
X0118833Y0151946D01*
X0118784Y0152099D01*
X0118739Y0152253D01*
X0118698Y0152408D01*
X0118660Y0152565D01*
X0118627Y0152722D01*
X0118597Y0152880D01*
X0118571Y0153039D01*
X0118550Y0153198D01*
X0118532Y0153358D01*
X0118518Y0153518D01*
X0118508Y0153679D01*
X0118502Y0153839D01*
X0118500Y0154000D01*
D19*
X0118752Y0196150D02*
X0116284Y0196150D01*
X0117518Y0196150D02*
X0117518Y0199853D01*
X0116284Y0198619D01*
X0119967Y0199236D02*
X0120584Y0199853D01*
X0121818Y0199853D01*
X0122436Y0199236D01*
X0122436Y0198619D01*
X0121818Y0198002D01*
X0122436Y0197384D01*
X0122436Y0196767D01*
X0121818Y0196150D01*
X0120584Y0196150D01*
X0119967Y0196767D01*
X0121201Y0198002D02*
X0121818Y0198002D01*
X0126284Y0198619D02*
X0127518Y0199853D01*
X0127518Y0196150D01*
X0126284Y0196150D02*
X0128752Y0196150D01*
X0129967Y0196150D02*
X0132436Y0198619D01*
X0132436Y0199236D01*
X0131818Y0199853D01*
X0130584Y0199853D01*
X0129967Y0199236D01*
X0129967Y0196150D02*
X0132436Y0196150D01*
X0136284Y0196150D02*
X0138752Y0196150D01*
X0139967Y0196150D02*
X0142436Y0196150D01*
X0141201Y0196150D02*
X0141201Y0199853D01*
X0139967Y0198619D01*
X0137518Y0199853D02*
X0137518Y0196150D01*
X0136284Y0198619D02*
X0137518Y0199853D01*
X0146284Y0198619D02*
X0147518Y0199853D01*
X0147518Y0196150D01*
X0146284Y0196150D02*
X0148752Y0196150D01*
X0149967Y0196767D02*
X0149967Y0199236D01*
X0150584Y0199853D01*
X0151818Y0199853D01*
X0152436Y0199236D01*
X0149967Y0196767D01*
X0150584Y0196150D01*
X0151818Y0196150D01*
X0152436Y0196767D01*
X0152436Y0199236D01*
X0157967Y0199236D02*
X0157967Y0198619D01*
X0158584Y0198002D01*
X0160436Y0198002D01*
X0160436Y0199236D02*
X0159818Y0199853D01*
X0158584Y0199853D01*
X0157967Y0199236D01*
X0160436Y0199236D02*
X0160436Y0196767D01*
X0159818Y0196150D01*
X0158584Y0196150D01*
X0157967Y0196767D01*
X0167967Y0196767D02*
X0167967Y0197384D01*
X0168584Y0198002D01*
X0169818Y0198002D01*
X0170436Y0197384D01*
X0170436Y0196767D01*
X0169818Y0196150D01*
X0168584Y0196150D01*
X0167967Y0196767D01*
X0168584Y0198002D02*
X0167967Y0198619D01*
X0167967Y0199236D01*
X0168584Y0199853D01*
X0169818Y0199853D01*
X0170436Y0199236D01*
X0170436Y0198619D01*
X0169818Y0198002D01*
X0183967Y0196767D02*
X0183967Y0196150D01*
X0183967Y0196767D02*
X0186436Y0199236D01*
X0186436Y0199853D01*
X0183967Y0199853D01*
X0193967Y0198002D02*
X0193967Y0196767D01*
X0194584Y0196150D01*
X0195818Y0196150D01*
X0196436Y0196767D01*
X0196436Y0197384D01*
X0195818Y0198002D01*
X0193967Y0198002D01*
X0195201Y0199236D01*
X0196436Y0199853D01*
X0203967Y0199853D02*
X0203967Y0198002D01*
X0205201Y0198619D01*
X0205818Y0198619D01*
X0206436Y0198002D01*
X0206436Y0196767D01*
X0205818Y0196150D01*
X0204584Y0196150D01*
X0203967Y0196767D01*
X0203967Y0199853D02*
X0206436Y0199853D01*
X0213967Y0198002D02*
X0216436Y0198002D01*
X0215818Y0199853D02*
X0215818Y0196150D01*
X0213967Y0198002D02*
X0215818Y0199853D01*
X0223967Y0199236D02*
X0224584Y0199853D01*
X0225818Y0199853D01*
X0226436Y0199236D01*
X0226436Y0198619D01*
X0225818Y0198002D01*
X0226436Y0197384D01*
X0226436Y0196767D01*
X0225818Y0196150D01*
X0224584Y0196150D01*
X0223967Y0196767D01*
X0225201Y0198002D02*
X0225818Y0198002D01*
X0233967Y0199236D02*
X0234584Y0199853D01*
X0235818Y0199853D01*
X0236436Y0199236D01*
X0236436Y0198619D01*
X0233967Y0196150D01*
X0236436Y0196150D01*
X0243967Y0196150D02*
X0246436Y0196150D01*
X0245201Y0196150D02*
X0245201Y0199853D01*
X0243967Y0198619D01*
X0253967Y0199236D02*
X0253967Y0196767D01*
X0256436Y0199236D01*
X0256436Y0196767D01*
X0255818Y0196150D01*
X0254584Y0196150D01*
X0253967Y0196767D01*
X0253967Y0199236D02*
X0254584Y0199853D01*
X0255818Y0199853D01*
X0256436Y0199236D01*
X0238812Y0210767D02*
X0238812Y0213236D01*
X0238194Y0213853D01*
X0236960Y0213853D01*
X0236343Y0213236D01*
X0236343Y0210767D01*
X0236960Y0210150D01*
X0238194Y0210150D01*
X0238812Y0210767D01*
X0235128Y0213853D02*
X0232660Y0210150D01*
X0231439Y0210150D02*
X0230204Y0210150D01*
X0230821Y0210150D02*
X0230821Y0213853D01*
X0230204Y0213853D02*
X0231439Y0213853D01*
X0224683Y0213853D02*
X0224683Y0210150D01*
X0224066Y0210150D02*
X0225300Y0210150D01*
X0222851Y0210150D02*
X0221000Y0210150D01*
X0220383Y0210767D01*
X0221000Y0211384D01*
X0222851Y0211384D01*
X0222851Y0212002D02*
X0222851Y0210150D01*
X0222851Y0212002D02*
X0222234Y0212619D01*
X0221000Y0212619D01*
X0219162Y0212619D02*
X0217927Y0212619D01*
X0218544Y0213236D02*
X0218544Y0210767D01*
X0219162Y0210150D01*
X0216706Y0210150D02*
X0215472Y0210150D01*
X0216089Y0210150D02*
X0216089Y0212619D01*
X0215472Y0212619D01*
X0214257Y0212619D02*
X0212406Y0212619D01*
X0211789Y0212002D01*
X0211789Y0210767D01*
X0212406Y0210150D01*
X0214257Y0210150D01*
X0214257Y0209533D02*
X0214257Y0212619D01*
X0216089Y0213853D02*
X0216089Y0214470D01*
X0210568Y0210150D02*
X0209333Y0210150D01*
X0209950Y0210150D02*
X0209950Y0212619D01*
X0209333Y0212619D01*
X0208119Y0213236D02*
X0207502Y0213853D01*
X0205650Y0213853D01*
X0205650Y0210150D01*
X0207502Y0210150D01*
X0208119Y0210767D01*
X0208119Y0213236D01*
X0209950Y0213853D02*
X0209950Y0214470D01*
X0213023Y0208916D02*
X0213640Y0208916D01*
X0214257Y0209533D01*
X0224066Y0213853D02*
X0224683Y0213853D01*
X0162812Y0213236D02*
X0162812Y0210767D01*
X0162194Y0210150D01*
X0160960Y0210150D01*
X0160343Y0210767D01*
X0160343Y0213236D01*
X0160960Y0213853D01*
X0162194Y0213853D01*
X0162812Y0213236D01*
X0159128Y0213853D02*
X0156660Y0210150D01*
X0155439Y0210150D02*
X0154204Y0210150D01*
X0154821Y0210150D02*
X0154821Y0213853D01*
X0154204Y0213853D02*
X0155439Y0213853D01*
X0148683Y0213853D02*
X0148683Y0210150D01*
X0148066Y0210150D02*
X0149300Y0210150D01*
X0146851Y0210150D02*
X0145000Y0210150D01*
X0144383Y0210767D01*
X0145000Y0211384D01*
X0146851Y0211384D01*
X0146851Y0212002D02*
X0146851Y0210150D01*
X0146851Y0212002D02*
X0146234Y0212619D01*
X0145000Y0212619D01*
X0143162Y0212619D02*
X0141927Y0212619D01*
X0142544Y0213236D02*
X0142544Y0210767D01*
X0143162Y0210150D01*
X0140706Y0210150D02*
X0139472Y0210150D01*
X0140089Y0210150D02*
X0140089Y0212619D01*
X0139472Y0212619D01*
X0138257Y0212619D02*
X0136406Y0212619D01*
X0135789Y0212002D01*
X0135789Y0210767D01*
X0136406Y0210150D01*
X0138257Y0210150D01*
X0138257Y0209533D02*
X0138257Y0212619D01*
X0140089Y0213853D02*
X0140089Y0214470D01*
X0133950Y0214470D02*
X0133950Y0213853D01*
X0133950Y0212619D02*
X0133950Y0210150D01*
X0133333Y0210150D02*
X0134568Y0210150D01*
X0132119Y0210767D02*
X0132119Y0213236D01*
X0131502Y0213853D01*
X0129650Y0213853D01*
X0129650Y0210150D01*
X0131502Y0210150D01*
X0132119Y0210767D01*
X0133333Y0212619D02*
X0133950Y0212619D01*
X0137023Y0208916D02*
X0137640Y0208916D01*
X0138257Y0209533D01*
X0148066Y0213853D02*
X0148683Y0213853D01*
X0113985Y0213853D02*
X0113985Y0210150D01*
X0112133Y0210150D01*
X0111516Y0210767D01*
X0111516Y0212002D01*
X0112133Y0212619D01*
X0113985Y0212619D01*
X0110302Y0212002D02*
X0110302Y0210150D01*
X0110302Y0212002D02*
X0109685Y0212619D01*
X0107833Y0212619D01*
X0107833Y0210150D01*
X0106619Y0210767D02*
X0106619Y0212002D01*
X0105384Y0212002D01*
X0104150Y0213236D02*
X0104150Y0210767D01*
X0104767Y0210150D01*
X0106002Y0210150D01*
X0106619Y0210767D01*
X0106619Y0213236D02*
X0106002Y0213853D01*
X0104767Y0213853D01*
X0104150Y0213236D01*
X0093485Y0212619D02*
X0093485Y0210150D01*
X0093485Y0212002D02*
X0091016Y0212002D01*
X0091016Y0212619D02*
X0091016Y0210150D01*
X0089802Y0210767D02*
X0089802Y0213236D01*
X0089185Y0213853D01*
X0087333Y0213853D01*
X0087333Y0210150D01*
X0089185Y0210150D01*
X0089802Y0210767D01*
X0091016Y0212619D02*
X0092251Y0213853D01*
X0093485Y0212619D01*
X0086119Y0213236D02*
X0085502Y0213853D01*
X0084267Y0213853D01*
X0083650Y0213236D01*
X0083650Y0212619D01*
X0084267Y0212002D01*
X0085502Y0212002D01*
X0086119Y0211384D01*
X0086119Y0210767D01*
X0085502Y0210150D01*
X0084267Y0210150D01*
X0083650Y0210767D01*
X0082016Y0199853D02*
X0082016Y0196150D01*
X0084485Y0196150D01*
X0080802Y0196767D02*
X0080185Y0196150D01*
X0078950Y0196150D01*
X0078333Y0196767D01*
X0078333Y0199236D01*
X0078950Y0199853D01*
X0080185Y0199853D01*
X0080802Y0199236D01*
X0077119Y0199236D02*
X0076502Y0199853D01*
X0075267Y0199853D01*
X0074650Y0199236D01*
X0074650Y0198619D01*
X0075267Y0198002D01*
X0076502Y0198002D01*
X0077119Y0197384D01*
X0077119Y0196767D01*
X0076502Y0196150D01*
X0075267Y0196150D01*
X0074650Y0196767D01*
X0092650Y0196150D02*
X0092650Y0198619D01*
X0093884Y0199853D01*
X0095119Y0198619D01*
X0095119Y0196150D01*
X0096333Y0196150D02*
X0096333Y0199853D01*
X0098185Y0199853D01*
X0098802Y0199236D01*
X0098802Y0198002D01*
X0098185Y0197384D01*
X0096333Y0197384D01*
X0097568Y0197384D02*
X0098802Y0196150D01*
X0100016Y0196767D02*
X0100016Y0198002D01*
X0100633Y0198619D01*
X0101868Y0198619D01*
X0102485Y0198002D01*
X0102485Y0197384D01*
X0100016Y0197384D01*
X0100016Y0196767D02*
X0100633Y0196150D01*
X0101868Y0196150D01*
X0104317Y0196150D02*
X0104317Y0199236D01*
X0104934Y0199853D01*
X0104934Y0198002D02*
X0103699Y0198002D01*
X0095119Y0198002D02*
X0092650Y0198002D01*
X0121110Y0023853D02*
X0122345Y0023853D01*
X0121727Y0023853D02*
X0121727Y0020150D01*
X0121110Y0020150D02*
X0122345Y0020150D01*
X0123566Y0020767D02*
X0124183Y0020150D01*
X0125417Y0020150D01*
X0126034Y0020767D01*
X0126034Y0023236D01*
X0125417Y0023853D01*
X0124183Y0023853D01*
X0123566Y0023236D01*
X0123566Y0020767D01*
X0127249Y0020150D02*
X0127249Y0022619D01*
X0128483Y0022619D02*
X0129100Y0022619D01*
X0128483Y0022619D02*
X0127249Y0021384D01*
X0130110Y0009853D02*
X0131962Y0009853D01*
X0132579Y0009236D01*
X0132579Y0008002D01*
X0131962Y0007384D01*
X0130110Y0007384D01*
X0130110Y0006150D02*
X0130110Y0009853D01*
X0131345Y0007384D02*
X0132579Y0006150D01*
X0133793Y0006767D02*
X0134411Y0006150D01*
X0135645Y0006150D01*
X0136262Y0006767D01*
X0136262Y0007384D01*
X0135645Y0008002D01*
X0134411Y0008002D01*
X0133793Y0008619D01*
X0133793Y0009236D01*
X0134411Y0009853D01*
X0135645Y0009853D01*
X0136262Y0009236D01*
X0137477Y0009853D02*
X0139945Y0009853D01*
X0138711Y0009853D02*
X0138711Y0006150D01*
X0142587Y0020150D02*
X0141970Y0020767D01*
X0142587Y0020150D02*
X0143822Y0020150D01*
X0144439Y0020767D01*
X0144439Y0021384D01*
X0143822Y0022002D01*
X0143204Y0022002D01*
X0143822Y0022002D02*
X0144439Y0022619D01*
X0144439Y0023236D01*
X0143822Y0023853D01*
X0142587Y0023853D01*
X0141970Y0023236D01*
X0145653Y0022619D02*
X0146888Y0020150D01*
X0148122Y0022619D01*
X0152970Y0022002D02*
X0154204Y0022619D01*
X0154822Y0022619D01*
X0155439Y0022002D01*
X0155439Y0020767D01*
X0154822Y0020150D01*
X0153587Y0020150D01*
X0152970Y0020767D01*
X0152970Y0022002D02*
X0152970Y0023853D01*
X0155439Y0023853D01*
X0156653Y0022619D02*
X0157888Y0020150D01*
X0159122Y0022619D01*
X0165690Y0023236D02*
X0165690Y0020767D01*
X0166307Y0020150D01*
X0167541Y0020150D01*
X0168159Y0020767D01*
X0168159Y0022002D01*
X0166924Y0022002D01*
X0165690Y0023236D02*
X0166307Y0023853D01*
X0167541Y0023853D01*
X0168159Y0023236D01*
X0169373Y0022619D02*
X0169373Y0020150D01*
X0171842Y0020150D02*
X0171842Y0022002D01*
X0171224Y0022619D01*
X0169373Y0022619D01*
X0173056Y0022002D02*
X0173056Y0020767D01*
X0173673Y0020150D01*
X0175525Y0020150D01*
X0175525Y0023853D01*
X0175525Y0022619D02*
X0173673Y0022619D01*
X0173056Y0022002D01*
X0181470Y0021384D02*
X0182704Y0020150D01*
X0183939Y0021384D01*
X0183939Y0023853D01*
X0185153Y0022619D02*
X0185770Y0022619D01*
X0185770Y0020150D01*
X0185153Y0020150D02*
X0186388Y0020150D01*
X0187609Y0020150D02*
X0187609Y0022619D01*
X0189460Y0022619D01*
X0190077Y0022002D01*
X0190077Y0020150D01*
X0185770Y0023853D02*
X0185770Y0024470D01*
X0181470Y0023853D02*
X0181470Y0021384D01*
X0203650Y0020767D02*
X0206119Y0023236D01*
X0206119Y0020767D01*
X0205502Y0020150D01*
X0204267Y0020150D01*
X0203650Y0020767D01*
X0203650Y0023236D01*
X0204267Y0023853D01*
X0205502Y0023853D01*
X0206119Y0023236D01*
X0213650Y0022619D02*
X0214884Y0023853D01*
X0214884Y0020150D01*
X0213650Y0020150D02*
X0216119Y0020150D01*
X0223650Y0020150D02*
X0226119Y0022619D01*
X0226119Y0023236D01*
X0225502Y0023853D01*
X0224267Y0023853D01*
X0223650Y0023236D01*
X0223650Y0020150D02*
X0226119Y0020150D01*
X0233650Y0020767D02*
X0234267Y0020150D01*
X0235502Y0020150D01*
X0236119Y0020767D01*
X0236119Y0021384D01*
X0235502Y0022002D01*
X0234884Y0022002D01*
X0235502Y0022002D02*
X0236119Y0022619D01*
X0236119Y0023236D01*
X0235502Y0023853D01*
X0234267Y0023853D01*
X0233650Y0023236D01*
X0243650Y0022002D02*
X0246119Y0022002D01*
X0245502Y0023853D02*
X0243650Y0022002D01*
X0245502Y0023853D02*
X0245502Y0020150D01*
X0253650Y0020767D02*
X0254267Y0020150D01*
X0255502Y0020150D01*
X0256119Y0020767D01*
X0256119Y0022002D01*
X0255502Y0022619D01*
X0254884Y0022619D01*
X0253650Y0022002D01*
X0253650Y0023853D01*
X0256119Y0023853D01*
X0247051Y0009439D02*
X0245199Y0009439D01*
X0245199Y0006970D01*
X0243978Y0006970D02*
X0242744Y0006970D01*
X0243361Y0006970D02*
X0243361Y0010673D01*
X0242744Y0010673D02*
X0243978Y0010673D01*
X0247051Y0009439D02*
X0247668Y0008822D01*
X0247668Y0006970D01*
X0237847Y0006970D02*
X0235995Y0006970D01*
X0235378Y0007587D01*
X0235378Y0008822D01*
X0235995Y0009439D01*
X0237847Y0009439D01*
X0237847Y0006353D01*
X0237229Y0005736D01*
X0236612Y0005736D01*
X0234163Y0007587D02*
X0234163Y0008822D01*
X0233546Y0009439D01*
X0232312Y0009439D01*
X0231695Y0008822D01*
X0231695Y0007587D01*
X0232312Y0006970D01*
X0233546Y0006970D01*
X0234163Y0007587D01*
X0230474Y0006970D02*
X0229239Y0006970D01*
X0229856Y0006970D02*
X0229856Y0010673D01*
X0229239Y0010673D01*
X0227408Y0009439D02*
X0228025Y0008822D01*
X0228025Y0006970D01*
X0226173Y0006970D01*
X0225556Y0007587D01*
X0226173Y0008204D01*
X0228025Y0008204D01*
X0227408Y0009439D02*
X0226173Y0009439D01*
X0224342Y0008822D02*
X0224342Y0006970D01*
X0224342Y0008822D02*
X0223724Y0009439D01*
X0221873Y0009439D01*
X0221873Y0006970D01*
X0220659Y0006970D02*
X0220659Y0009439D01*
X0219424Y0010673D01*
X0218190Y0009439D01*
X0218190Y0006970D01*
X0218190Y0008822D02*
X0220659Y0008822D01*
M02*
